<svg xmlns="http://www.w3.org/2000/svg" xmlns:xlink="http://www.w3.org/1999/xlink" width="1366" zoomAndPan="magnify" viewBox="0 0 1024.5 30.000001" height="768" preserveAspectRatio="xMidYMid meet" version="1.0"><defs><g/><clipPath id="9cb8810365"><path d="M 16.28125 0 L 1007.734375 0 L 1007.734375 29.03125 L 16.28125 29.03125 Z M 16.28125 0 " clip-rule="nonzero"/></clipPath></defs><g clip-path="url(#9cb8810365)"><path fill="#ffffff" d="M 16.28125 0 L 1007.734375 0 L 1007.734375 29.03125 L 16.28125 29.03125 Z M 16.28125 0 " fill-opacity="1" fill-rule="nonzero"/><path fill="#ffffff" d="M 16.28125 0 L 1007.734375 0 L 1007.734375 29.03125 L 16.28125 29.03125 Z M 16.28125 0 " fill-opacity="1" fill-rule="nonzero"/><rect x="-102.45" width="1229.4" fill="#2e2e2e" y="-3" height="36.000001" fill-opacity="1"/></g><g fill="#8fff00" fill-opacity="1"><g transform="translate(19.023943, 23.951615)"><g><path d="M 0.25 0 L 1.609375 -14.140625 L 6.40625 -14.140625 L 7.75 0 L 5.0625 0 L 4.875 -2.28125 L 3.15625 -2.28125 L 3 0 Z M 3.375 -4.546875 L 4.65625 -4.546875 L 4.03125 -11.734375 L 3.90625 -11.734375 Z M 3.375 -4.546875 "/></g></g></g><g fill="#8fff00" fill-opacity="1"><g transform="translate(26.999287, 23.951615)"><g><path d="M 0.625 -14.140625 L 4.359375 -14.140625 C 5.492188 -14.140625 6.300781 -13.769531 6.78125 -13.03125 C 7.257812 -12.300781 7.5 -11.238281 7.5 -9.84375 C 7.5 -8.4375 7.285156 -7.375 6.859375 -6.65625 C 6.429688 -5.945312 5.664062 -5.59375 4.5625 -5.59375 L 3.40625 -5.59375 L 3.40625 0 L 0.625 0 Z M 3.5625 -8.140625 C 3.90625 -8.140625 4.15625 -8.203125 4.3125 -8.328125 C 4.476562 -8.453125 4.582031 -8.632812 4.625 -8.875 C 4.675781 -9.113281 4.703125 -9.453125 4.703125 -9.890625 C 4.703125 -10.484375 4.632812 -10.910156 4.5 -11.171875 C 4.375 -11.429688 4.113281 -11.5625 3.71875 -11.5625 L 3.40625 -11.5625 L 3.40625 -8.140625 Z M 3.5625 -8.140625 "/></g></g></g><g fill="#8fff00" fill-opacity="1"><g transform="translate(34.760862, 23.951615)"><g><path d="M 3.90625 0.125 C 2.738281 0.125 1.867188 -0.203125 1.296875 -0.859375 C 0.734375 -1.515625 0.453125 -2.488281 0.453125 -3.78125 L 0.453125 -14.140625 L 3.203125 -14.140625 L 3.203125 -3.90625 C 3.203125 -3.445312 3.242188 -3.09375 3.328125 -2.84375 C 3.421875 -2.59375 3.613281 -2.46875 3.90625 -2.46875 C 4.1875 -2.46875 4.367188 -2.585938 4.453125 -2.828125 C 4.546875 -3.078125 4.59375 -3.4375 4.59375 -3.90625 L 4.59375 -14.140625 L 7.34375 -14.140625 L 7.34375 -3.78125 C 7.34375 -2.488281 7.054688 -1.515625 6.484375 -0.859375 C 5.921875 -0.203125 5.0625 0.125 3.90625 0.125 Z M 1.96875 -14.5625 L 1.96875 -16.359375 L 5.796875 -18.125 L 5.796875 -15.328125 Z M 1.96875 -14.5625 "/></g></g></g><g fill="#8fff00" fill-opacity="1"><g transform="translate(42.555329, 23.951615)"><g><path d="M 0.625 0 L 0.625 -14.140625 L 3.53125 -14.140625 L 4.84375 -7.375 L 4.84375 -14.140625 L 7.5625 -14.140625 L 7.5625 0 L 4.796875 0 L 3.390625 -7.078125 L 3.390625 0 Z M 0.625 0 "/></g></g></g><g fill="#8fff00" fill-opacity="1"><g transform="translate(50.744452, 23.951615)"><g><path d="M 1.84375 0 L 1.84375 -11.421875 L 0.171875 -11.421875 L 0.171875 -14.140625 L 6.34375 -14.140625 L 6.34375 -11.421875 L 4.671875 -11.421875 L 4.671875 0 Z M 1.84375 0 "/></g></g></g><g fill="#8fff00" fill-opacity="1"><g transform="translate(57.256287, 23.951615)"><g><path d="M 0.25 0 L 1.609375 -14.140625 L 6.40625 -14.140625 L 7.75 0 L 5.0625 0 L 4.875 -2.28125 L 3.15625 -2.28125 L 3 0 Z M 3.375 -4.546875 L 4.65625 -4.546875 L 4.03125 -11.734375 L 3.90625 -11.734375 Z M 3.375 -4.546875 "/></g></g></g><g fill="#8fff00" fill-opacity="1"><g transform="translate(65.231631, 23.951615)"><g><path d="M 1.84375 0 L 1.84375 -11.421875 L 0.171875 -11.421875 L 0.171875 -14.140625 L 6.34375 -14.140625 L 6.34375 -11.421875 L 4.671875 -11.421875 L 4.671875 0 Z M 1.84375 0 "/></g></g></g><g fill="#8fff00" fill-opacity="1"><g transform="translate(71.743466, 23.951615)"><g><path d="M 0.625 0 L 0.625 -14.140625 L 6.28125 -14.140625 L 6.28125 -11.40625 L 3.5 -11.40625 L 3.5 -8.65625 L 6.171875 -8.65625 L 6.171875 -5.984375 L 3.5 -5.984375 L 3.5 -2.75 L 6.46875 -2.75 L 6.46875 0 Z M 0.625 0 "/></g></g></g><g fill="#8fff00" fill-opacity="1"><g transform="translate(78.518398, 23.951615)"><g/></g></g><g fill="#8fff00" fill-opacity="1"><g transform="translate(82.366293, 23.951615)"><g><path d="M 0.25 0 L 1.609375 -14.140625 L 6.40625 -14.140625 L 7.75 0 L 5.0625 0 L 4.875 -2.28125 L 3.15625 -2.28125 L 3 0 Z M 3.375 -4.546875 L 4.65625 -4.546875 L 4.03125 -11.734375 L 3.90625 -11.734375 Z M 3.375 -4.546875 "/></g></g></g><g fill="#8fff00" fill-opacity="1"><g transform="translate(90.341636, 23.951615)"><g/></g></g><g fill="#8fff00" fill-opacity="1"><g transform="translate(94.189531, 23.951615)"><g><path d="M 0.625 0 L 0.625 -14.140625 L 3.453125 -14.140625 L 3.453125 -2.40625 L 6.375 -2.40625 L 6.375 0 Z M 0.625 0 "/></g></g></g><g fill="#8fff00" fill-opacity="1"><g transform="translate(100.717802, 23.951615)"><g><path d="M 0.25 0 L 1.609375 -14.140625 L 6.40625 -14.140625 L 7.75 0 L 5.0625 0 L 4.875 -2.28125 L 3.15625 -2.28125 L 3 0 Z M 3.375 -4.546875 L 4.65625 -4.546875 L 4.03125 -11.734375 L 3.90625 -11.734375 Z M 3.375 -4.546875 "/></g></g></g><g fill="#8fff00" fill-opacity="1"><g transform="translate(108.693146, 23.951615)"><g/></g></g><g fill="#8fff00" fill-opacity="1"><g transform="translate(112.541041, 23.951615)"><g><path d="M 1.734375 0 L 0.21875 -14.140625 L 2.984375 -14.140625 L 3.765625 -5.21875 L 4.5625 -14.140625 L 7.1875 -14.140625 L 7.953125 -5.21875 L 8.703125 -14.140625 L 11.5 -14.140625 L 9.953125 0 L 6.5625 0 L 5.859375 -6.8125 L 5.1875 0 Z M 1.734375 0 "/></g></g></g><g fill="#8fff00" fill-opacity="1"><g transform="translate(124.249177, 23.951615)"><g><path d="M 0.25 0 L 1.609375 -14.140625 L 6.40625 -14.140625 L 7.75 0 L 5.0625 0 L 4.875 -2.28125 L 3.15625 -2.28125 L 3 0 Z M 3.375 -4.546875 L 4.65625 -4.546875 L 4.03125 -11.734375 L 3.90625 -11.734375 Z M 3.375 -4.546875 "/></g></g></g><g fill="#8fff00" fill-opacity="1"><g transform="translate(132.22452, 23.951615)"><g><path d="M 0.5 0 L 0.5 -14.140625 L 3.21875 -14.140625 L 3.21875 0 Z M 0.5 0 "/></g></g></g><g fill="#8fff00" fill-opacity="1"><g transform="translate(135.957313, 23.951615)"><g><path d="M 1.84375 0 L 1.84375 -11.421875 L 0.171875 -11.421875 L 0.171875 -14.140625 L 6.34375 -14.140625 L 6.34375 -11.421875 L 4.671875 -11.421875 L 4.671875 0 Z M 1.84375 0 "/></g></g></g><g fill="#8fff00" fill-opacity="1"><g transform="translate(142.469149, 23.951615)"><g><path d="M 0.5 0 L 0.5 -14.140625 L 3.21875 -14.140625 L 3.21875 0 Z M 0.5 0 "/></g></g></g><g fill="#8fff00" fill-opacity="1"><g transform="translate(146.201942, 23.951615)"><g><path d="M 0.625 0 L 0.625 -14.140625 L 6.28125 -14.140625 L 6.28125 -11.40625 L 3.5 -11.40625 L 3.5 -8.65625 L 6.171875 -8.65625 L 6.171875 -5.984375 L 3.5 -5.984375 L 3.5 -2.75 L 6.46875 -2.75 L 6.46875 0 Z M 0.625 0 "/></g></g></g><g fill="#8fff00" fill-opacity="1"><g transform="translate(152.976874, 23.951615)"><g><path d="M 0.625 0 L 0.625 -14.140625 L 3.53125 -14.140625 L 4.84375 -7.375 L 4.84375 -14.140625 L 7.5625 -14.140625 L 7.5625 0 L 4.796875 0 L 3.390625 -7.078125 L 3.390625 0 Z M 0.625 0 "/></g></g></g><g fill="#8fff00" fill-opacity="1"><g transform="translate(161.165997, 23.951615)"><g><path d="M 3.53125 0.125 C 2.507812 0.125 1.75 -0.234375 1.25 -0.953125 C 0.757812 -1.671875 0.515625 -2.757812 0.515625 -4.21875 L 0.515625 -10.296875 C 0.515625 -11.597656 0.800781 -12.582031 1.375 -13.25 C 1.957031 -13.925781 2.828125 -14.265625 3.984375 -14.265625 C 4.910156 -14.265625 5.628906 -14.078125 6.140625 -13.703125 C 6.660156 -13.328125 7.019531 -12.78125 7.21875 -12.0625 C 7.414062 -11.351562 7.515625 -10.441406 7.515625 -9.328125 L 4.75 -9.328125 L 4.75 -10.59375 C 4.75 -10.9375 4.703125 -11.203125 4.609375 -11.390625 C 4.515625 -11.578125 4.347656 -11.671875 4.109375 -11.671875 C 3.578125 -11.671875 3.3125 -11.316406 3.3125 -10.609375 L 3.3125 -3.765625 C 3.3125 -3.335938 3.363281 -3.015625 3.46875 -2.796875 C 3.582031 -2.578125 3.773438 -2.46875 4.046875 -2.46875 C 4.316406 -2.46875 4.503906 -2.578125 4.609375 -2.796875 C 4.722656 -3.015625 4.78125 -3.335938 4.78125 -3.765625 L 4.78125 -5.796875 L 4.03125 -5.796875 L 4.03125 -8.21875 L 7.484375 -8.21875 L 7.484375 0 L 6.34375 0 L 5.875 -1.1875 C 5.363281 -0.3125 4.582031 0.125 3.53125 0.125 Z M 3.53125 0.125 "/></g></g></g><g fill="#8fff00" fill-opacity="1"><g transform="translate(169.14134, 23.951615)"><g/></g></g><g fill="#8fff00" fill-opacity="1"><g transform="translate(172.989235, 23.951615)"><g><path d="M 0.625 0 L 0.625 -14.140625 L 3.453125 -14.140625 L 3.453125 -2.40625 L 6.375 -2.40625 L 6.375 0 Z M 0.625 0 "/></g></g></g><g fill="#8fff00" fill-opacity="1"><g transform="translate(179.517506, 23.951615)"><g><path d="M 0.5 0 L 0.5 -14.140625 L 3.21875 -14.140625 L 3.21875 0 Z M 0.5 0 "/></g></g></g><g fill="#8fff00" fill-opacity="1"><g transform="translate(183.250299, 23.951615)"><g><path d="M 3.984375 0.125 C 2.703125 0.125 1.773438 -0.191406 1.203125 -0.828125 C 0.628906 -1.460938 0.34375 -2.488281 0.34375 -3.90625 L 0.34375 -5.28125 L 3.125 -5.28125 L 3.125 -3.515625 C 3.125 -2.816406 3.347656 -2.46875 3.796875 -2.46875 C 4.046875 -2.46875 4.21875 -2.539062 4.3125 -2.6875 C 4.414062 -2.832031 4.46875 -3.082031 4.46875 -3.4375 C 4.46875 -3.894531 4.410156 -4.273438 4.296875 -4.578125 C 4.191406 -4.878906 4.054688 -5.128906 3.890625 -5.328125 C 3.722656 -5.535156 3.421875 -5.851562 2.984375 -6.28125 L 1.765625 -7.5 C 0.816406 -8.425781 0.34375 -9.445312 0.34375 -10.5625 C 0.34375 -11.769531 0.617188 -12.6875 1.171875 -13.3125 C 1.722656 -13.945312 2.535156 -14.265625 3.609375 -14.265625 C 4.878906 -14.265625 5.789062 -13.925781 6.34375 -13.25 C 6.90625 -12.570312 7.1875 -11.515625 7.1875 -10.078125 L 4.3125 -10.078125 L 4.296875 -11.0625 C 4.296875 -11.25 4.242188 -11.394531 4.140625 -11.5 C 4.035156 -11.613281 3.890625 -11.671875 3.703125 -11.671875 C 3.484375 -11.671875 3.316406 -11.609375 3.203125 -11.484375 C 3.097656 -11.359375 3.046875 -11.191406 3.046875 -10.984375 C 3.046875 -10.523438 3.304688 -10.050781 3.828125 -9.5625 L 5.484375 -7.984375 C 5.867188 -7.609375 6.1875 -7.253906 6.4375 -6.921875 C 6.6875 -6.585938 6.882812 -6.191406 7.03125 -5.734375 C 7.1875 -5.273438 7.265625 -4.734375 7.265625 -4.109375 C 7.265625 -2.722656 7.007812 -1.671875 6.5 -0.953125 C 5.988281 -0.234375 5.148438 0.125 3.984375 0.125 Z M 3.984375 0.125 "/></g></g></g><g fill="#8fff00" fill-opacity="1"><g transform="translate(190.830987, 23.951615)"><g><path d="M 1.84375 0 L 1.84375 -11.421875 L 0.171875 -11.421875 L 0.171875 -14.140625 L 6.34375 -14.140625 L 6.34375 -11.421875 L 4.671875 -11.421875 L 4.671875 0 Z M 1.84375 0 "/></g></g></g><g fill="#8fff00" fill-opacity="1"><g transform="translate(197.345518, 23.951615)"><g/></g></g><g fill="#e4dad1" fill-opacity="1"><g transform="translate(201.201365, 23.951615)"><g/></g></g><g fill="#e4dad1" fill-opacity="1"><g transform="translate(205.04926, 23.951615)"><g/></g></g><g fill="#e4dad1" fill-opacity="1"><g transform="translate(208.897155, 23.951615)"><g/></g></g><g fill="#e4dad1" fill-opacity="1"><g transform="translate(212.74505, 23.951615)"><g/></g></g><g fill="#e4dad1" fill-opacity="1"><g transform="translate(216.592945, 23.951615)"><g/></g></g><g fill="#e4dad1" fill-opacity="1"><g transform="translate(220.44084, 23.951615)"><g/></g></g><g fill="#8fff00" fill-opacity="1"><g transform="translate(224.291082, 23.951615)"><g><path d="M 0.625 0 L 0.625 -14.140625 L 3.53125 -14.140625 L 4.84375 -7.375 L 4.84375 -14.140625 L 7.5625 -14.140625 L 7.5625 0 L 4.796875 0 L 3.390625 -7.078125 L 3.390625 0 Z M 0.625 0 "/></g></g></g><g fill="#8fff00" fill-opacity="1"><g transform="translate(232.480205, 23.951615)"><g><path d="M 4 0.125 C 2.851562 0.125 1.984375 -0.21875 1.390625 -0.90625 C 0.804688 -1.601562 0.515625 -2.582031 0.515625 -3.84375 L 0.515625 -10.578125 C 0.515625 -11.796875 0.804688 -12.710938 1.390625 -13.328125 C 1.984375 -13.953125 2.851562 -14.265625 4 -14.265625 C 5.132812 -14.265625 6 -13.953125 6.59375 -13.328125 C 7.1875 -12.710938 7.484375 -11.796875 7.484375 -10.578125 L 7.484375 -3.84375 C 7.484375 -2.570312 7.1875 -1.59375 6.59375 -0.90625 C 6 -0.21875 5.132812 0.125 4 0.125 Z M 4 -2.46875 C 4.25 -2.46875 4.414062 -2.578125 4.5 -2.796875 C 4.59375 -3.015625 4.640625 -3.320312 4.640625 -3.71875 L 4.640625 -10.625 C 4.640625 -10.9375 4.597656 -11.1875 4.515625 -11.375 C 4.429688 -11.570312 4.265625 -11.671875 4.015625 -11.671875 C 3.546875 -11.671875 3.3125 -11.3125 3.3125 -10.59375 L 3.3125 -3.703125 C 3.3125 -3.296875 3.359375 -2.988281 3.453125 -2.78125 C 3.554688 -2.570312 3.738281 -2.46875 4 -2.46875 Z M 4 -2.46875 "/></g></g></g><g fill="#8fff00" fill-opacity="1"><g transform="translate(240.471994, 23.951615)"><g/></g></g><g fill="#8fff00" fill-opacity="1"><g transform="translate(244.319889, 23.951615)"><g><path d="M 0.625 -14.140625 L 4.53125 -14.140625 C 5.53125 -14.140625 6.28125 -13.859375 6.78125 -13.296875 C 7.289062 -12.734375 7.550781 -11.90625 7.5625 -10.8125 L 7.59375 -4.203125 C 7.613281 -2.804688 7.375 -1.753906 6.875 -1.046875 C 6.382812 -0.347656 5.566406 0 4.421875 0 L 0.625 0 Z M 3.96875 -2.5 C 4.476562 -2.5 4.734375 -2.75 4.734375 -3.25 L 4.734375 -10.546875 C 4.734375 -10.867188 4.707031 -11.109375 4.65625 -11.265625 C 4.613281 -11.421875 4.523438 -11.523438 4.390625 -11.578125 C 4.265625 -11.640625 4.0625 -11.671875 3.78125 -11.671875 L 3.46875 -11.671875 L 3.46875 -2.5 Z M 3.96875 -2.5 "/></g></g></g><g fill="#8fff00" fill-opacity="1"><g transform="translate(252.426792, 23.951615)"><g><path d="M 0.625 0 L 0.625 -14.140625 L 6.28125 -14.140625 L 6.28125 -11.40625 L 3.5 -11.40625 L 3.5 -8.65625 L 6.171875 -8.65625 L 6.171875 -5.984375 L 3.5 -5.984375 L 3.5 -2.75 L 6.46875 -2.75 L 6.46875 0 Z M 0.625 0 "/></g></g></g><g fill="#8fff00" fill-opacity="1"><g transform="translate(259.201723, 23.951615)"><g><path d="M 3.765625 0.125 C 3.117188 0.125 2.53125 0 2 -0.25 C 1.476562 -0.5 1.066406 -0.867188 0.765625 -1.359375 C 0.460938 -1.847656 0.3125 -2.4375 0.3125 -3.125 L 0.3125 -6.65625 L 3.09375 -6.65625 L 3.09375 -3.296875 C 3.09375 -3.035156 3.144531 -2.832031 3.25 -2.6875 C 3.351562 -2.539062 3.515625 -2.46875 3.734375 -2.46875 C 3.941406 -2.46875 4.097656 -2.535156 4.203125 -2.671875 C 4.304688 -2.804688 4.359375 -3 4.359375 -3.25 L 4.359375 -14.140625 L 7.203125 -14.140625 L 7.203125 -3.53125 C 7.203125 -2.800781 7.054688 -2.15625 6.765625 -1.59375 C 6.472656 -1.039062 6.066406 -0.613281 5.546875 -0.3125 C 5.023438 -0.0195312 4.429688 0.125 3.765625 0.125 Z M 3.765625 0.125 "/></g></g></g><g fill="#8fff00" fill-opacity="1"><g transform="translate(266.864632, 23.951615)"><g><path d="M 0.625 0 L 0.625 -14.140625 L 6.28125 -14.140625 L 6.28125 -11.40625 L 3.5 -11.40625 L 3.5 -8.65625 L 6.171875 -8.65625 L 6.171875 -5.984375 L 3.5 -5.984375 L 3.5 -2.75 L 6.46875 -2.75 L 6.46875 0 Z M 0.625 0 "/></g></g></g><g fill="#8fff00" fill-opacity="1"><g transform="translate(273.639564, 23.951615)"><g><path d="M 3.984375 0.125 C 2.703125 0.125 1.773438 -0.191406 1.203125 -0.828125 C 0.628906 -1.460938 0.34375 -2.488281 0.34375 -3.90625 L 0.34375 -5.28125 L 3.125 -5.28125 L 3.125 -3.515625 C 3.125 -2.816406 3.347656 -2.46875 3.796875 -2.46875 C 4.046875 -2.46875 4.21875 -2.539062 4.3125 -2.6875 C 4.414062 -2.832031 4.46875 -3.082031 4.46875 -3.4375 C 4.46875 -3.894531 4.410156 -4.273438 4.296875 -4.578125 C 4.191406 -4.878906 4.054688 -5.128906 3.890625 -5.328125 C 3.722656 -5.535156 3.421875 -5.851562 2.984375 -6.28125 L 1.765625 -7.5 C 0.816406 -8.425781 0.34375 -9.445312 0.34375 -10.5625 C 0.34375 -11.769531 0.617188 -12.6875 1.171875 -13.3125 C 1.722656 -13.945312 2.535156 -14.265625 3.609375 -14.265625 C 4.878906 -14.265625 5.789062 -13.925781 6.34375 -13.25 C 6.90625 -12.570312 7.1875 -11.515625 7.1875 -10.078125 L 4.3125 -10.078125 L 4.296875 -11.0625 C 4.296875 -11.25 4.242188 -11.394531 4.140625 -11.5 C 4.035156 -11.613281 3.890625 -11.671875 3.703125 -11.671875 C 3.484375 -11.671875 3.316406 -11.609375 3.203125 -11.484375 C 3.097656 -11.359375 3.046875 -11.191406 3.046875 -10.984375 C 3.046875 -10.523438 3.304688 -10.050781 3.828125 -9.5625 L 5.484375 -7.984375 C 5.867188 -7.609375 6.1875 -7.253906 6.4375 -6.921875 C 6.6875 -6.585938 6.882812 -6.191406 7.03125 -5.734375 C 7.1875 -5.273438 7.265625 -4.734375 7.265625 -4.109375 C 7.265625 -2.722656 7.007812 -1.671875 6.5 -0.953125 C 5.988281 -0.234375 5.148438 0.125 3.984375 0.125 Z M 3.984375 0.125 "/></g></g></g><g fill="#8fff00" fill-opacity="1"><g transform="translate(281.220252, 23.951615)"><g/></g></g><g fill="#8fff00" fill-opacity="1"><g transform="translate(285.068147, 23.951615)"><g><path d="M 4.625 0.015625 C 4.207031 0.0859375 3.972656 0.125 3.921875 0.125 C 2.773438 0.125 1.90625 -0.195312 1.3125 -0.84375 C 0.71875 -1.5 0.421875 -2.457031 0.421875 -3.71875 L 0.421875 -10.546875 C 0.421875 -11.765625 0.71875 -12.6875 1.3125 -13.3125 C 1.914062 -13.945312 2.785156 -14.265625 3.921875 -14.265625 C 5.046875 -14.265625 5.90625 -13.945312 6.5 -13.3125 C 7.101562 -12.6875 7.40625 -11.765625 7.40625 -10.546875 L 7.40625 -3.71875 C 7.40625 -2.550781 7.140625 -1.628906 6.609375 -0.953125 L 7.828125 -0.1875 L 6.875 1.5 Z M 3.921875 -2.46875 C 4.191406 -2.46875 4.363281 -2.597656 4.4375 -2.859375 C 4.519531 -3.117188 4.5625 -3.460938 4.5625 -3.890625 L 4.5625 -10.5 C 4.5625 -10.863281 4.515625 -11.148438 4.421875 -11.359375 C 4.328125 -11.566406 4.15625 -11.671875 3.90625 -11.671875 C 3.445312 -11.671875 3.21875 -11.285156 3.21875 -10.515625 L 3.21875 -3.828125 C 3.21875 -3.429688 3.257812 -3.101562 3.34375 -2.84375 C 3.4375 -2.59375 3.628906 -2.46875 3.921875 -2.46875 Z M 3.921875 -2.46875 "/></g></g></g><g fill="#8fff00" fill-opacity="1"><g transform="translate(293.191495, 23.951615)"><g><path d="M 3.90625 0.125 C 2.738281 0.125 1.867188 -0.203125 1.296875 -0.859375 C 0.734375 -1.515625 0.453125 -2.488281 0.453125 -3.78125 L 0.453125 -14.140625 L 3.203125 -14.140625 L 3.203125 -3.90625 C 3.203125 -3.445312 3.242188 -3.09375 3.328125 -2.84375 C 3.421875 -2.59375 3.613281 -2.46875 3.90625 -2.46875 C 4.1875 -2.46875 4.367188 -2.585938 4.453125 -2.828125 C 4.546875 -3.078125 4.59375 -3.4375 4.59375 -3.90625 L 4.59375 -14.140625 L 7.34375 -14.140625 L 7.34375 -3.78125 C 7.34375 -2.488281 7.054688 -1.515625 6.484375 -0.859375 C 5.921875 -0.203125 5.0625 0.125 3.90625 0.125 Z M 3.90625 0.125 "/></g></g></g><g fill="#8fff00" fill-opacity="1"><g transform="translate(300.985963, 23.951615)"><g><path d="M 0.625 0 L 0.625 -14.140625 L 6.28125 -14.140625 L 6.28125 -11.40625 L 3.5 -11.40625 L 3.5 -8.65625 L 6.171875 -8.65625 L 6.171875 -5.984375 L 3.5 -5.984375 L 3.5 -2.75 L 6.46875 -2.75 L 6.46875 0 Z M 0.625 0 "/></g></g></g><g fill="#8fff00" fill-opacity="1"><g transform="translate(307.760895, 23.951615)"><g/></g></g><g fill="#8fff00" fill-opacity="1"><g transform="translate(311.60879, 23.951615)"><g><path d="M 1.84375 0 L 1.84375 -11.421875 L 0.171875 -11.421875 L 0.171875 -14.140625 L 6.34375 -14.140625 L 6.34375 -11.421875 L 4.671875 -11.421875 L 4.671875 0 Z M 1.84375 0 "/></g></g></g><g fill="#8fff00" fill-opacity="1"><g transform="translate(318.120625, 23.951615)"><g><path d="M 0.625 0 L 0.625 -14.140625 L 6.28125 -14.140625 L 6.28125 -11.40625 L 3.5 -11.40625 L 3.5 -8.65625 L 6.171875 -8.65625 L 6.171875 -5.984375 L 3.5 -5.984375 L 3.5 -2.75 L 6.46875 -2.75 L 6.46875 0 Z M 0.625 0 "/></g></g></g><g fill="#8fff00" fill-opacity="1"><g transform="translate(324.895557, 23.951615)"><g/></g></g><g fill="#8fff00" fill-opacity="1"><g transform="translate(328.743452, 23.951615)"><g><path d="M 0.625 0 L 0.625 -14.140625 L 3.453125 -14.140625 L 3.453125 -2.40625 L 6.375 -2.40625 L 6.375 0 Z M 0.625 0 "/></g></g></g><g fill="#8fff00" fill-opacity="1"><g transform="translate(335.271723, 23.951615)"><g><path d="M 4 0.125 C 2.851562 0.125 1.984375 -0.21875 1.390625 -0.90625 C 0.804688 -1.601562 0.515625 -2.582031 0.515625 -3.84375 L 0.515625 -10.578125 C 0.515625 -11.796875 0.804688 -12.710938 1.390625 -13.328125 C 1.984375 -13.953125 2.851562 -14.265625 4 -14.265625 C 5.132812 -14.265625 6 -13.953125 6.59375 -13.328125 C 7.1875 -12.710938 7.484375 -11.796875 7.484375 -10.578125 L 7.484375 -3.84375 C 7.484375 -2.570312 7.1875 -1.59375 6.59375 -0.90625 C 6 -0.21875 5.132812 0.125 4 0.125 Z M 4 -2.46875 C 4.25 -2.46875 4.414062 -2.578125 4.5 -2.796875 C 4.59375 -3.015625 4.640625 -3.320312 4.640625 -3.71875 L 4.640625 -10.625 C 4.640625 -10.9375 4.597656 -11.1875 4.515625 -11.375 C 4.429688 -11.570312 4.265625 -11.671875 4.015625 -11.671875 C 3.546875 -11.671875 3.3125 -11.3125 3.3125 -10.59375 L 3.3125 -3.703125 C 3.3125 -3.296875 3.359375 -2.988281 3.453125 -2.78125 C 3.554688 -2.570312 3.738281 -2.46875 4 -2.46875 Z M 4 -2.46875 "/></g></g></g><g fill="#8fff00" fill-opacity="1"><g transform="translate(343.263513, 23.951615)"><g/></g></g><g fill="#8fff00" fill-opacity="1"><g transform="translate(347.111408, 23.951615)"><g><path d="M 3.921875 0.125 C 2.890625 0.125 2.0625 -0.195312 1.4375 -0.84375 C 0.820312 -1.488281 0.515625 -2.375 0.515625 -3.5 L 0.515625 -10.015625 C 0.515625 -11.421875 0.789062 -12.476562 1.34375 -13.1875 C 1.90625 -13.90625 2.785156 -14.265625 3.984375 -14.265625 C 5.023438 -14.265625 5.863281 -13.976562 6.5 -13.40625 C 7.132812 -12.832031 7.453125 -12.007812 7.453125 -10.9375 L 7.453125 -8.5 L 4.640625 -8.5 L 4.640625 -10.59375 C 4.640625 -11 4.585938 -11.28125 4.484375 -11.4375 C 4.390625 -11.59375 4.222656 -11.671875 3.984375 -11.671875 C 3.734375 -11.671875 3.5625 -11.582031 3.46875 -11.40625 C 3.375 -11.226562 3.328125 -10.96875 3.328125 -10.625 L 3.328125 -3.53125 C 3.328125 -3.164062 3.378906 -2.894531 3.484375 -2.71875 C 3.597656 -2.550781 3.765625 -2.46875 3.984375 -2.46875 C 4.421875 -2.46875 4.640625 -2.820312 4.640625 -3.53125 L 4.640625 -6.09375 L 7.484375 -6.09375 L 7.484375 -3.421875 C 7.484375 -1.054688 6.296875 0.125 3.921875 0.125 Z M 3.921875 0.125 "/></g></g></g><g fill="#8fff00" fill-opacity="1"><g transform="translate(354.905875, 23.951615)"><g><path d="M 3.90625 0.125 C 2.738281 0.125 1.867188 -0.203125 1.296875 -0.859375 C 0.734375 -1.515625 0.453125 -2.488281 0.453125 -3.78125 L 0.453125 -14.140625 L 3.203125 -14.140625 L 3.203125 -3.90625 C 3.203125 -3.445312 3.242188 -3.09375 3.328125 -2.84375 C 3.421875 -2.59375 3.613281 -2.46875 3.90625 -2.46875 C 4.1875 -2.46875 4.367188 -2.585938 4.453125 -2.828125 C 4.546875 -3.078125 4.59375 -3.4375 4.59375 -3.90625 L 4.59375 -14.140625 L 7.34375 -14.140625 L 7.34375 -3.78125 C 7.34375 -2.488281 7.054688 -1.515625 6.484375 -0.859375 C 5.921875 -0.203125 5.0625 0.125 3.90625 0.125 Z M 3.90625 0.125 "/></g></g></g><g fill="#8fff00" fill-opacity="1"><g transform="translate(362.700343, 23.951615)"><g><path d="M 0.625 0 L 0.625 -14.140625 L 6.28125 -14.140625 L 6.28125 -11.40625 L 3.5 -11.40625 L 3.5 -8.65625 L 6.171875 -8.65625 L 6.171875 -5.984375 L 3.5 -5.984375 L 3.5 -2.75 L 6.46875 -2.75 L 6.46875 0 Z M 0.625 0 "/></g></g></g><g fill="#8fff00" fill-opacity="1"><g transform="translate(369.475275, 23.951615)"><g><path d="M 0.625 0 L 0.625 -14.140625 L 3.53125 -14.140625 L 4.84375 -7.375 L 4.84375 -14.140625 L 7.5625 -14.140625 L 7.5625 0 L 4.796875 0 L 3.390625 -7.078125 L 3.390625 0 Z M 0.625 0 "/></g></g></g><g fill="#8fff00" fill-opacity="1"><g transform="translate(377.664397, 23.951615)"><g><path d="M 1.84375 0 L 1.84375 -11.421875 L 0.171875 -11.421875 L 0.171875 -14.140625 L 6.34375 -14.140625 L 6.34375 -11.421875 L 4.671875 -11.421875 L 4.671875 0 Z M 1.84375 0 "/></g></g></g><g fill="#8fff00" fill-opacity="1"><g transform="translate(384.176233, 23.951615)"><g><path d="M 0.625 0 L 0.625 -14.140625 L 6.28125 -14.140625 L 6.28125 -11.40625 L 3.5 -11.40625 L 3.5 -8.65625 L 6.171875 -8.65625 L 6.171875 -5.984375 L 3.5 -5.984375 L 3.5 -2.75 L 6.46875 -2.75 L 6.46875 0 Z M 0.625 0 "/></g></g></g><g fill="#8fff00" fill-opacity="1"><g transform="translate(390.951165, 23.951615)"><g><path d="M 0.625 0 L 0.625 -14.140625 L 3.53125 -14.140625 L 4.84375 -7.375 L 4.84375 -14.140625 L 7.5625 -14.140625 L 7.5625 0 L 4.796875 0 L 3.390625 -7.078125 L 3.390625 0 Z M 0.625 0 "/></g></g></g><g fill="#8fff00" fill-opacity="1"><g transform="translate(399.142391, 23.951615)"><g/></g></g><g fill="#8fff00" fill-opacity="1"><g transform="translate(402.990286, 23.951615)"><g/></g></g><g fill="#8fff00" fill-opacity="1"><g transform="translate(406.838181, 23.951615)"><g/></g></g><g fill="#8fff00" fill-opacity="1"><g transform="translate(410.686076, 23.951615)"><g/></g></g><g fill="#8fff00" fill-opacity="1"><g transform="translate(414.533971, 23.951615)"><g/></g></g><g fill="#8fff00" fill-opacity="1"><g transform="translate(418.381866, 23.951615)"><g/></g></g><g fill="#8fff00" fill-opacity="1"><g transform="translate(422.232109, 23.951615)"><g><path d="M 0.625 -14.140625 L 4.96875 -14.140625 C 5.65625 -14.140625 6.1875 -13.984375 6.5625 -13.671875 C 6.945312 -13.359375 7.203125 -12.914062 7.328125 -12.34375 C 7.460938 -11.78125 7.53125 -11.0625 7.53125 -10.1875 C 7.53125 -9.382812 7.425781 -8.757812 7.21875 -8.3125 C 7.007812 -7.863281 6.648438 -7.550781 6.140625 -7.375 C 6.566406 -7.28125 6.875 -7.0625 7.0625 -6.71875 C 7.257812 -6.382812 7.359375 -5.925781 7.359375 -5.34375 L 7.328125 0 L 4.5625 0 L 4.5625 -5.53125 C 4.5625 -5.925781 4.484375 -6.175781 4.328125 -6.28125 C 4.171875 -6.394531 3.890625 -6.453125 3.484375 -6.453125 L 3.484375 0 L 0.625 0 Z M 4.171875 -8.90625 C 4.566406 -8.90625 4.765625 -9.332031 4.765625 -10.1875 C 4.765625 -10.5625 4.75 -10.835938 4.71875 -11.015625 C 4.6875 -11.203125 4.625 -11.332031 4.53125 -11.40625 C 4.445312 -11.476562 4.320312 -11.515625 4.15625 -11.515625 L 3.5 -11.515625 L 3.5 -8.90625 Z M 4.171875 -8.90625 "/></g></g></g><g fill="#8fff00" fill-opacity="1"><g transform="translate(430.075904, 23.951615)"><g><path d="M 4 0.125 C 2.851562 0.125 1.984375 -0.21875 1.390625 -0.90625 C 0.804688 -1.601562 0.515625 -2.582031 0.515625 -3.84375 L 0.515625 -10.578125 C 0.515625 -11.796875 0.804688 -12.710938 1.390625 -13.328125 C 1.984375 -13.953125 2.851562 -14.265625 4 -14.265625 C 5.132812 -14.265625 6 -13.953125 6.59375 -13.328125 C 7.1875 -12.710938 7.484375 -11.796875 7.484375 -10.578125 L 7.484375 -3.84375 C 7.484375 -2.570312 7.1875 -1.59375 6.59375 -0.90625 C 6 -0.21875 5.132812 0.125 4 0.125 Z M 4 -2.46875 C 4.25 -2.46875 4.414062 -2.578125 4.5 -2.796875 C 4.59375 -3.015625 4.640625 -3.320312 4.640625 -3.71875 L 4.640625 -10.625 C 4.640625 -10.9375 4.597656 -11.1875 4.515625 -11.375 C 4.429688 -11.570312 4.265625 -11.671875 4.015625 -11.671875 C 3.546875 -11.671875 3.3125 -11.3125 3.3125 -10.59375 L 3.3125 -3.703125 C 3.3125 -3.296875 3.359375 -2.988281 3.453125 -2.78125 C 3.554688 -2.570312 3.738281 -2.46875 4 -2.46875 Z M 4 -2.46875 "/></g></g></g><g fill="#8fff00" fill-opacity="1"><g transform="translate(438.067694, 23.951615)"><g><path d="M 0.625 0 L 0.625 -14.140625 L 4.9375 -14.140625 L 6.125 -5.515625 L 7.3125 -14.140625 L 11.65625 -14.140625 L 11.65625 0 L 9.0625 0 L 9.0625 -10.1875 L 7.4375 0 L 4.90625 0 L 3.171875 -10.1875 L 3.171875 0 Z M 0.625 0 "/></g></g></g><g fill="#8fff00" fill-opacity="1"><g transform="translate(450.334926, 23.951615)"><g><path d="M 0.625 -14.140625 L 4.359375 -14.140625 C 5.492188 -14.140625 6.300781 -13.769531 6.78125 -13.03125 C 7.257812 -12.300781 7.5 -11.238281 7.5 -9.84375 C 7.5 -8.4375 7.285156 -7.375 6.859375 -6.65625 C 6.429688 -5.945312 5.664062 -5.59375 4.5625 -5.59375 L 3.40625 -5.59375 L 3.40625 0 L 0.625 0 Z M 3.5625 -8.140625 C 3.90625 -8.140625 4.15625 -8.203125 4.3125 -8.328125 C 4.476562 -8.453125 4.582031 -8.632812 4.625 -8.875 C 4.675781 -9.113281 4.703125 -9.453125 4.703125 -9.890625 C 4.703125 -10.484375 4.632812 -10.910156 4.5 -11.171875 C 4.375 -11.429688 4.113281 -11.5625 3.71875 -11.5625 L 3.40625 -11.5625 L 3.40625 -8.140625 Z M 3.5625 -8.140625 "/></g></g></g><g fill="#8fff00" fill-opacity="1"><g transform="translate(458.096501, 23.951615)"><g><path d="M 0.25 0 L 1.609375 -14.140625 L 6.40625 -14.140625 L 7.75 0 L 5.0625 0 L 4.875 -2.28125 L 3.15625 -2.28125 L 3 0 Z M 3.375 -4.546875 L 4.65625 -4.546875 L 4.03125 -11.734375 L 3.90625 -11.734375 Z M 3.375 -4.546875 "/></g></g></g><g fill="#8fff00" fill-opacity="1"><g transform="translate(466.071844, 23.951615)"><g><path d="M 0.625 0 L 0.625 -14.140625 L 4.9375 -14.140625 L 6.125 -5.515625 L 7.3125 -14.140625 L 11.65625 -14.140625 L 11.65625 0 L 9.0625 0 L 9.0625 -10.1875 L 7.4375 0 L 4.90625 0 L 3.171875 -10.1875 L 3.171875 0 Z M 0.625 0 "/></g></g></g><g fill="#8fff00" fill-opacity="1"><g transform="translate(478.339076, 23.951615)"><g><path d="M 4 0.125 C 2.851562 0.125 1.984375 -0.21875 1.390625 -0.90625 C 0.804688 -1.601562 0.515625 -2.582031 0.515625 -3.84375 L 0.515625 -10.578125 C 0.515625 -11.796875 0.804688 -12.710938 1.390625 -13.328125 C 1.984375 -13.953125 2.851562 -14.265625 4 -14.265625 C 5.132812 -14.265625 6 -13.953125 6.59375 -13.328125 C 7.1875 -12.710938 7.484375 -11.796875 7.484375 -10.578125 L 7.484375 -3.84375 C 7.484375 -2.570312 7.1875 -1.59375 6.59375 -0.90625 C 6 -0.21875 5.132812 0.125 4 0.125 Z M 4 -2.46875 C 4.25 -2.46875 4.414062 -2.578125 4.5 -2.796875 C 4.59375 -3.015625 4.640625 -3.320312 4.640625 -3.71875 L 4.640625 -10.625 C 4.640625 -10.9375 4.597656 -11.1875 4.515625 -11.375 C 4.429688 -11.570312 4.265625 -11.671875 4.015625 -11.671875 C 3.546875 -11.671875 3.3125 -11.3125 3.3125 -10.59375 L 3.3125 -3.703125 C 3.3125 -3.296875 3.359375 -2.988281 3.453125 -2.78125 C 3.554688 -2.570312 3.738281 -2.46875 4 -2.46875 Z M 4 -2.46875 "/></g></g></g><g fill="#8fff00" fill-opacity="1"><g transform="translate(486.330866, 23.951615)"><g><path d="M 3.984375 0.125 C 2.703125 0.125 1.773438 -0.191406 1.203125 -0.828125 C 0.628906 -1.460938 0.34375 -2.488281 0.34375 -3.90625 L 0.34375 -5.28125 L 3.125 -5.28125 L 3.125 -3.515625 C 3.125 -2.816406 3.347656 -2.46875 3.796875 -2.46875 C 4.046875 -2.46875 4.21875 -2.539062 4.3125 -2.6875 C 4.414062 -2.832031 4.46875 -3.082031 4.46875 -3.4375 C 4.46875 -3.894531 4.410156 -4.273438 4.296875 -4.578125 C 4.191406 -4.878906 4.054688 -5.128906 3.890625 -5.328125 C 3.722656 -5.535156 3.421875 -5.851562 2.984375 -6.28125 L 1.765625 -7.5 C 0.816406 -8.425781 0.34375 -9.445312 0.34375 -10.5625 C 0.34375 -11.769531 0.617188 -12.6875 1.171875 -13.3125 C 1.722656 -13.945312 2.535156 -14.265625 3.609375 -14.265625 C 4.878906 -14.265625 5.789062 -13.925781 6.34375 -13.25 C 6.90625 -12.570312 7.1875 -11.515625 7.1875 -10.078125 L 4.3125 -10.078125 L 4.296875 -11.0625 C 4.296875 -11.25 4.242188 -11.394531 4.140625 -11.5 C 4.035156 -11.613281 3.890625 -11.671875 3.703125 -11.671875 C 3.484375 -11.671875 3.316406 -11.609375 3.203125 -11.484375 C 3.097656 -11.359375 3.046875 -11.191406 3.046875 -10.984375 C 3.046875 -10.523438 3.304688 -10.050781 3.828125 -9.5625 L 5.484375 -7.984375 C 5.867188 -7.609375 6.1875 -7.253906 6.4375 -6.921875 C 6.6875 -6.585938 6.882812 -6.191406 7.03125 -5.734375 C 7.1875 -5.273438 7.265625 -4.734375 7.265625 -4.109375 C 7.265625 -2.722656 7.007812 -1.671875 6.5 -0.953125 C 5.988281 -0.234375 5.148438 0.125 3.984375 0.125 Z M 3.984375 0.125 "/></g></g></g><g fill="#8fff00" fill-opacity="1"><g transform="translate(493.911554, 23.951615)"><g/></g></g><g fill="#8fff00" fill-opacity="1"><g transform="translate(497.759449, 23.951615)"><g><path d="M 3.921875 0.125 C 2.890625 0.125 2.0625 -0.195312 1.4375 -0.84375 C 0.820312 -1.488281 0.515625 -2.375 0.515625 -3.5 L 0.515625 -10.015625 C 0.515625 -11.421875 0.789062 -12.476562 1.34375 -13.1875 C 1.90625 -13.90625 2.785156 -14.265625 3.984375 -14.265625 C 5.023438 -14.265625 5.863281 -13.976562 6.5 -13.40625 C 7.132812 -12.832031 7.453125 -12.007812 7.453125 -10.9375 L 7.453125 -8.5 L 4.640625 -8.5 L 4.640625 -10.59375 C 4.640625 -11 4.585938 -11.28125 4.484375 -11.4375 C 4.390625 -11.59375 4.222656 -11.671875 3.984375 -11.671875 C 3.734375 -11.671875 3.5625 -11.582031 3.46875 -11.40625 C 3.375 -11.226562 3.328125 -10.96875 3.328125 -10.625 L 3.328125 -3.53125 C 3.328125 -3.164062 3.378906 -2.894531 3.484375 -2.71875 C 3.597656 -2.550781 3.765625 -2.46875 3.984375 -2.46875 C 4.421875 -2.46875 4.640625 -2.820312 4.640625 -3.53125 L 4.640625 -6.09375 L 7.484375 -6.09375 L 7.484375 -3.421875 C 7.484375 -1.054688 6.296875 0.125 3.921875 0.125 Z M 3.921875 0.125 "/></g></g></g><g fill="#8fff00" fill-opacity="1"><g transform="translate(505.553916, 23.951615)"><g><path d="M 4 0.125 C 2.851562 0.125 1.984375 -0.21875 1.390625 -0.90625 C 0.804688 -1.601562 0.515625 -2.582031 0.515625 -3.84375 L 0.515625 -10.578125 C 0.515625 -11.796875 0.804688 -12.710938 1.390625 -13.328125 C 1.984375 -13.953125 2.851562 -14.265625 4 -14.265625 C 5.132812 -14.265625 6 -13.953125 6.59375 -13.328125 C 7.1875 -12.710938 7.484375 -11.796875 7.484375 -10.578125 L 7.484375 -3.84375 C 7.484375 -2.570312 7.1875 -1.59375 6.59375 -0.90625 C 6 -0.21875 5.132812 0.125 4 0.125 Z M 4 -2.46875 C 4.25 -2.46875 4.414062 -2.578125 4.5 -2.796875 C 4.59375 -3.015625 4.640625 -3.320312 4.640625 -3.71875 L 4.640625 -10.625 C 4.640625 -10.9375 4.597656 -11.1875 4.515625 -11.375 C 4.429688 -11.570312 4.265625 -11.671875 4.015625 -11.671875 C 3.546875 -11.671875 3.3125 -11.3125 3.3125 -10.59375 L 3.3125 -3.703125 C 3.3125 -3.296875 3.359375 -2.988281 3.453125 -2.78125 C 3.554688 -2.570312 3.738281 -2.46875 4 -2.46875 Z M 4 -2.46875 "/></g></g></g><g fill="#8fff00" fill-opacity="1"><g transform="translate(513.545706, 23.951615)"><g><path d="M 0.625 0 L 0.625 -14.140625 L 3.53125 -14.140625 L 4.84375 -7.375 L 4.84375 -14.140625 L 7.5625 -14.140625 L 7.5625 0 L 4.796875 0 L 3.390625 -7.078125 L 3.390625 0 Z M 0.625 0 "/></g></g></g><g fill="#8fff00" fill-opacity="1"><g transform="translate(521.734828, 23.951615)"><g/></g></g><g fill="#8fff00" fill-opacity="1"><g transform="translate(525.582723, 23.951615)"><g><path d="M 0.625 0 L 0.625 -14.140625 L 6.28125 -14.140625 L 6.28125 -11.40625 L 3.5 -11.40625 L 3.5 -8.65625 L 6.171875 -8.65625 L 6.171875 -5.984375 L 3.5 -5.984375 L 3.5 -2.75 L 6.46875 -2.75 L 6.46875 0 Z M 0.625 0 "/></g></g></g><g fill="#8fff00" fill-opacity="1"><g transform="translate(532.357655, 23.951615)"><g><path d="M 0.625 0 L 0.625 -14.140625 L 3.453125 -14.140625 L 3.453125 -2.40625 L 6.375 -2.40625 L 6.375 0 Z M 0.625 0 "/></g></g></g><g fill="#8fff00" fill-opacity="1"><g transform="translate(538.885926, 23.951615)"><g/></g></g><g fill="#8fff00" fill-opacity="1"><g transform="translate(542.733821, 23.951615)"><g><path d="M 3.984375 0.125 C 2.703125 0.125 1.773438 -0.191406 1.203125 -0.828125 C 0.628906 -1.460938 0.34375 -2.488281 0.34375 -3.90625 L 0.34375 -5.28125 L 3.125 -5.28125 L 3.125 -3.515625 C 3.125 -2.816406 3.347656 -2.46875 3.796875 -2.46875 C 4.046875 -2.46875 4.21875 -2.539062 4.3125 -2.6875 C 4.414062 -2.832031 4.46875 -3.082031 4.46875 -3.4375 C 4.46875 -3.894531 4.410156 -4.273438 4.296875 -4.578125 C 4.191406 -4.878906 4.054688 -5.128906 3.890625 -5.328125 C 3.722656 -5.535156 3.421875 -5.851562 2.984375 -6.28125 L 1.765625 -7.5 C 0.816406 -8.425781 0.34375 -9.445312 0.34375 -10.5625 C 0.34375 -11.769531 0.617188 -12.6875 1.171875 -13.3125 C 1.722656 -13.945312 2.535156 -14.265625 3.609375 -14.265625 C 4.878906 -14.265625 5.789062 -13.925781 6.34375 -13.25 C 6.90625 -12.570312 7.1875 -11.515625 7.1875 -10.078125 L 4.3125 -10.078125 L 4.296875 -11.0625 C 4.296875 -11.25 4.242188 -11.394531 4.140625 -11.5 C 4.035156 -11.613281 3.890625 -11.671875 3.703125 -11.671875 C 3.484375 -11.671875 3.316406 -11.609375 3.203125 -11.484375 C 3.097656 -11.359375 3.046875 -11.191406 3.046875 -10.984375 C 3.046875 -10.523438 3.304688 -10.050781 3.828125 -9.5625 L 5.484375 -7.984375 C 5.867188 -7.609375 6.1875 -7.253906 6.4375 -6.921875 C 6.6875 -6.585938 6.882812 -6.191406 7.03125 -5.734375 C 7.1875 -5.273438 7.265625 -4.734375 7.265625 -4.109375 C 7.265625 -2.722656 7.007812 -1.671875 6.5 -0.953125 C 5.988281 -0.234375 5.148438 0.125 3.984375 0.125 Z M 3.984375 0.125 "/></g></g></g><g fill="#8fff00" fill-opacity="1"><g transform="translate(550.314509, 23.951615)"><g><path d="M 1.84375 0 L 1.84375 -11.421875 L 0.171875 -11.421875 L 0.171875 -14.140625 L 6.34375 -14.140625 L 6.34375 -11.421875 L 4.671875 -11.421875 L 4.671875 0 Z M 1.84375 0 "/></g></g></g><g fill="#8fff00" fill-opacity="1"><g transform="translate(556.826345, 23.951615)"><g><path d="M 0.25 0 L 1.609375 -14.140625 L 6.40625 -14.140625 L 7.75 0 L 5.0625 0 L 4.875 -2.28125 L 3.15625 -2.28125 L 3 0 Z M 3.375 -4.546875 L 4.65625 -4.546875 L 4.03125 -11.734375 L 3.90625 -11.734375 Z M 3.375 -4.546875 "/></g></g></g><g fill="#8fff00" fill-opacity="1"><g transform="translate(564.801688, 23.951615)"><g><path d="M 1.84375 0 L 1.84375 -11.421875 L 0.171875 -11.421875 L 0.171875 -14.140625 L 6.34375 -14.140625 L 6.34375 -11.421875 L 4.671875 -11.421875 L 4.671875 0 Z M 1.84375 0 "/></g></g></g><g fill="#8fff00" fill-opacity="1"><g transform="translate(571.313524, 23.951615)"><g><path d="M 3.90625 0.125 C 2.738281 0.125 1.867188 -0.203125 1.296875 -0.859375 C 0.734375 -1.515625 0.453125 -2.488281 0.453125 -3.78125 L 0.453125 -14.140625 L 3.203125 -14.140625 L 3.203125 -3.90625 C 3.203125 -3.445312 3.242188 -3.09375 3.328125 -2.84375 C 3.421875 -2.59375 3.613281 -2.46875 3.90625 -2.46875 C 4.1875 -2.46875 4.367188 -2.585938 4.453125 -2.828125 C 4.546875 -3.078125 4.59375 -3.4375 4.59375 -3.90625 L 4.59375 -14.140625 L 7.34375 -14.140625 L 7.34375 -3.78125 C 7.34375 -2.488281 7.054688 -1.515625 6.484375 -0.859375 C 5.921875 -0.203125 5.0625 0.125 3.90625 0.125 Z M 3.90625 0.125 "/></g></g></g><g fill="#8fff00" fill-opacity="1"><g transform="translate(579.107991, 23.951615)"><g><path d="M 3.984375 0.125 C 2.703125 0.125 1.773438 -0.191406 1.203125 -0.828125 C 0.628906 -1.460938 0.34375 -2.488281 0.34375 -3.90625 L 0.34375 -5.28125 L 3.125 -5.28125 L 3.125 -3.515625 C 3.125 -2.816406 3.347656 -2.46875 3.796875 -2.46875 C 4.046875 -2.46875 4.21875 -2.539062 4.3125 -2.6875 C 4.414062 -2.832031 4.46875 -3.082031 4.46875 -3.4375 C 4.46875 -3.894531 4.410156 -4.273438 4.296875 -4.578125 C 4.191406 -4.878906 4.054688 -5.128906 3.890625 -5.328125 C 3.722656 -5.535156 3.421875 -5.851562 2.984375 -6.28125 L 1.765625 -7.5 C 0.816406 -8.425781 0.34375 -9.445312 0.34375 -10.5625 C 0.34375 -11.769531 0.617188 -12.6875 1.171875 -13.3125 C 1.722656 -13.945312 2.535156 -14.265625 3.609375 -14.265625 C 4.878906 -14.265625 5.789062 -13.925781 6.34375 -13.25 C 6.90625 -12.570312 7.1875 -11.515625 7.1875 -10.078125 L 4.3125 -10.078125 L 4.296875 -11.0625 C 4.296875 -11.25 4.242188 -11.394531 4.140625 -11.5 C 4.035156 -11.613281 3.890625 -11.671875 3.703125 -11.671875 C 3.484375 -11.671875 3.316406 -11.609375 3.203125 -11.484375 C 3.097656 -11.359375 3.046875 -11.191406 3.046875 -10.984375 C 3.046875 -10.523438 3.304688 -10.050781 3.828125 -9.5625 L 5.484375 -7.984375 C 5.867188 -7.609375 6.1875 -7.253906 6.4375 -6.921875 C 6.6875 -6.585938 6.882812 -6.191406 7.03125 -5.734375 C 7.1875 -5.273438 7.265625 -4.734375 7.265625 -4.109375 C 7.265625 -2.722656 7.007812 -1.671875 6.5 -0.953125 C 5.988281 -0.234375 5.148438 0.125 3.984375 0.125 Z M 3.984375 0.125 "/></g></g></g><g fill="#8fff00" fill-opacity="1"><g transform="translate(586.68868, 23.951615)"><g/></g></g><g fill="#8fff00" fill-opacity="1"><g transform="translate(590.536575, 23.951615)"><g><path d="M 4.625 0.015625 C 4.207031 0.0859375 3.972656 0.125 3.921875 0.125 C 2.773438 0.125 1.90625 -0.195312 1.3125 -0.84375 C 0.71875 -1.5 0.421875 -2.457031 0.421875 -3.71875 L 0.421875 -10.546875 C 0.421875 -11.765625 0.71875 -12.6875 1.3125 -13.3125 C 1.914062 -13.945312 2.785156 -14.265625 3.921875 -14.265625 C 5.046875 -14.265625 5.90625 -13.945312 6.5 -13.3125 C 7.101562 -12.6875 7.40625 -11.765625 7.40625 -10.546875 L 7.40625 -3.71875 C 7.40625 -2.550781 7.140625 -1.628906 6.609375 -0.953125 L 7.828125 -0.1875 L 6.875 1.5 Z M 3.921875 -2.46875 C 4.191406 -2.46875 4.363281 -2.597656 4.4375 -2.859375 C 4.519531 -3.117188 4.5625 -3.460938 4.5625 -3.890625 L 4.5625 -10.5 C 4.5625 -10.863281 4.515625 -11.148438 4.421875 -11.359375 C 4.328125 -11.566406 4.15625 -11.671875 3.90625 -11.671875 C 3.445312 -11.671875 3.21875 -11.285156 3.21875 -10.515625 L 3.21875 -3.828125 C 3.21875 -3.429688 3.257812 -3.101562 3.34375 -2.84375 C 3.4375 -2.59375 3.628906 -2.46875 3.921875 -2.46875 Z M 3.921875 -2.46875 "/></g></g></g><g fill="#8fff00" fill-opacity="1"><g transform="translate(598.659923, 23.951615)"><g><path d="M 3.90625 0.125 C 2.738281 0.125 1.867188 -0.203125 1.296875 -0.859375 C 0.734375 -1.515625 0.453125 -2.488281 0.453125 -3.78125 L 0.453125 -14.140625 L 3.203125 -14.140625 L 3.203125 -3.90625 C 3.203125 -3.445312 3.242188 -3.09375 3.328125 -2.84375 C 3.421875 -2.59375 3.613281 -2.46875 3.90625 -2.46875 C 4.1875 -2.46875 4.367188 -2.585938 4.453125 -2.828125 C 4.546875 -3.078125 4.59375 -3.4375 4.59375 -3.90625 L 4.59375 -14.140625 L 7.34375 -14.140625 L 7.34375 -3.78125 C 7.34375 -2.488281 7.054688 -1.515625 6.484375 -0.859375 C 5.921875 -0.203125 5.0625 0.125 3.90625 0.125 Z M 3.90625 0.125 "/></g></g></g><g fill="#8fff00" fill-opacity="1"><g transform="translate(606.454391, 23.951615)"><g><path d="M 4 0.125 C 2.851562 0.125 1.984375 -0.21875 1.390625 -0.90625 C 0.804688 -1.601562 0.515625 -2.582031 0.515625 -3.84375 L 0.515625 -10.578125 C 0.515625 -11.796875 0.804688 -12.710938 1.390625 -13.328125 C 1.984375 -13.953125 2.851562 -14.265625 4 -14.265625 C 5.132812 -14.265625 6 -13.953125 6.59375 -13.328125 C 7.1875 -12.710938 7.484375 -11.796875 7.484375 -10.578125 L 7.484375 -3.84375 C 7.484375 -2.570312 7.1875 -1.59375 6.59375 -0.90625 C 6 -0.21875 5.132812 0.125 4 0.125 Z M 4 -2.46875 C 4.25 -2.46875 4.414062 -2.578125 4.5 -2.796875 C 4.59375 -3.015625 4.640625 -3.320312 4.640625 -3.71875 L 4.640625 -10.625 C 4.640625 -10.9375 4.597656 -11.1875 4.515625 -11.375 C 4.429688 -11.570312 4.265625 -11.671875 4.015625 -11.671875 C 3.546875 -11.671875 3.3125 -11.3125 3.3125 -10.59375 L 3.3125 -3.703125 C 3.3125 -3.296875 3.359375 -2.988281 3.453125 -2.78125 C 3.554688 -2.570312 3.738281 -2.46875 4 -2.46875 Z M 4 -2.46875 "/></g></g></g><g fill="#8fff00" fill-opacity="1"><g transform="translate(614.45741, 23.951615)"><g/></g></g><g fill="#8fff00" fill-opacity="1"><g transform="translate(618.305305, 23.951615)"><g/></g></g><g fill="#8fff00" fill-opacity="1"><g transform="translate(622.1532, 23.951615)"><g/></g></g><g fill="#8fff00" fill-opacity="1"><g transform="translate(629.84899, 23.951615)"><g/></g></g><g fill="#8fff00" fill-opacity="1"><g transform="translate(633.702618, 23.951615)"><g><path d="M 0.625 -14.140625 L 4.53125 -14.140625 C 5.53125 -14.140625 6.28125 -13.859375 6.78125 -13.296875 C 7.289062 -12.734375 7.550781 -11.90625 7.5625 -10.8125 L 7.59375 -4.203125 C 7.613281 -2.804688 7.375 -1.753906 6.875 -1.046875 C 6.382812 -0.347656 5.566406 0 4.421875 0 L 0.625 0 Z M 3.96875 -2.5 C 4.476562 -2.5 4.734375 -2.75 4.734375 -3.25 L 4.734375 -10.546875 C 4.734375 -10.867188 4.707031 -11.109375 4.65625 -11.265625 C 4.613281 -11.421875 4.523438 -11.523438 4.390625 -11.578125 C 4.265625 -11.640625 4.0625 -11.671875 3.78125 -11.671875 L 3.46875 -11.671875 L 3.46875 -2.5 Z M 3.96875 -2.5 "/></g></g></g><g fill="#8fff00" fill-opacity="1"><g transform="translate(641.80952, 23.951615)"><g><path d="M 0.5 0 L 0.5 -14.140625 L 3.21875 -14.140625 L 3.21875 0 Z M 0.5 0 "/></g></g></g><g fill="#8fff00" fill-opacity="1"><g transform="translate(645.542313, 23.951615)"><g><path d="M 0.625 0 L 0.625 -14.140625 L 3.453125 -14.140625 L 3.453125 -2.40625 L 6.375 -2.40625 L 6.375 0 Z M 0.625 0 "/></g></g></g><g fill="#8fff00" fill-opacity="1"><g transform="translate(652.070584, 23.951615)"><g><path d="M 0.625 0 L 0.625 -14.140625 L 6.28125 -14.140625 L 6.28125 -11.40625 L 3.5 -11.40625 L 3.5 -8.65625 L 6.171875 -8.65625 L 6.171875 -5.984375 L 3.5 -5.984375 L 3.5 -2.75 L 6.46875 -2.75 L 6.46875 0 Z M 0.625 0 "/></g></g></g><g fill="#8fff00" fill-opacity="1"><g transform="translate(658.845516, 23.951615)"><g/></g></g><g fill="#8fff00" fill-opacity="1"><g transform="translate(662.693411, 23.951615)"><g><path d="M 0.25 0 L 1.609375 -14.140625 L 6.40625 -14.140625 L 7.75 0 L 5.0625 0 L 4.875 -2.28125 L 3.15625 -2.28125 L 3 0 Z M 3.375 -4.546875 L 4.65625 -4.546875 L 4.03125 -11.734375 L 3.90625 -11.734375 Z M 3.375 -4.546875 "/></g></g></g><g fill="#8fff00" fill-opacity="1"><g transform="translate(670.668754, 23.951615)"><g><path d="M 0.625 -14.140625 L 4.53125 -14.140625 C 5.53125 -14.140625 6.28125 -13.859375 6.78125 -13.296875 C 7.289062 -12.734375 7.550781 -11.90625 7.5625 -10.8125 L 7.59375 -4.203125 C 7.613281 -2.804688 7.375 -1.753906 6.875 -1.046875 C 6.382812 -0.347656 5.566406 0 4.421875 0 L 0.625 0 Z M 3.96875 -2.5 C 4.476562 -2.5 4.734375 -2.75 4.734375 -3.25 L 4.734375 -10.546875 C 4.734375 -10.867188 4.707031 -11.109375 4.65625 -11.265625 C 4.613281 -11.421875 4.523438 -11.523438 4.390625 -11.578125 C 4.265625 -11.640625 4.0625 -11.671875 3.78125 -11.671875 L 3.46875 -11.671875 L 3.46875 -2.5 Z M 3.96875 -2.5 "/></g></g></g><g fill="#8fff00" fill-opacity="1"><g transform="translate(678.775656, 23.951615)"><g><path d="M 0.5 0 L 0.5 -14.140625 L 3.21875 -14.140625 L 3.21875 0 Z M 0.5 0 "/></g></g></g><g fill="#8fff00" fill-opacity="1"><g transform="translate(682.50845, 23.951615)"><g><path d="M 4 0.125 C 2.851562 0.125 1.984375 -0.21875 1.390625 -0.90625 C 0.804688 -1.601562 0.515625 -2.582031 0.515625 -3.84375 L 0.515625 -10.578125 C 0.515625 -11.796875 0.804688 -12.710938 1.390625 -13.328125 C 1.984375 -13.953125 2.851562 -14.265625 4 -14.265625 C 5.132812 -14.265625 6 -13.953125 6.59375 -13.328125 C 7.1875 -12.710938 7.484375 -11.796875 7.484375 -10.578125 L 7.484375 -3.84375 C 7.484375 -2.570312 7.1875 -1.59375 6.59375 -0.90625 C 6 -0.21875 5.132812 0.125 4 0.125 Z M 4 -2.46875 C 4.25 -2.46875 4.414062 -2.578125 4.5 -2.796875 C 4.59375 -3.015625 4.640625 -3.320312 4.640625 -3.71875 L 4.640625 -10.625 C 4.640625 -10.9375 4.597656 -11.1875 4.515625 -11.375 C 4.429688 -11.570312 4.265625 -11.671875 4.015625 -11.671875 C 3.546875 -11.671875 3.3125 -11.3125 3.3125 -10.59375 L 3.3125 -3.703125 C 3.3125 -3.296875 3.359375 -2.988281 3.453125 -2.78125 C 3.554688 -2.570312 3.738281 -2.46875 4 -2.46875 Z M 2.078125 -14.5625 L 2.078125 -16.359375 L 5.90625 -18.125 L 5.90625 -15.328125 Z M 2.078125 -14.5625 "/></g></g></g><g fill="#8fff00" fill-opacity="1"><g transform="translate(690.500239, 23.951615)"><g><path d="M 3.984375 0.125 C 2.703125 0.125 1.773438 -0.191406 1.203125 -0.828125 C 0.628906 -1.460938 0.34375 -2.488281 0.34375 -3.90625 L 0.34375 -5.28125 L 3.125 -5.28125 L 3.125 -3.515625 C 3.125 -2.816406 3.347656 -2.46875 3.796875 -2.46875 C 4.046875 -2.46875 4.21875 -2.539062 4.3125 -2.6875 C 4.414062 -2.832031 4.46875 -3.082031 4.46875 -3.4375 C 4.46875 -3.894531 4.410156 -4.273438 4.296875 -4.578125 C 4.191406 -4.878906 4.054688 -5.128906 3.890625 -5.328125 C 3.722656 -5.535156 3.421875 -5.851562 2.984375 -6.28125 L 1.765625 -7.5 C 0.816406 -8.425781 0.34375 -9.445312 0.34375 -10.5625 C 0.34375 -11.769531 0.617188 -12.6875 1.171875 -13.3125 C 1.722656 -13.945312 2.535156 -14.265625 3.609375 -14.265625 C 4.878906 -14.265625 5.789062 -13.925781 6.34375 -13.25 C 6.90625 -12.570312 7.1875 -11.515625 7.1875 -10.078125 L 4.3125 -10.078125 L 4.296875 -11.0625 C 4.296875 -11.25 4.242188 -11.394531 4.140625 -11.5 C 4.035156 -11.613281 3.890625 -11.671875 3.703125 -11.671875 C 3.484375 -11.671875 3.316406 -11.609375 3.203125 -11.484375 C 3.097656 -11.359375 3.046875 -11.191406 3.046875 -10.984375 C 3.046875 -10.523438 3.304688 -10.050781 3.828125 -9.5625 L 5.484375 -7.984375 C 5.867188 -7.609375 6.1875 -7.253906 6.4375 -6.921875 C 6.6875 -6.585938 6.882812 -6.191406 7.03125 -5.734375 C 7.1875 -5.273438 7.265625 -4.734375 7.265625 -4.109375 C 7.265625 -2.722656 7.007812 -1.671875 6.5 -0.953125 C 5.988281 -0.234375 5.148438 0.125 3.984375 0.125 Z M 3.984375 0.125 "/></g></g></g><g fill="#8fff00" fill-opacity="1"><g transform="translate(698.080927, 23.951615)"><g/></g></g><g fill="#8fff00" fill-opacity="1"><g transform="translate(701.928822, 23.951615)"><g><path d="M 0.25 0 L 1.609375 -14.140625 L 6.40625 -14.140625 L 7.75 0 L 5.0625 0 L 4.875 -2.28125 L 3.15625 -2.28125 L 3 0 Z M 3.375 -4.546875 L 4.65625 -4.546875 L 4.03125 -11.734375 L 3.90625 -11.734375 Z M 3.375 -4.546875 "/></g></g></g><g fill="#8fff00" fill-opacity="1"><g transform="translate(709.904165, 23.951615)"><g/></g></g><g fill="#8fff00" fill-opacity="1"><g transform="translate(713.75206, 23.951615)"><g><path d="M 0.625 0 L 0.625 -14.140625 L 3.453125 -14.140625 L 3.453125 -2.40625 L 6.375 -2.40625 L 6.375 0 Z M 0.625 0 "/></g></g></g><g fill="#8fff00" fill-opacity="1"><g transform="translate(720.280331, 23.951615)"><g><path d="M 4 0.125 C 2.851562 0.125 1.984375 -0.21875 1.390625 -0.90625 C 0.804688 -1.601562 0.515625 -2.582031 0.515625 -3.84375 L 0.515625 -10.578125 C 0.515625 -11.796875 0.804688 -12.710938 1.390625 -13.328125 C 1.984375 -13.953125 2.851562 -14.265625 4 -14.265625 C 5.132812 -14.265625 6 -13.953125 6.59375 -13.328125 C 7.1875 -12.710938 7.484375 -11.796875 7.484375 -10.578125 L 7.484375 -3.84375 C 7.484375 -2.570312 7.1875 -1.59375 6.59375 -0.90625 C 6 -0.21875 5.132812 0.125 4 0.125 Z M 4 -2.46875 C 4.25 -2.46875 4.414062 -2.578125 4.5 -2.796875 C 4.59375 -3.015625 4.640625 -3.320312 4.640625 -3.71875 L 4.640625 -10.625 C 4.640625 -10.9375 4.597656 -11.1875 4.515625 -11.375 C 4.429688 -11.570312 4.265625 -11.671875 4.015625 -11.671875 C 3.546875 -11.671875 3.3125 -11.3125 3.3125 -10.59375 L 3.3125 -3.703125 C 3.3125 -3.296875 3.359375 -2.988281 3.453125 -2.78125 C 3.554688 -2.570312 3.738281 -2.46875 4 -2.46875 Z M 4 -2.46875 "/></g></g></g><g fill="#8fff00" fill-opacity="1"><g transform="translate(728.272121, 23.951615)"><g><path d="M 3.984375 0.125 C 2.703125 0.125 1.773438 -0.191406 1.203125 -0.828125 C 0.628906 -1.460938 0.34375 -2.488281 0.34375 -3.90625 L 0.34375 -5.28125 L 3.125 -5.28125 L 3.125 -3.515625 C 3.125 -2.816406 3.347656 -2.46875 3.796875 -2.46875 C 4.046875 -2.46875 4.21875 -2.539062 4.3125 -2.6875 C 4.414062 -2.832031 4.46875 -3.082031 4.46875 -3.4375 C 4.46875 -3.894531 4.410156 -4.273438 4.296875 -4.578125 C 4.191406 -4.878906 4.054688 -5.128906 3.890625 -5.328125 C 3.722656 -5.535156 3.421875 -5.851562 2.984375 -6.28125 L 1.765625 -7.5 C 0.816406 -8.425781 0.34375 -9.445312 0.34375 -10.5625 C 0.34375 -11.769531 0.617188 -12.6875 1.171875 -13.3125 C 1.722656 -13.945312 2.535156 -14.265625 3.609375 -14.265625 C 4.878906 -14.265625 5.789062 -13.925781 6.34375 -13.25 C 6.90625 -12.570312 7.1875 -11.515625 7.1875 -10.078125 L 4.3125 -10.078125 L 4.296875 -11.0625 C 4.296875 -11.25 4.242188 -11.394531 4.140625 -11.5 C 4.035156 -11.613281 3.890625 -11.671875 3.703125 -11.671875 C 3.484375 -11.671875 3.316406 -11.609375 3.203125 -11.484375 C 3.097656 -11.359375 3.046875 -11.191406 3.046875 -10.984375 C 3.046875 -10.523438 3.304688 -10.050781 3.828125 -9.5625 L 5.484375 -7.984375 C 5.867188 -7.609375 6.1875 -7.253906 6.4375 -6.921875 C 6.6875 -6.585938 6.882812 -6.191406 7.03125 -5.734375 C 7.1875 -5.273438 7.265625 -4.734375 7.265625 -4.109375 C 7.265625 -2.722656 7.007812 -1.671875 6.5 -0.953125 C 5.988281 -0.234375 5.148438 0.125 3.984375 0.125 Z M 3.984375 0.125 "/></g></g></g><g fill="#8fff00" fill-opacity="1"><g transform="translate(735.852809, 23.951615)"><g/></g></g><g fill="#8fff00" fill-opacity="1"><g transform="translate(739.700704, 23.951615)"><g><path d="M 3.984375 0.125 C 2.703125 0.125 1.773438 -0.191406 1.203125 -0.828125 C 0.628906 -1.460938 0.34375 -2.488281 0.34375 -3.90625 L 0.34375 -5.28125 L 3.125 -5.28125 L 3.125 -3.515625 C 3.125 -2.816406 3.347656 -2.46875 3.796875 -2.46875 C 4.046875 -2.46875 4.21875 -2.539062 4.3125 -2.6875 C 4.414062 -2.832031 4.46875 -3.082031 4.46875 -3.4375 C 4.46875 -3.894531 4.410156 -4.273438 4.296875 -4.578125 C 4.191406 -4.878906 4.054688 -5.128906 3.890625 -5.328125 C 3.722656 -5.535156 3.421875 -5.851562 2.984375 -6.28125 L 1.765625 -7.5 C 0.816406 -8.425781 0.34375 -9.445312 0.34375 -10.5625 C 0.34375 -11.769531 0.617188 -12.6875 1.171875 -13.3125 C 1.722656 -13.945312 2.535156 -14.265625 3.609375 -14.265625 C 4.878906 -14.265625 5.789062 -13.925781 6.34375 -13.25 C 6.90625 -12.570312 7.1875 -11.515625 7.1875 -10.078125 L 4.3125 -10.078125 L 4.296875 -11.0625 C 4.296875 -11.25 4.242188 -11.394531 4.140625 -11.5 C 4.035156 -11.613281 3.890625 -11.671875 3.703125 -11.671875 C 3.484375 -11.671875 3.316406 -11.609375 3.203125 -11.484375 C 3.097656 -11.359375 3.046875 -11.191406 3.046875 -10.984375 C 3.046875 -10.523438 3.304688 -10.050781 3.828125 -9.5625 L 5.484375 -7.984375 C 5.867188 -7.609375 6.1875 -7.253906 6.4375 -6.921875 C 6.6875 -6.585938 6.882812 -6.191406 7.03125 -5.734375 C 7.1875 -5.273438 7.265625 -4.734375 7.265625 -4.109375 C 7.265625 -2.722656 7.007812 -1.671875 6.5 -0.953125 C 5.988281 -0.234375 5.148438 0.125 3.984375 0.125 Z M 3.984375 0.125 "/></g></g></g><g fill="#8fff00" fill-opacity="1"><g transform="translate(747.281392, 23.951615)"><g><path d="M 0.625 0 L 0.625 -14.140625 L 6.28125 -14.140625 L 6.28125 -11.40625 L 3.5 -11.40625 L 3.5 -8.65625 L 6.171875 -8.65625 L 6.171875 -5.984375 L 3.5 -5.984375 L 3.5 -2.75 L 6.46875 -2.75 L 6.46875 0 Z M 0.625 0 "/></g></g></g><g fill="#8fff00" fill-opacity="1"><g transform="translate(754.056324, 23.951615)"><g><path d="M 3.984375 0.125 C 2.703125 0.125 1.773438 -0.191406 1.203125 -0.828125 C 0.628906 -1.460938 0.34375 -2.488281 0.34375 -3.90625 L 0.34375 -5.28125 L 3.125 -5.28125 L 3.125 -3.515625 C 3.125 -2.816406 3.347656 -2.46875 3.796875 -2.46875 C 4.046875 -2.46875 4.21875 -2.539062 4.3125 -2.6875 C 4.414062 -2.832031 4.46875 -3.082031 4.46875 -3.4375 C 4.46875 -3.894531 4.410156 -4.273438 4.296875 -4.578125 C 4.191406 -4.878906 4.054688 -5.128906 3.890625 -5.328125 C 3.722656 -5.535156 3.421875 -5.851562 2.984375 -6.28125 L 1.765625 -7.5 C 0.816406 -8.425781 0.34375 -9.445312 0.34375 -10.5625 C 0.34375 -11.769531 0.617188 -12.6875 1.171875 -13.3125 C 1.722656 -13.945312 2.535156 -14.265625 3.609375 -14.265625 C 4.878906 -14.265625 5.789062 -13.925781 6.34375 -13.25 C 6.90625 -12.570312 7.1875 -11.515625 7.1875 -10.078125 L 4.3125 -10.078125 L 4.296875 -11.0625 C 4.296875 -11.25 4.242188 -11.394531 4.140625 -11.5 C 4.035156 -11.613281 3.890625 -11.671875 3.703125 -11.671875 C 3.484375 -11.671875 3.316406 -11.609375 3.203125 -11.484375 C 3.097656 -11.359375 3.046875 -11.191406 3.046875 -10.984375 C 3.046875 -10.523438 3.304688 -10.050781 3.828125 -9.5625 L 5.484375 -7.984375 C 5.867188 -7.609375 6.1875 -7.253906 6.4375 -6.921875 C 6.6875 -6.585938 6.882812 -6.191406 7.03125 -5.734375 C 7.1875 -5.273438 7.265625 -4.734375 7.265625 -4.109375 C 7.265625 -2.722656 7.007812 -1.671875 6.5 -0.953125 C 5.988281 -0.234375 5.148438 0.125 3.984375 0.125 Z M 3.984375 0.125 "/></g></g></g><g fill="#8fff00" fill-opacity="1"><g transform="translate(761.637012, 23.951615)"><g><path d="M 3.53125 0.125 C 2.507812 0.125 1.75 -0.234375 1.25 -0.953125 C 0.757812 -1.671875 0.515625 -2.757812 0.515625 -4.21875 L 0.515625 -10.296875 C 0.515625 -11.597656 0.800781 -12.582031 1.375 -13.25 C 1.957031 -13.925781 2.828125 -14.265625 3.984375 -14.265625 C 4.910156 -14.265625 5.628906 -14.078125 6.140625 -13.703125 C 6.660156 -13.328125 7.019531 -12.78125 7.21875 -12.0625 C 7.414062 -11.351562 7.515625 -10.441406 7.515625 -9.328125 L 4.75 -9.328125 L 4.75 -10.59375 C 4.75 -10.9375 4.703125 -11.203125 4.609375 -11.390625 C 4.515625 -11.578125 4.347656 -11.671875 4.109375 -11.671875 C 3.578125 -11.671875 3.3125 -11.316406 3.3125 -10.609375 L 3.3125 -3.765625 C 3.3125 -3.335938 3.363281 -3.015625 3.46875 -2.796875 C 3.582031 -2.578125 3.773438 -2.46875 4.046875 -2.46875 C 4.316406 -2.46875 4.503906 -2.578125 4.609375 -2.796875 C 4.722656 -3.015625 4.78125 -3.335938 4.78125 -3.765625 L 4.78125 -5.796875 L 4.03125 -5.796875 L 4.03125 -8.21875 L 7.484375 -8.21875 L 7.484375 0 L 6.34375 0 L 5.875 -1.1875 C 5.363281 -0.3125 4.582031 0.125 3.53125 0.125 Z M 3.53125 0.125 "/></g></g></g><g fill="#8fff00" fill-opacity="1"><g transform="translate(769.612355, 23.951615)"><g><path d="M 4 0.125 C 2.851562 0.125 1.984375 -0.21875 1.390625 -0.90625 C 0.804688 -1.601562 0.515625 -2.582031 0.515625 -3.84375 L 0.515625 -10.578125 C 0.515625 -11.796875 0.804688 -12.710938 1.390625 -13.328125 C 1.984375 -13.953125 2.851562 -14.265625 4 -14.265625 C 5.132812 -14.265625 6 -13.953125 6.59375 -13.328125 C 7.1875 -12.710938 7.484375 -11.796875 7.484375 -10.578125 L 7.484375 -3.84375 C 7.484375 -2.570312 7.1875 -1.59375 6.59375 -0.90625 C 6 -0.21875 5.132812 0.125 4 0.125 Z M 4 -2.46875 C 4.25 -2.46875 4.414062 -2.578125 4.5 -2.796875 C 4.59375 -3.015625 4.640625 -3.320312 4.640625 -3.71875 L 4.640625 -10.625 C 4.640625 -10.9375 4.597656 -11.1875 4.515625 -11.375 C 4.429688 -11.570312 4.265625 -11.671875 4.015625 -11.671875 C 3.546875 -11.671875 3.3125 -11.3125 3.3125 -10.59375 L 3.3125 -3.703125 C 3.3125 -3.296875 3.359375 -2.988281 3.453125 -2.78125 C 3.554688 -2.570312 3.738281 -2.46875 4 -2.46875 Z M 4 -2.46875 "/></g></g></g><g fill="#8fff00" fill-opacity="1"><g transform="translate(777.604145, 23.951615)"><g><path d="M 3.984375 0.125 C 2.703125 0.125 1.773438 -0.191406 1.203125 -0.828125 C 0.628906 -1.460938 0.34375 -2.488281 0.34375 -3.90625 L 0.34375 -5.28125 L 3.125 -5.28125 L 3.125 -3.515625 C 3.125 -2.816406 3.347656 -2.46875 3.796875 -2.46875 C 4.046875 -2.46875 4.21875 -2.539062 4.3125 -2.6875 C 4.414062 -2.832031 4.46875 -3.082031 4.46875 -3.4375 C 4.46875 -3.894531 4.410156 -4.273438 4.296875 -4.578125 C 4.191406 -4.878906 4.054688 -5.128906 3.890625 -5.328125 C 3.722656 -5.535156 3.421875 -5.851562 2.984375 -6.28125 L 1.765625 -7.5 C 0.816406 -8.425781 0.34375 -9.445312 0.34375 -10.5625 C 0.34375 -11.769531 0.617188 -12.6875 1.171875 -13.3125 C 1.722656 -13.945312 2.535156 -14.265625 3.609375 -14.265625 C 4.878906 -14.265625 5.789062 -13.925781 6.34375 -13.25 C 6.90625 -12.570312 7.1875 -11.515625 7.1875 -10.078125 L 4.3125 -10.078125 L 4.296875 -11.0625 C 4.296875 -11.25 4.242188 -11.394531 4.140625 -11.5 C 4.035156 -11.613281 3.890625 -11.671875 3.703125 -11.671875 C 3.484375 -11.671875 3.316406 -11.609375 3.203125 -11.484375 C 3.097656 -11.359375 3.046875 -11.191406 3.046875 -10.984375 C 3.046875 -10.523438 3.304688 -10.050781 3.828125 -9.5625 L 5.484375 -7.984375 C 5.867188 -7.609375 6.1875 -7.253906 6.4375 -6.921875 C 6.6875 -6.585938 6.882812 -6.191406 7.03125 -5.734375 C 7.1875 -5.273438 7.265625 -4.734375 7.265625 -4.109375 C 7.265625 -2.722656 7.007812 -1.671875 6.5 -0.953125 C 5.988281 -0.234375 5.148438 0.125 3.984375 0.125 Z M 3.984375 0.125 "/></g></g></g><g fill="#8fff00" fill-opacity="1"><g transform="translate(785.192032, 23.951615)"><g/></g></g><g fill="#8fff00" fill-opacity="1"><g transform="translate(789.039927, 23.951615)"><g/></g></g><g fill="#8fff00" fill-opacity="1"><g transform="translate(792.887822, 23.951615)"><g/></g></g><g fill="#8fff00" fill-opacity="1"><g transform="translate(796.735717, 23.951615)"><g/></g></g><g fill="#8fff00" fill-opacity="1"><g transform="translate(800.583612, 23.951615)"><g/></g></g><g fill="#8fff00" fill-opacity="1"><g transform="translate(804.437247, 23.951615)"><g><path d="M 3.921875 0.125 C 2.890625 0.125 2.0625 -0.195312 1.4375 -0.84375 C 0.820312 -1.488281 0.515625 -2.375 0.515625 -3.5 L 0.515625 -10.015625 C 0.515625 -11.421875 0.789062 -12.476562 1.34375 -13.1875 C 1.90625 -13.90625 2.785156 -14.265625 3.984375 -14.265625 C 5.023438 -14.265625 5.863281 -13.976562 6.5 -13.40625 C 7.132812 -12.832031 7.453125 -12.007812 7.453125 -10.9375 L 7.453125 -8.5 L 4.640625 -8.5 L 4.640625 -10.59375 C 4.640625 -11 4.585938 -11.28125 4.484375 -11.4375 C 4.390625 -11.59375 4.222656 -11.671875 3.984375 -11.671875 C 3.734375 -11.671875 3.5625 -11.582031 3.46875 -11.40625 C 3.375 -11.226562 3.328125 -10.96875 3.328125 -10.625 L 3.328125 -3.53125 C 3.328125 -3.164062 3.378906 -2.894531 3.484375 -2.71875 C 3.597656 -2.550781 3.765625 -2.46875 3.984375 -2.46875 C 4.421875 -2.46875 4.640625 -2.820312 4.640625 -3.53125 L 4.640625 -6.09375 L 7.484375 -6.09375 L 7.484375 -3.421875 C 7.484375 -1.054688 6.296875 0.125 3.921875 0.125 Z M 3.921875 0.125 "/></g></g></g><g fill="#8fff00" fill-opacity="1"><g transform="translate(812.231714, 23.951615)"><g><path d="M 4 0.125 C 2.851562 0.125 1.984375 -0.21875 1.390625 -0.90625 C 0.804688 -1.601562 0.515625 -2.582031 0.515625 -3.84375 L 0.515625 -10.578125 C 0.515625 -11.796875 0.804688 -12.710938 1.390625 -13.328125 C 1.984375 -13.953125 2.851562 -14.265625 4 -14.265625 C 5.132812 -14.265625 6 -13.953125 6.59375 -13.328125 C 7.1875 -12.710938 7.484375 -11.796875 7.484375 -10.578125 L 7.484375 -3.84375 C 7.484375 -2.570312 7.1875 -1.59375 6.59375 -0.90625 C 6 -0.21875 5.132812 0.125 4 0.125 Z M 4 -2.46875 C 4.25 -2.46875 4.414062 -2.578125 4.5 -2.796875 C 4.59375 -3.015625 4.640625 -3.320312 4.640625 -3.71875 L 4.640625 -10.625 C 4.640625 -10.9375 4.597656 -11.1875 4.515625 -11.375 C 4.429688 -11.570312 4.265625 -11.671875 4.015625 -11.671875 C 3.546875 -11.671875 3.3125 -11.3125 3.3125 -10.59375 L 3.3125 -3.703125 C 3.3125 -3.296875 3.359375 -2.988281 3.453125 -2.78125 C 3.554688 -2.570312 3.738281 -2.46875 4 -2.46875 Z M 4 -2.46875 "/></g></g></g><g fill="#8fff00" fill-opacity="1"><g transform="translate(820.223504, 23.951615)"><g><path d="M 0.625 0 L 0.625 -14.140625 L 3.53125 -14.140625 L 4.84375 -7.375 L 4.84375 -14.140625 L 7.5625 -14.140625 L 7.5625 0 L 4.796875 0 L 3.390625 -7.078125 L 3.390625 0 Z M 0.625 0 "/></g></g></g><g fill="#8fff00" fill-opacity="1"><g transform="translate(828.412626, 23.951615)"><g/></g></g><g fill="#8fff00" fill-opacity="1"><g transform="translate(832.260521, 23.951615)"><g><path d="M 0.625 -14.140625 L 4.359375 -14.140625 C 5.492188 -14.140625 6.300781 -13.769531 6.78125 -13.03125 C 7.257812 -12.300781 7.5 -11.238281 7.5 -9.84375 C 7.5 -8.4375 7.285156 -7.375 6.859375 -6.65625 C 6.429688 -5.945312 5.664062 -5.59375 4.5625 -5.59375 L 3.40625 -5.59375 L 3.40625 0 L 0.625 0 Z M 3.5625 -8.140625 C 3.90625 -8.140625 4.15625 -8.203125 4.3125 -8.328125 C 4.476562 -8.453125 4.582031 -8.632812 4.625 -8.875 C 4.675781 -9.113281 4.703125 -9.453125 4.703125 -9.890625 C 4.703125 -10.484375 4.632812 -10.910156 4.5 -11.171875 C 4.375 -11.429688 4.113281 -11.5625 3.71875 -11.5625 L 3.40625 -11.5625 L 3.40625 -8.140625 Z M 3.5625 -8.140625 "/></g></g></g><g fill="#8fff00" fill-opacity="1"><g transform="translate(840.022096, 23.951615)"><g><path d="M 0.625 -14.140625 L 4.96875 -14.140625 C 5.65625 -14.140625 6.1875 -13.984375 6.5625 -13.671875 C 6.945312 -13.359375 7.203125 -12.914062 7.328125 -12.34375 C 7.460938 -11.78125 7.53125 -11.0625 7.53125 -10.1875 C 7.53125 -9.382812 7.425781 -8.757812 7.21875 -8.3125 C 7.007812 -7.863281 6.648438 -7.550781 6.140625 -7.375 C 6.566406 -7.28125 6.875 -7.0625 7.0625 -6.71875 C 7.257812 -6.382812 7.359375 -5.925781 7.359375 -5.34375 L 7.328125 0 L 4.5625 0 L 4.5625 -5.53125 C 4.5625 -5.925781 4.484375 -6.175781 4.328125 -6.28125 C 4.171875 -6.394531 3.890625 -6.453125 3.484375 -6.453125 L 3.484375 0 L 0.625 0 Z M 4.171875 -8.90625 C 4.566406 -8.90625 4.765625 -9.332031 4.765625 -10.1875 C 4.765625 -10.5625 4.75 -10.835938 4.71875 -11.015625 C 4.6875 -11.203125 4.625 -11.332031 4.53125 -11.40625 C 4.445312 -11.476562 4.320312 -11.515625 4.15625 -11.515625 L 3.5 -11.515625 L 3.5 -8.90625 Z M 4.171875 -8.90625 "/></g></g></g><g fill="#8fff00" fill-opacity="1"><g transform="translate(847.865892, 23.951615)"><g><path d="M 4 0.125 C 2.851562 0.125 1.984375 -0.21875 1.390625 -0.90625 C 0.804688 -1.601562 0.515625 -2.582031 0.515625 -3.84375 L 0.515625 -10.578125 C 0.515625 -11.796875 0.804688 -12.710938 1.390625 -13.328125 C 1.984375 -13.953125 2.851562 -14.265625 4 -14.265625 C 5.132812 -14.265625 6 -13.953125 6.59375 -13.328125 C 7.1875 -12.710938 7.484375 -11.796875 7.484375 -10.578125 L 7.484375 -3.84375 C 7.484375 -2.570312 7.1875 -1.59375 6.59375 -0.90625 C 6 -0.21875 5.132812 0.125 4 0.125 Z M 4 -2.46875 C 4.25 -2.46875 4.414062 -2.578125 4.5 -2.796875 C 4.59375 -3.015625 4.640625 -3.320312 4.640625 -3.71875 L 4.640625 -10.625 C 4.640625 -10.9375 4.597656 -11.1875 4.515625 -11.375 C 4.429688 -11.570312 4.265625 -11.671875 4.015625 -11.671875 C 3.546875 -11.671875 3.3125 -11.3125 3.3125 -10.59375 L 3.3125 -3.703125 C 3.3125 -3.296875 3.359375 -2.988281 3.453125 -2.78125 C 3.554688 -2.570312 3.738281 -2.46875 4 -2.46875 Z M 4 -2.46875 "/></g></g></g><g fill="#8fff00" fill-opacity="1"><g transform="translate(855.857681, 23.951615)"><g><path d="M 3.921875 0.125 C 2.890625 0.125 2.0625 -0.195312 1.4375 -0.84375 C 0.820312 -1.488281 0.515625 -2.375 0.515625 -3.5 L 0.515625 -10.015625 C 0.515625 -11.421875 0.789062 -12.476562 1.34375 -13.1875 C 1.90625 -13.90625 2.785156 -14.265625 3.984375 -14.265625 C 5.023438 -14.265625 5.863281 -13.976562 6.5 -13.40625 C 7.132812 -12.832031 7.453125 -12.007812 7.453125 -10.9375 L 7.453125 -8.5 L 4.640625 -8.5 L 4.640625 -10.59375 C 4.640625 -11 4.585938 -11.28125 4.484375 -11.4375 C 4.390625 -11.59375 4.222656 -11.671875 3.984375 -11.671875 C 3.734375 -11.671875 3.5625 -11.582031 3.46875 -11.40625 C 3.375 -11.226562 3.328125 -10.96875 3.328125 -10.625 L 3.328125 -3.53125 C 3.328125 -3.164062 3.378906 -2.894531 3.484375 -2.71875 C 3.597656 -2.550781 3.765625 -2.46875 3.984375 -2.46875 C 4.421875 -2.46875 4.640625 -2.820312 4.640625 -3.53125 L 4.640625 -6.09375 L 7.484375 -6.09375 L 7.484375 -3.421875 C 7.484375 -1.054688 6.296875 0.125 3.921875 0.125 Z M 3.921875 0.125 "/></g></g></g><g fill="#8fff00" fill-opacity="1"><g transform="translate(863.652148, 23.951615)"><g><path d="M 0.625 0 L 0.625 -14.140625 L 6.28125 -14.140625 L 6.28125 -11.40625 L 3.5 -11.40625 L 3.5 -8.65625 L 6.171875 -8.65625 L 6.171875 -5.984375 L 3.5 -5.984375 L 3.5 -2.75 L 6.46875 -2.75 L 6.46875 0 Z M 0.625 0 "/></g></g></g><g fill="#8fff00" fill-opacity="1"><g transform="translate(870.42708, 23.951615)"><g><path d="M 3.984375 0.125 C 2.703125 0.125 1.773438 -0.191406 1.203125 -0.828125 C 0.628906 -1.460938 0.34375 -2.488281 0.34375 -3.90625 L 0.34375 -5.28125 L 3.125 -5.28125 L 3.125 -3.515625 C 3.125 -2.816406 3.347656 -2.46875 3.796875 -2.46875 C 4.046875 -2.46875 4.21875 -2.539062 4.3125 -2.6875 C 4.414062 -2.832031 4.46875 -3.082031 4.46875 -3.4375 C 4.46875 -3.894531 4.410156 -4.273438 4.296875 -4.578125 C 4.191406 -4.878906 4.054688 -5.128906 3.890625 -5.328125 C 3.722656 -5.535156 3.421875 -5.851562 2.984375 -6.28125 L 1.765625 -7.5 C 0.816406 -8.425781 0.34375 -9.445312 0.34375 -10.5625 C 0.34375 -11.769531 0.617188 -12.6875 1.171875 -13.3125 C 1.722656 -13.945312 2.535156 -14.265625 3.609375 -14.265625 C 4.878906 -14.265625 5.789062 -13.925781 6.34375 -13.25 C 6.90625 -12.570312 7.1875 -11.515625 7.1875 -10.078125 L 4.3125 -10.078125 L 4.296875 -11.0625 C 4.296875 -11.25 4.242188 -11.394531 4.140625 -11.5 C 4.035156 -11.613281 3.890625 -11.671875 3.703125 -11.671875 C 3.484375 -11.671875 3.316406 -11.609375 3.203125 -11.484375 C 3.097656 -11.359375 3.046875 -11.191406 3.046875 -10.984375 C 3.046875 -10.523438 3.304688 -10.050781 3.828125 -9.5625 L 5.484375 -7.984375 C 5.867188 -7.609375 6.1875 -7.253906 6.4375 -6.921875 C 6.6875 -6.585938 6.882812 -6.191406 7.03125 -5.734375 C 7.1875 -5.273438 7.265625 -4.734375 7.265625 -4.109375 C 7.265625 -2.722656 7.007812 -1.671875 6.5 -0.953125 C 5.988281 -0.234375 5.148438 0.125 3.984375 0.125 Z M 3.984375 0.125 "/></g></g></g><g fill="#8fff00" fill-opacity="1"><g transform="translate(878.007768, 23.951615)"><g><path d="M 4 0.125 C 2.851562 0.125 1.984375 -0.21875 1.390625 -0.90625 C 0.804688 -1.601562 0.515625 -2.582031 0.515625 -3.84375 L 0.515625 -10.578125 C 0.515625 -11.796875 0.804688 -12.710938 1.390625 -13.328125 C 1.984375 -13.953125 2.851562 -14.265625 4 -14.265625 C 5.132812 -14.265625 6 -13.953125 6.59375 -13.328125 C 7.1875 -12.710938 7.484375 -11.796875 7.484375 -10.578125 L 7.484375 -3.84375 C 7.484375 -2.570312 7.1875 -1.59375 6.59375 -0.90625 C 6 -0.21875 5.132812 0.125 4 0.125 Z M 4 -2.46875 C 4.25 -2.46875 4.414062 -2.578125 4.5 -2.796875 C 4.59375 -3.015625 4.640625 -3.320312 4.640625 -3.71875 L 4.640625 -10.625 C 4.640625 -10.9375 4.597656 -11.1875 4.515625 -11.375 C 4.429688 -11.570312 4.265625 -11.671875 4.015625 -11.671875 C 3.546875 -11.671875 3.3125 -11.3125 3.3125 -10.59375 L 3.3125 -3.703125 C 3.3125 -3.296875 3.359375 -2.988281 3.453125 -2.78125 C 3.554688 -2.570312 3.738281 -2.46875 4 -2.46875 Z M 4 -2.46875 "/></g></g></g><g fill="#8fff00" fill-opacity="1"><g transform="translate(885.999558, 23.951615)"><g><path d="M 3.984375 0.125 C 2.703125 0.125 1.773438 -0.191406 1.203125 -0.828125 C 0.628906 -1.460938 0.34375 -2.488281 0.34375 -3.90625 L 0.34375 -5.28125 L 3.125 -5.28125 L 3.125 -3.515625 C 3.125 -2.816406 3.347656 -2.46875 3.796875 -2.46875 C 4.046875 -2.46875 4.21875 -2.539062 4.3125 -2.6875 C 4.414062 -2.832031 4.46875 -3.082031 4.46875 -3.4375 C 4.46875 -3.894531 4.410156 -4.273438 4.296875 -4.578125 C 4.191406 -4.878906 4.054688 -5.128906 3.890625 -5.328125 C 3.722656 -5.535156 3.421875 -5.851562 2.984375 -6.28125 L 1.765625 -7.5 C 0.816406 -8.425781 0.34375 -9.445312 0.34375 -10.5625 C 0.34375 -11.769531 0.617188 -12.6875 1.171875 -13.3125 C 1.722656 -13.945312 2.535156 -14.265625 3.609375 -14.265625 C 4.878906 -14.265625 5.789062 -13.925781 6.34375 -13.25 C 6.90625 -12.570312 7.1875 -11.515625 7.1875 -10.078125 L 4.3125 -10.078125 L 4.296875 -11.0625 C 4.296875 -11.25 4.242188 -11.394531 4.140625 -11.5 C 4.035156 -11.613281 3.890625 -11.671875 3.703125 -11.671875 C 3.484375 -11.671875 3.316406 -11.609375 3.203125 -11.484375 C 3.097656 -11.359375 3.046875 -11.191406 3.046875 -10.984375 C 3.046875 -10.523438 3.304688 -10.050781 3.828125 -9.5625 L 5.484375 -7.984375 C 5.867188 -7.609375 6.1875 -7.253906 6.4375 -6.921875 C 6.6875 -6.585938 6.882812 -6.191406 7.03125 -5.734375 C 7.1875 -5.273438 7.265625 -4.734375 7.265625 -4.109375 C 7.265625 -2.722656 7.007812 -1.671875 6.5 -0.953125 C 5.988281 -0.234375 5.148438 0.125 3.984375 0.125 Z M 3.984375 0.125 "/></g></g></g><g fill="#8fff00" fill-opacity="1"><g transform="translate(893.580246, 23.951615)"><g/></g></g><g fill="#8fff00" fill-opacity="1"><g transform="translate(897.428141, 23.951615)"><g><path d="M 0.625 -14.140625 L 4.453125 -14.140625 C 5.484375 -14.140625 6.234375 -13.882812 6.703125 -13.375 C 7.171875 -12.875 7.40625 -12.050781 7.40625 -10.90625 L 7.40625 -10.28125 C 7.40625 -8.9375 6.921875 -8.128906 5.953125 -7.859375 C 6.546875 -7.710938 6.960938 -7.359375 7.203125 -6.796875 C 7.441406 -6.234375 7.5625 -5.492188 7.5625 -4.578125 C 7.5625 -3.066406 7.335938 -1.925781 6.890625 -1.15625 C 6.441406 -0.382812 5.628906 0 4.453125 0 L 0.625 0 Z M 3.96875 -8.8125 C 4.207031 -8.8125 4.367188 -8.898438 4.453125 -9.078125 C 4.546875 -9.265625 4.59375 -9.523438 4.59375 -9.859375 L 4.59375 -11.265625 C 4.59375 -11.734375 4.390625 -11.96875 3.984375 -11.96875 L 3.390625 -11.96875 L 3.390625 -8.8125 Z M 3.671875 -2.484375 C 4.398438 -2.484375 4.765625 -2.832031 4.765625 -3.53125 L 4.765625 -5.296875 C 4.765625 -5.722656 4.703125 -6.046875 4.578125 -6.265625 C 4.453125 -6.484375 4.234375 -6.59375 3.921875 -6.59375 L 3.390625 -6.59375 L 3.390625 -2.5 Z M 3.671875 -2.484375 "/></g></g></g><g fill="#8fff00" fill-opacity="1"><g transform="translate(905.304829, 23.951615)"><g><path d="M 0.5 0 L 0.5 -14.140625 L 3.21875 -14.140625 L 3.21875 0 Z M 0.5 0 "/></g></g></g><g fill="#8fff00" fill-opacity="1"><g transform="translate(909.037622, 23.951615)"><g><path d="M 0.484375 -4.09375 L 0.484375 -5.953125 L 4.625 -5.953125 L 4.625 -4.09375 Z M 0.484375 -4.09375 "/></g></g></g><g fill="#8fff00" fill-opacity="1"><g transform="translate(914.151713, 23.951615)"><g><path d="M 0.625 -14.140625 L 4.53125 -14.140625 C 5.53125 -14.140625 6.28125 -13.859375 6.78125 -13.296875 C 7.289062 -12.734375 7.550781 -11.90625 7.5625 -10.8125 L 7.59375 -4.203125 C 7.613281 -2.804688 7.375 -1.753906 6.875 -1.046875 C 6.382812 -0.347656 5.566406 0 4.421875 0 L 0.625 0 Z M 3.96875 -2.5 C 4.476562 -2.5 4.734375 -2.75 4.734375 -3.25 L 4.734375 -10.546875 C 4.734375 -10.867188 4.707031 -11.109375 4.65625 -11.265625 C 4.613281 -11.421875 4.523438 -11.523438 4.390625 -11.578125 C 4.265625 -11.640625 4.0625 -11.671875 3.78125 -11.671875 L 3.46875 -11.671875 L 3.46875 -2.5 Z M 3.96875 -2.5 "/></g></g></g><g fill="#8fff00" fill-opacity="1"><g transform="translate(922.258616, 23.951615)"><g><path d="M 0.5 0 L 0.5 -14.140625 L 3.21875 -14.140625 L 3.21875 0 Z M 0.5 0 "/></g></g></g><g fill="#8fff00" fill-opacity="1"><g transform="translate(925.991409, 23.951615)"><g><path d="M 0.625 -14.140625 L 4.96875 -14.140625 C 5.65625 -14.140625 6.1875 -13.984375 6.5625 -13.671875 C 6.945312 -13.359375 7.203125 -12.914062 7.328125 -12.34375 C 7.460938 -11.78125 7.53125 -11.0625 7.53125 -10.1875 C 7.53125 -9.382812 7.425781 -8.757812 7.21875 -8.3125 C 7.007812 -7.863281 6.648438 -7.550781 6.140625 -7.375 C 6.566406 -7.28125 6.875 -7.0625 7.0625 -6.71875 C 7.257812 -6.382812 7.359375 -5.925781 7.359375 -5.34375 L 7.328125 0 L 4.5625 0 L 4.5625 -5.53125 C 4.5625 -5.925781 4.484375 -6.175781 4.328125 -6.28125 C 4.171875 -6.394531 3.890625 -6.453125 3.484375 -6.453125 L 3.484375 0 L 0.625 0 Z M 4.171875 -8.90625 C 4.566406 -8.90625 4.765625 -9.332031 4.765625 -10.1875 C 4.765625 -10.5625 4.75 -10.835938 4.71875 -11.015625 C 4.6875 -11.203125 4.625 -11.332031 4.53125 -11.40625 C 4.445312 -11.476562 4.320312 -11.515625 4.15625 -11.515625 L 3.5 -11.515625 L 3.5 -8.90625 Z M 4.171875 -8.90625 "/></g></g></g><g fill="#8fff00" fill-opacity="1"><g transform="translate(933.835204, 23.951615)"><g><path d="M 0.625 0 L 0.625 -14.140625 L 6.28125 -14.140625 L 6.28125 -11.40625 L 3.5 -11.40625 L 3.5 -8.65625 L 6.171875 -8.65625 L 6.171875 -5.984375 L 3.5 -5.984375 L 3.5 -2.75 L 6.46875 -2.75 L 6.46875 0 Z M 0.625 0 "/></g></g></g><g fill="#8fff00" fill-opacity="1"><g transform="translate(940.610136, 23.951615)"><g><path d="M 3.921875 0.125 C 2.890625 0.125 2.0625 -0.195312 1.4375 -0.84375 C 0.820312 -1.488281 0.515625 -2.375 0.515625 -3.5 L 0.515625 -10.015625 C 0.515625 -11.421875 0.789062 -12.476562 1.34375 -13.1875 C 1.90625 -13.90625 2.785156 -14.265625 3.984375 -14.265625 C 5.023438 -14.265625 5.863281 -13.976562 6.5 -13.40625 C 7.132812 -12.832031 7.453125 -12.007812 7.453125 -10.9375 L 7.453125 -8.5 L 4.640625 -8.5 L 4.640625 -10.59375 C 4.640625 -11 4.585938 -11.28125 4.484375 -11.4375 C 4.390625 -11.59375 4.222656 -11.671875 3.984375 -11.671875 C 3.734375 -11.671875 3.5625 -11.582031 3.46875 -11.40625 C 3.375 -11.226562 3.328125 -10.96875 3.328125 -10.625 L 3.328125 -3.53125 C 3.328125 -3.164062 3.378906 -2.894531 3.484375 -2.71875 C 3.597656 -2.550781 3.765625 -2.46875 3.984375 -2.46875 C 4.421875 -2.46875 4.640625 -2.820312 4.640625 -3.53125 L 4.640625 -6.09375 L 7.484375 -6.09375 L 7.484375 -3.421875 C 7.484375 -1.054688 6.296875 0.125 3.921875 0.125 Z M 3.921875 0.125 "/></g></g></g><g fill="#8fff00" fill-opacity="1"><g transform="translate(948.404603, 23.951615)"><g><path d="M 3.921875 0.125 C 2.890625 0.125 2.0625 -0.195312 1.4375 -0.84375 C 0.820312 -1.488281 0.515625 -2.375 0.515625 -3.5 L 0.515625 -10.015625 C 0.515625 -11.421875 0.789062 -12.476562 1.34375 -13.1875 C 1.90625 -13.90625 2.785156 -14.265625 3.984375 -14.265625 C 5.023438 -14.265625 5.863281 -13.976562 6.5 -13.40625 C 7.132812 -12.832031 7.453125 -12.007812 7.453125 -10.9375 L 7.453125 -8.5 L 4.640625 -8.5 L 4.640625 -10.59375 C 4.640625 -11 4.585938 -11.28125 4.484375 -11.4375 C 4.390625 -11.59375 4.222656 -11.671875 3.984375 -11.671875 C 3.734375 -11.671875 3.5625 -11.582031 3.46875 -11.40625 C 3.375 -11.226562 3.328125 -10.96875 3.328125 -10.625 L 3.328125 -3.53125 C 3.328125 -3.164062 3.378906 -2.894531 3.484375 -2.71875 C 3.597656 -2.550781 3.765625 -2.46875 3.984375 -2.46875 C 4.421875 -2.46875 4.640625 -2.820312 4.640625 -3.53125 L 4.640625 -6.09375 L 7.484375 -6.09375 L 7.484375 -3.421875 C 7.484375 -1.054688 6.296875 0.125 3.921875 0.125 Z M 3.921875 0.125 "/></g></g></g><g fill="#8fff00" fill-opacity="1"><g transform="translate(956.199071, 23.951615)"><g><path d="M 0.5 0 L 0.5 -14.140625 L 3.21875 -14.140625 L 3.21875 0 Z M 0.5 0 "/></g></g></g><g fill="#8fff00" fill-opacity="1"><g transform="translate(959.931864, 23.951615)"><g><path d="M 4 0.125 C 2.851562 0.125 1.984375 -0.21875 1.390625 -0.90625 C 0.804688 -1.601562 0.515625 -2.582031 0.515625 -3.84375 L 0.515625 -10.578125 C 0.515625 -11.796875 0.804688 -12.710938 1.390625 -13.328125 C 1.984375 -13.953125 2.851562 -14.265625 4 -14.265625 C 5.132812 -14.265625 6 -13.953125 6.59375 -13.328125 C 7.1875 -12.710938 7.484375 -11.796875 7.484375 -10.578125 L 7.484375 -3.84375 C 7.484375 -2.570312 7.1875 -1.59375 6.59375 -0.90625 C 6 -0.21875 5.132812 0.125 4 0.125 Z M 4 -2.46875 C 4.25 -2.46875 4.414062 -2.578125 4.5 -2.796875 C 4.59375 -3.015625 4.640625 -3.320312 4.640625 -3.71875 L 4.640625 -10.625 C 4.640625 -10.9375 4.597656 -11.1875 4.515625 -11.375 C 4.429688 -11.570312 4.265625 -11.671875 4.015625 -11.671875 C 3.546875 -11.671875 3.3125 -11.3125 3.3125 -10.59375 L 3.3125 -3.703125 C 3.3125 -3.296875 3.359375 -2.988281 3.453125 -2.78125 C 3.554688 -2.570312 3.738281 -2.46875 4 -2.46875 Z M 4 -2.46875 "/></g></g></g><g fill="#8fff00" fill-opacity="1"><g transform="translate(967.923654, 23.951615)"><g><path d="M 0.625 0 L 0.625 -14.140625 L 3.53125 -14.140625 L 4.84375 -7.375 L 4.84375 -14.140625 L 7.5625 -14.140625 L 7.5625 0 L 4.796875 0 L 3.390625 -7.078125 L 3.390625 0 Z M 0.625 0 "/></g></g></g><g fill="#8fff00" fill-opacity="1"><g transform="translate(976.112776, 23.951615)"><g><path d="M 0.25 0 L 1.609375 -14.140625 L 6.40625 -14.140625 L 7.75 0 L 5.0625 0 L 4.875 -2.28125 L 3.15625 -2.28125 L 3 0 Z M 3.375 -4.546875 L 4.65625 -4.546875 L 4.03125 -11.734375 L 3.90625 -11.734375 Z M 3.375 -4.546875 "/></g></g></g><g fill="#8fff00" fill-opacity="1"><g transform="translate(984.088119, 23.951615)"><g><path d="M 0.625 0 L 0.625 -14.140625 L 3.453125 -14.140625 L 3.453125 -2.40625 L 6.375 -2.40625 L 6.375 0 Z M 0.625 0 "/></g></g></g><g fill="#8fff00" fill-opacity="1"><g transform="translate(990.61639, 23.951615)"><g><path d="M 0.625 0 L 0.625 -14.140625 L 6.28125 -14.140625 L 6.28125 -11.40625 L 3.5 -11.40625 L 3.5 -8.65625 L 6.171875 -8.65625 L 6.171875 -5.984375 L 3.5 -5.984375 L 3.5 -2.75 L 6.46875 -2.75 L 6.46875 0 Z M 0.625 0 "/></g></g></g><g fill="#8fff00" fill-opacity="1"><g transform="translate(997.391322, 23.951615)"><g><path d="M 3.984375 0.125 C 2.703125 0.125 1.773438 -0.191406 1.203125 -0.828125 C 0.628906 -1.460938 0.34375 -2.488281 0.34375 -3.90625 L 0.34375 -5.28125 L 3.125 -5.28125 L 3.125 -3.515625 C 3.125 -2.816406 3.347656 -2.46875 3.796875 -2.46875 C 4.046875 -2.46875 4.21875 -2.539062 4.3125 -2.6875 C 4.414062 -2.832031 4.46875 -3.082031 4.46875 -3.4375 C 4.46875 -3.894531 4.410156 -4.273438 4.296875 -4.578125 C 4.191406 -4.878906 4.054688 -5.128906 3.890625 -5.328125 C 3.722656 -5.535156 3.421875 -5.851562 2.984375 -6.28125 L 1.765625 -7.5 C 0.816406 -8.425781 0.34375 -9.445312 0.34375 -10.5625 C 0.34375 -11.769531 0.617188 -12.6875 1.171875 -13.3125 C 1.722656 -13.945312 2.535156 -14.265625 3.609375 -14.265625 C 4.878906 -14.265625 5.789062 -13.925781 6.34375 -13.25 C 6.90625 -12.570312 7.1875 -11.515625 7.1875 -10.078125 L 4.3125 -10.078125 L 4.296875 -11.0625 C 4.296875 -11.25 4.242188 -11.394531 4.140625 -11.5 C 4.035156 -11.613281 3.890625 -11.671875 3.703125 -11.671875 C 3.484375 -11.671875 3.316406 -11.609375 3.203125 -11.484375 C 3.097656 -11.359375 3.046875 -11.191406 3.046875 -10.984375 C 3.046875 -10.523438 3.304688 -10.050781 3.828125 -9.5625 L 5.484375 -7.984375 C 5.867188 -7.609375 6.1875 -7.253906 6.4375 -6.921875 C 6.6875 -6.585938 6.882812 -6.191406 7.03125 -5.734375 C 7.1875 -5.273438 7.265625 -4.734375 7.265625 -4.109375 C 7.265625 -2.722656 7.007812 -1.671875 6.5 -0.953125 C 5.988281 -0.234375 5.148438 0.125 3.984375 0.125 Z M 3.984375 0.125 "/></g></g></g><g fill="#e4dad1" fill-opacity="1"><g transform="translate(1004.975296, 23.951615)"><g/></g></g></svg>