<svg xmlns="http://www.w3.org/2000/svg" xmlns:xlink="http://www.w3.org/1999/xlink" width="1366" zoomAndPan="magnify" viewBox="0 0 1024.5 39.749999" height="768" preserveAspectRatio="xMidYMid meet" version="1.0"><defs><g/><clipPath id="789c4b129d"><path d="M 2.953125 0 L 1021.050781 0 L 1021.050781 39.5 L 2.953125 39.5 Z M 2.953125 0 " clip-rule="nonzero"/></clipPath><clipPath id="445c135b19"><path d="M 2.953125 0 L 1021.050781 0 L 1021.050781 37.980469 L 2.953125 37.980469 Z M 2.953125 0 " clip-rule="nonzero"/></clipPath><clipPath id="0fb56def89"><path d="M 1017 10 L 1021.050781 10 L 1021.050781 25 L 1017 25 Z M 1017 10 " clip-rule="nonzero"/></clipPath></defs><g clip-path="url(#789c4b129d)"><path fill="#ffffff" d="M 2.953125 0 L 1021.050781 0 L 1021.050781 39.5 L 2.953125 39.5 Z M 2.953125 0 " fill-opacity="1" fill-rule="nonzero"/><path fill="#ffffff" d="M 2.953125 0 L 1021.050781 0 L 1021.050781 39.5 L 2.953125 39.5 Z M 2.953125 0 " fill-opacity="1" fill-rule="nonzero"/></g><g clip-path="url(#445c135b19)"><path fill="#2e2e2e" d="M -23.023438 0 L 1072.824219 0 L 1072.824219 37.980469 L -23.023438 37.980469 Z M -23.023438 0 " fill-opacity="1" fill-rule="nonzero"/></g><g fill="#8fff00" fill-opacity="1"><g transform="translate(18.704116, 24.595311)"><g><path d="M 0.25 0 L 1.65625 -14.515625 L 6.578125 -14.515625 L 7.953125 0 L 5.203125 0 L 5 -2.34375 L 3.25 -2.34375 L 3.078125 0 Z M 3.46875 -4.65625 L 4.78125 -4.65625 L 4.140625 -12.046875 L 4 -12.046875 Z M 3.46875 -4.65625 "/></g></g></g><g fill="#8fff00" fill-opacity="1"><g transform="translate(26.893796, 24.595311)"><g><path d="M 0.640625 -14.515625 L 4.46875 -14.515625 C 5.632812 -14.515625 6.460938 -14.140625 6.953125 -13.390625 C 7.453125 -12.640625 7.703125 -11.539062 7.703125 -10.09375 C 7.703125 -8.65625 7.484375 -7.570312 7.046875 -6.84375 C 6.609375 -6.113281 5.816406 -5.75 4.671875 -5.75 L 3.5 -5.75 L 3.5 0 L 0.640625 0 Z M 3.671875 -8.359375 C 4.015625 -8.359375 4.265625 -8.421875 4.421875 -8.546875 C 4.585938 -8.679688 4.695312 -8.867188 4.75 -9.109375 C 4.800781 -9.347656 4.828125 -9.695312 4.828125 -10.15625 C 4.828125 -10.757812 4.757812 -11.195312 4.625 -11.46875 C 4.488281 -11.738281 4.21875 -11.875 3.8125 -11.875 L 3.5 -11.875 L 3.5 -8.359375 Z M 3.671875 -8.359375 "/></g></g></g><g fill="#8fff00" fill-opacity="1"><g transform="translate(34.863962, 24.595311)"><g><path d="M 4 0.140625 C 2.8125 0.140625 1.925781 -0.195312 1.34375 -0.875 C 0.757812 -1.550781 0.46875 -2.554688 0.46875 -3.890625 L 0.46875 -14.515625 L 3.296875 -14.515625 L 3.296875 -4 C 3.296875 -3.539062 3.335938 -3.179688 3.421875 -2.921875 C 3.515625 -2.660156 3.707031 -2.53125 4 -2.53125 C 4.289062 -2.53125 4.484375 -2.65625 4.578125 -2.90625 C 4.671875 -3.164062 4.71875 -3.53125 4.71875 -4 L 4.71875 -14.515625 L 7.53125 -14.515625 L 7.53125 -3.890625 C 7.53125 -2.554688 7.238281 -1.550781 6.65625 -0.875 C 6.082031 -0.195312 5.195312 0.140625 4 0.140625 Z M 2.03125 -14.9375 L 2.03125 -16.78125 L 5.9375 -18.59375 L 5.9375 -15.71875 Z M 2.03125 -14.9375 "/></g></g></g><g fill="#8fff00" fill-opacity="1"><g transform="translate(42.867906, 24.595311)"><g><path d="M 0.640625 0 L 0.640625 -14.515625 L 3.625 -14.515625 L 4.96875 -7.5625 L 4.96875 -14.515625 L 7.765625 -14.515625 L 7.765625 0 L 4.9375 0 L 3.484375 -7.265625 L 3.484375 0 Z M 0.640625 0 "/></g></g></g><g fill="#8fff00" fill-opacity="1"><g transform="translate(51.27711, 24.595311)"><g><path d="M 1.890625 0 L 1.890625 -11.71875 L 0.171875 -11.71875 L 0.171875 -14.515625 L 6.515625 -14.515625 L 6.515625 -11.71875 L 4.796875 -11.71875 L 4.796875 0 Z M 1.890625 0 "/></g></g></g><g fill="#8fff00" fill-opacity="1"><g transform="translate(57.963952, 24.595311)"><g><path d="M 0.25 0 L 1.65625 -14.515625 L 6.578125 -14.515625 L 7.953125 0 L 5.203125 0 L 5 -2.34375 L 3.25 -2.34375 L 3.078125 0 Z M 3.46875 -4.65625 L 4.78125 -4.65625 L 4.140625 -12.046875 L 4 -12.046875 Z M 3.46875 -4.65625 "/></g></g></g><g fill="#8fff00" fill-opacity="1"><g transform="translate(66.153632, 24.595311)"><g><path d="M 1.890625 0 L 1.890625 -11.71875 L 0.171875 -11.71875 L 0.171875 -14.515625 L 6.515625 -14.515625 L 6.515625 -11.71875 L 4.796875 -11.71875 L 4.796875 0 Z M 1.890625 0 "/></g></g></g><g fill="#8fff00" fill-opacity="1"><g transform="translate(72.840473, 24.595311)"><g><path d="M 0.640625 0 L 0.640625 -14.515625 L 6.453125 -14.515625 L 6.453125 -11.703125 L 3.59375 -11.703125 L 3.59375 -8.890625 L 6.328125 -8.890625 L 6.328125 -6.140625 L 3.59375 -6.140625 L 3.59375 -2.828125 L 6.640625 -2.828125 L 6.640625 0 Z M 0.640625 0 "/></g></g></g><g fill="#8fff00" fill-opacity="1"><g transform="translate(79.79748, 24.595311)"><g/></g></g><g fill="#8fff00" fill-opacity="1"><g transform="translate(83.748787, 24.595311)"><g><path d="M 0.25 0 L 1.65625 -14.515625 L 6.578125 -14.515625 L 7.953125 0 L 5.203125 0 L 5 -2.34375 L 3.25 -2.34375 L 3.078125 0 Z M 3.46875 -4.65625 L 4.78125 -4.65625 L 4.140625 -12.046875 L 4 -12.046875 Z M 3.46875 -4.65625 "/></g></g></g><g fill="#8fff00" fill-opacity="1"><g transform="translate(91.938467, 24.595311)"><g/></g></g><g fill="#8fff00" fill-opacity="1"><g transform="translate(95.889774, 24.595311)"><g><path d="M 0.640625 0 L 0.640625 -14.515625 L 3.546875 -14.515625 L 3.546875 -2.46875 L 6.53125 -2.46875 L 6.53125 0 Z M 0.640625 0 "/></g></g></g><g fill="#8fff00" fill-opacity="1"><g transform="translate(102.593492, 24.595311)"><g><path d="M 0.25 0 L 1.65625 -14.515625 L 6.578125 -14.515625 L 7.953125 0 L 5.203125 0 L 5 -2.34375 L 3.25 -2.34375 L 3.078125 0 Z M 3.46875 -4.65625 L 4.78125 -4.65625 L 4.140625 -12.046875 L 4 -12.046875 Z M 3.46875 -4.65625 "/></g></g></g><g fill="#8fff00" fill-opacity="1"><g transform="translate(110.783172, 24.595311)"><g/></g></g><g fill="#8fff00" fill-opacity="1"><g transform="translate(114.734479, 24.595311)"><g><path d="M 1.78125 0 L 0.21875 -14.515625 L 3.0625 -14.515625 L 3.875 -5.359375 L 4.671875 -14.515625 L 7.375 -14.515625 L 8.15625 -5.359375 L 8.9375 -14.515625 L 11.8125 -14.515625 L 10.21875 0 L 6.734375 0 L 6.015625 -7 L 5.328125 0 Z M 1.78125 0 "/></g></g></g><g fill="#8fff00" fill-opacity="1"><g transform="translate(126.757271, 24.595311)"><g><path d="M 0.25 0 L 1.65625 -14.515625 L 6.578125 -14.515625 L 7.953125 0 L 5.203125 0 L 5 -2.34375 L 3.25 -2.34375 L 3.078125 0 Z M 3.46875 -4.65625 L 4.78125 -4.65625 L 4.140625 -12.046875 L 4 -12.046875 Z M 3.46875 -4.65625 "/></g></g></g><g fill="#8fff00" fill-opacity="1"><g transform="translate(134.946951, 24.595311)"><g><path d="M 0.5 0 L 0.5 -14.515625 L 3.3125 -14.515625 L 3.3125 0 Z M 0.5 0 "/></g></g></g><g fill="#8fff00" fill-opacity="1"><g transform="translate(138.780063, 24.595311)"><g><path d="M 1.890625 0 L 1.890625 -11.71875 L 0.171875 -11.71875 L 0.171875 -14.515625 L 6.515625 -14.515625 L 6.515625 -11.71875 L 4.796875 -11.71875 L 4.796875 0 Z M 1.890625 0 "/></g></g></g><g fill="#8fff00" fill-opacity="1"><g transform="translate(145.466904, 24.595311)"><g><path d="M 0.5 0 L 0.5 -14.515625 L 3.3125 -14.515625 L 3.3125 0 Z M 0.5 0 "/></g></g></g><g fill="#8fff00" fill-opacity="1"><g transform="translate(149.300016, 24.595311)"><g><path d="M 0.640625 0 L 0.640625 -14.515625 L 6.453125 -14.515625 L 6.453125 -11.703125 L 3.59375 -11.703125 L 3.59375 -8.890625 L 6.328125 -8.890625 L 6.328125 -6.140625 L 3.59375 -6.140625 L 3.59375 -2.828125 L 6.640625 -2.828125 L 6.640625 0 Z M 0.640625 0 "/></g></g></g><g fill="#8fff00" fill-opacity="1"><g transform="translate(156.257023, 24.595311)"><g><path d="M 0.640625 0 L 0.640625 -14.515625 L 3.625 -14.515625 L 4.96875 -7.5625 L 4.96875 -14.515625 L 7.765625 -14.515625 L 7.765625 0 L 4.9375 0 L 3.484375 -7.265625 L 3.484375 0 Z M 0.640625 0 "/></g></g></g><g fill="#8fff00" fill-opacity="1"><g transform="translate(164.666228, 24.595311)"><g><path d="M 3.625 0.140625 C 2.582031 0.140625 1.804688 -0.226562 1.296875 -0.96875 C 0.785156 -1.707031 0.53125 -2.828125 0.53125 -4.328125 L 0.53125 -10.578125 C 0.53125 -11.910156 0.828125 -12.921875 1.421875 -13.609375 C 2.015625 -14.296875 2.90625 -14.640625 4.09375 -14.640625 C 5.039062 -14.640625 5.78125 -14.445312 6.3125 -14.0625 C 6.84375 -13.6875 7.207031 -13.128906 7.40625 -12.390625 C 7.613281 -11.660156 7.71875 -10.722656 7.71875 -9.578125 L 4.875 -9.578125 L 4.875 -10.875 C 4.875 -11.226562 4.828125 -11.5 4.734375 -11.6875 C 4.640625 -11.875 4.46875 -11.96875 4.21875 -11.96875 C 3.664062 -11.96875 3.390625 -11.609375 3.390625 -10.890625 L 3.390625 -3.875 C 3.390625 -3.425781 3.445312 -3.085938 3.5625 -2.859375 C 3.675781 -2.640625 3.875 -2.53125 4.15625 -2.53125 C 4.4375 -2.53125 4.632812 -2.640625 4.75 -2.859375 C 4.863281 -3.085938 4.921875 -3.425781 4.921875 -3.875 L 4.921875 -5.953125 L 4.140625 -5.953125 L 4.140625 -8.4375 L 7.6875 -8.4375 L 7.6875 0 L 6.515625 0 L 6.03125 -1.21875 C 5.507812 -0.3125 4.707031 0.140625 3.625 0.140625 Z M 3.625 0.140625 "/></g></g></g><g fill="#8fff00" fill-opacity="1"><g transform="translate(172.855908, 24.595311)"><g/></g></g><g fill="#8fff00" fill-opacity="1"><g transform="translate(176.807215, 24.595311)"><g><path d="M 0.640625 0 L 0.640625 -14.515625 L 3.546875 -14.515625 L 3.546875 -2.46875 L 6.53125 -2.46875 L 6.53125 0 Z M 0.640625 0 "/></g></g></g><g fill="#8fff00" fill-opacity="1"><g transform="translate(183.510933, 24.595311)"><g><path d="M 0.5 0 L 0.5 -14.515625 L 3.3125 -14.515625 L 3.3125 0 Z M 0.5 0 "/></g></g></g><g fill="#8fff00" fill-opacity="1"><g transform="translate(187.344045, 24.595311)"><g><path d="M 4.09375 0.140625 C 2.769531 0.140625 1.816406 -0.1875 1.234375 -0.84375 C 0.648438 -1.5 0.359375 -2.550781 0.359375 -4 L 0.359375 -5.421875 L 3.203125 -5.421875 L 3.203125 -3.609375 C 3.203125 -2.890625 3.4375 -2.53125 3.90625 -2.53125 C 4.164062 -2.53125 4.34375 -2.601562 4.4375 -2.75 C 4.539062 -2.90625 4.59375 -3.164062 4.59375 -3.53125 C 4.59375 -4 4.535156 -4.390625 4.421875 -4.703125 C 4.304688 -5.015625 4.160156 -5.273438 3.984375 -5.484375 C 3.816406 -5.691406 3.507812 -6.015625 3.0625 -6.453125 L 1.8125 -7.703125 C 0.84375 -8.648438 0.359375 -9.695312 0.359375 -10.84375 C 0.359375 -12.082031 0.640625 -13.023438 1.203125 -13.671875 C 1.773438 -14.316406 2.609375 -14.640625 3.703125 -14.640625 C 5.003906 -14.640625 5.941406 -14.289062 6.515625 -13.59375 C 7.085938 -12.90625 7.375 -11.828125 7.375 -10.359375 L 4.421875 -10.359375 L 4.40625 -11.34375 C 4.40625 -11.539062 4.351562 -11.691406 4.25 -11.796875 C 4.144531 -11.910156 3.992188 -11.96875 3.796875 -11.96875 C 3.578125 -11.96875 3.410156 -11.90625 3.296875 -11.78125 C 3.179688 -11.664062 3.125 -11.5 3.125 -11.28125 C 3.125 -10.8125 3.394531 -10.320312 3.9375 -9.8125 L 5.625 -8.1875 C 6.019531 -7.8125 6.347656 -7.453125 6.609375 -7.109375 C 6.867188 -6.765625 7.078125 -6.359375 7.234375 -5.890625 C 7.390625 -5.421875 7.46875 -4.863281 7.46875 -4.21875 C 7.46875 -2.789062 7.203125 -1.707031 6.671875 -0.96875 C 6.148438 -0.226562 5.289062 0.140625 4.09375 0.140625 Z M 4.09375 0.140625 "/></g></g></g><g fill="#8fff00" fill-opacity="1"><g transform="translate(195.128463, 24.595311)"><g><path d="M 1.890625 0 L 1.890625 -11.71875 L 0.171875 -11.71875 L 0.171875 -14.515625 L 6.515625 -14.515625 L 6.515625 -11.71875 L 4.796875 -11.71875 L 4.796875 0 Z M 1.890625 0 "/></g></g></g><g fill="#8fff00" fill-opacity="1"><g transform="translate(201.818072, 24.595311)"><g/></g></g><g fill="#e4dad1" fill-opacity="1"><g transform="translate(205.777544, 24.595311)"><g/></g></g><g fill="#e4dad1" fill-opacity="1"><g transform="translate(209.728851, 24.595311)"><g/></g></g><g fill="#e4dad1" fill-opacity="1"><g transform="translate(213.680158, 24.595311)"><g/></g></g><g fill="#e4dad1" fill-opacity="1"><g transform="translate(217.631465, 24.595311)"><g/></g></g><g fill="#e4dad1" fill-opacity="1"><g transform="translate(221.582772, 24.595311)"><g/></g></g><g fill="#e4dad1" fill-opacity="1"><g transform="translate(225.534079, 24.595311)"><g/></g></g><g fill="#8fff00" fill-opacity="1"><g transform="translate(229.487797, 24.595311)"><g><path d="M 0.640625 0 L 0.640625 -14.515625 L 3.625 -14.515625 L 4.96875 -7.5625 L 4.96875 -14.515625 L 7.765625 -14.515625 L 7.765625 0 L 4.9375 0 L 3.484375 -7.265625 L 3.484375 0 Z M 0.640625 0 "/></g></g></g><g fill="#8fff00" fill-opacity="1"><g transform="translate(237.897001, 24.595311)"><g><path d="M 4.109375 0.140625 C 2.929688 0.140625 2.039062 -0.21875 1.4375 -0.9375 C 0.832031 -1.65625 0.53125 -2.660156 0.53125 -3.953125 L 0.53125 -10.859375 C 0.53125 -12.109375 0.832031 -13.050781 1.4375 -13.6875 C 2.039062 -14.320312 2.929688 -14.640625 4.109375 -14.640625 C 5.273438 -14.640625 6.160156 -14.320312 6.765625 -13.6875 C 7.378906 -13.050781 7.6875 -12.109375 7.6875 -10.859375 L 7.6875 -3.953125 C 7.6875 -2.648438 7.378906 -1.640625 6.765625 -0.921875 C 6.160156 -0.210938 5.273438 0.140625 4.109375 0.140625 Z M 4.109375 -2.53125 C 4.367188 -2.53125 4.539062 -2.640625 4.625 -2.859375 C 4.71875 -3.085938 4.765625 -3.40625 4.765625 -3.8125 L 4.765625 -10.90625 C 4.765625 -11.226562 4.722656 -11.484375 4.640625 -11.671875 C 4.554688 -11.867188 4.382812 -11.96875 4.125 -11.96875 C 3.632812 -11.96875 3.390625 -11.601562 3.390625 -10.875 L 3.390625 -3.796875 C 3.390625 -3.378906 3.441406 -3.0625 3.546875 -2.84375 C 3.648438 -2.632812 3.835938 -2.53125 4.109375 -2.53125 Z M 4.109375 -2.53125 "/></g></g></g><g fill="#8fff00" fill-opacity="1"><g transform="translate(246.10357, 24.595311)"><g/></g></g><g fill="#8fff00" fill-opacity="1"><g transform="translate(250.054877, 24.595311)"><g><path d="M 0.640625 -14.515625 L 4.640625 -14.515625 C 5.679688 -14.515625 6.457031 -14.222656 6.96875 -13.640625 C 7.488281 -13.066406 7.753906 -12.21875 7.765625 -11.09375 L 7.796875 -4.3125 C 7.816406 -2.875 7.570312 -1.796875 7.0625 -1.078125 C 6.550781 -0.359375 5.710938 0 4.546875 0 L 0.640625 0 Z M 4.078125 -2.5625 C 4.597656 -2.5625 4.859375 -2.820312 4.859375 -3.34375 L 4.859375 -10.828125 C 4.859375 -11.148438 4.832031 -11.394531 4.78125 -11.5625 C 4.738281 -11.726562 4.648438 -11.835938 4.515625 -11.890625 C 4.378906 -11.941406 4.171875 -11.96875 3.890625 -11.96875 L 3.5625 -11.96875 L 3.5625 -2.5625 Z M 4.078125 -2.5625 "/></g></g></g><g fill="#8fff00" fill-opacity="1"><g transform="translate(258.379651, 24.595311)"><g><path d="M 0.640625 0 L 0.640625 -14.515625 L 6.453125 -14.515625 L 6.453125 -11.703125 L 3.59375 -11.703125 L 3.59375 -8.890625 L 6.328125 -8.890625 L 6.328125 -6.140625 L 3.59375 -6.140625 L 3.59375 -2.828125 L 6.640625 -2.828125 L 6.640625 0 Z M 0.640625 0 "/></g></g></g><g fill="#8fff00" fill-opacity="1"><g transform="translate(265.336659, 24.595311)"><g><path d="M 3.875 0.140625 C 3.207031 0.140625 2.601562 0.0078125 2.0625 -0.25 C 1.519531 -0.507812 1.09375 -0.890625 0.78125 -1.390625 C 0.476562 -1.890625 0.328125 -2.492188 0.328125 -3.203125 L 0.328125 -6.84375 L 3.171875 -6.84375 L 3.171875 -3.375 C 3.171875 -3.113281 3.222656 -2.90625 3.328125 -2.75 C 3.441406 -2.601562 3.609375 -2.53125 3.828125 -2.53125 C 4.046875 -2.53125 4.207031 -2.597656 4.3125 -2.734375 C 4.414062 -2.878906 4.46875 -3.082031 4.46875 -3.34375 L 4.46875 -14.515625 L 7.390625 -14.515625 L 7.390625 -3.625 C 7.390625 -2.875 7.238281 -2.210938 6.9375 -1.640625 C 6.644531 -1.078125 6.226562 -0.640625 5.6875 -0.328125 C 5.15625 -0.015625 4.550781 0.140625 3.875 0.140625 Z M 3.875 0.140625 "/></g></g></g><g fill="#8fff00" fill-opacity="1"><g transform="translate(273.205508, 24.595311)"><g><path d="M 0.640625 0 L 0.640625 -14.515625 L 6.453125 -14.515625 L 6.453125 -11.703125 L 3.59375 -11.703125 L 3.59375 -8.890625 L 6.328125 -8.890625 L 6.328125 -6.140625 L 3.59375 -6.140625 L 3.59375 -2.828125 L 6.640625 -2.828125 L 6.640625 0 Z M 0.640625 0 "/></g></g></g><g fill="#8fff00" fill-opacity="1"><g transform="translate(280.162515, 24.595311)"><g><path d="M 4.09375 0.140625 C 2.769531 0.140625 1.816406 -0.1875 1.234375 -0.84375 C 0.648438 -1.5 0.359375 -2.550781 0.359375 -4 L 0.359375 -5.421875 L 3.203125 -5.421875 L 3.203125 -3.609375 C 3.203125 -2.890625 3.4375 -2.53125 3.90625 -2.53125 C 4.164062 -2.53125 4.34375 -2.601562 4.4375 -2.75 C 4.539062 -2.90625 4.59375 -3.164062 4.59375 -3.53125 C 4.59375 -4 4.535156 -4.390625 4.421875 -4.703125 C 4.304688 -5.015625 4.160156 -5.273438 3.984375 -5.484375 C 3.816406 -5.691406 3.507812 -6.015625 3.0625 -6.453125 L 1.8125 -7.703125 C 0.84375 -8.648438 0.359375 -9.695312 0.359375 -10.84375 C 0.359375 -12.082031 0.640625 -13.023438 1.203125 -13.671875 C 1.773438 -14.316406 2.609375 -14.640625 3.703125 -14.640625 C 5.003906 -14.640625 5.941406 -14.289062 6.515625 -13.59375 C 7.085938 -12.90625 7.375 -11.828125 7.375 -10.359375 L 4.421875 -10.359375 L 4.40625 -11.34375 C 4.40625 -11.539062 4.351562 -11.691406 4.25 -11.796875 C 4.144531 -11.910156 3.992188 -11.96875 3.796875 -11.96875 C 3.578125 -11.96875 3.410156 -11.90625 3.296875 -11.78125 C 3.179688 -11.664062 3.125 -11.5 3.125 -11.28125 C 3.125 -10.8125 3.394531 -10.320312 3.9375 -9.8125 L 5.625 -8.1875 C 6.019531 -7.8125 6.347656 -7.453125 6.609375 -7.109375 C 6.867188 -6.765625 7.078125 -6.359375 7.234375 -5.890625 C 7.390625 -5.421875 7.46875 -4.863281 7.46875 -4.21875 C 7.46875 -2.789062 7.203125 -1.707031 6.671875 -0.96875 C 6.148438 -0.226562 5.289062 0.140625 4.09375 0.140625 Z M 4.09375 0.140625 "/></g></g></g><g fill="#8fff00" fill-opacity="1"><g transform="translate(287.946934, 24.595311)"><g/></g></g><g fill="#8fff00" fill-opacity="1"><g transform="translate(291.898241, 24.595311)"><g><path d="M 4.75 0.015625 C 4.320312 0.0976562 4.078125 0.140625 4.015625 0.140625 C 2.847656 0.140625 1.957031 -0.191406 1.34375 -0.859375 C 0.738281 -1.535156 0.4375 -2.519531 0.4375 -3.8125 L 0.4375 -10.828125 C 0.4375 -12.078125 0.742188 -13.023438 1.359375 -13.671875 C 1.972656 -14.316406 2.859375 -14.640625 4.015625 -14.640625 C 5.179688 -14.640625 6.066406 -14.316406 6.671875 -13.671875 C 7.285156 -13.023438 7.59375 -12.078125 7.59375 -10.828125 L 7.59375 -3.8125 C 7.59375 -2.625 7.328125 -1.679688 6.796875 -0.984375 L 8.046875 -0.1875 L 7.0625 1.53125 Z M 4.015625 -2.53125 C 4.296875 -2.53125 4.472656 -2.664062 4.546875 -2.9375 C 4.628906 -3.207031 4.671875 -3.554688 4.671875 -3.984375 L 4.671875 -10.78125 C 4.671875 -11.144531 4.625 -11.429688 4.53125 -11.640625 C 4.4375 -11.859375 4.257812 -11.96875 4 -11.96875 C 3.539062 -11.96875 3.3125 -11.578125 3.3125 -10.796875 L 3.3125 -3.9375 C 3.3125 -3.53125 3.351562 -3.191406 3.4375 -2.921875 C 3.53125 -2.660156 3.722656 -2.53125 4.015625 -2.53125 Z M 4.015625 -2.53125 "/></g></g></g><g fill="#8fff00" fill-opacity="1"><g transform="translate(300.239904, 24.595311)"><g><path d="M 4 0.140625 C 2.8125 0.140625 1.925781 -0.195312 1.34375 -0.875 C 0.757812 -1.550781 0.46875 -2.554688 0.46875 -3.890625 L 0.46875 -14.515625 L 3.296875 -14.515625 L 3.296875 -4 C 3.296875 -3.539062 3.335938 -3.179688 3.421875 -2.921875 C 3.515625 -2.660156 3.707031 -2.53125 4 -2.53125 C 4.289062 -2.53125 4.484375 -2.65625 4.578125 -2.90625 C 4.671875 -3.164062 4.71875 -3.53125 4.71875 -4 L 4.71875 -14.515625 L 7.53125 -14.515625 L 7.53125 -3.890625 C 7.53125 -2.554688 7.238281 -1.550781 6.65625 -0.875 C 6.082031 -0.195312 5.195312 0.140625 4 0.140625 Z M 4 0.140625 "/></g></g></g><g fill="#8fff00" fill-opacity="1"><g transform="translate(308.243847, 24.595311)"><g><path d="M 0.640625 0 L 0.640625 -14.515625 L 6.453125 -14.515625 L 6.453125 -11.703125 L 3.59375 -11.703125 L 3.59375 -8.890625 L 6.328125 -8.890625 L 6.328125 -6.140625 L 3.59375 -6.140625 L 3.59375 -2.828125 L 6.640625 -2.828125 L 6.640625 0 Z M 0.640625 0 "/></g></g></g><g fill="#8fff00" fill-opacity="1"><g transform="translate(315.200855, 24.595311)"><g/></g></g><g fill="#8fff00" fill-opacity="1"><g transform="translate(319.152162, 24.595311)"><g><path d="M 1.890625 0 L 1.890625 -11.71875 L 0.171875 -11.71875 L 0.171875 -14.515625 L 6.515625 -14.515625 L 6.515625 -11.71875 L 4.796875 -11.71875 L 4.796875 0 Z M 1.890625 0 "/></g></g></g><g fill="#8fff00" fill-opacity="1"><g transform="translate(325.839003, 24.595311)"><g><path d="M 0.640625 0 L 0.640625 -14.515625 L 6.453125 -14.515625 L 6.453125 -11.703125 L 3.59375 -11.703125 L 3.59375 -8.890625 L 6.328125 -8.890625 L 6.328125 -6.140625 L 3.59375 -6.140625 L 3.59375 -2.828125 L 6.640625 -2.828125 L 6.640625 0 Z M 0.640625 0 "/></g></g></g><g fill="#8fff00" fill-opacity="1"><g transform="translate(332.796011, 24.595311)"><g/></g></g><g fill="#8fff00" fill-opacity="1"><g transform="translate(336.747318, 24.595311)"><g><path d="M 0.640625 0 L 0.640625 -14.515625 L 3.546875 -14.515625 L 3.546875 -2.46875 L 6.53125 -2.46875 L 6.53125 0 Z M 0.640625 0 "/></g></g></g><g fill="#8fff00" fill-opacity="1"><g transform="translate(343.451036, 24.595311)"><g><path d="M 4.109375 0.140625 C 2.929688 0.140625 2.039062 -0.21875 1.4375 -0.9375 C 0.832031 -1.65625 0.53125 -2.660156 0.53125 -3.953125 L 0.53125 -10.859375 C 0.53125 -12.109375 0.832031 -13.050781 1.4375 -13.6875 C 2.039062 -14.320312 2.929688 -14.640625 4.109375 -14.640625 C 5.273438 -14.640625 6.160156 -14.320312 6.765625 -13.6875 C 7.378906 -13.050781 7.6875 -12.109375 7.6875 -10.859375 L 7.6875 -3.953125 C 7.6875 -2.648438 7.378906 -1.640625 6.765625 -0.921875 C 6.160156 -0.210938 5.273438 0.140625 4.109375 0.140625 Z M 4.109375 -2.53125 C 4.367188 -2.53125 4.539062 -2.640625 4.625 -2.859375 C 4.71875 -3.085938 4.765625 -3.40625 4.765625 -3.8125 L 4.765625 -10.90625 C 4.765625 -11.226562 4.722656 -11.484375 4.640625 -11.671875 C 4.554688 -11.867188 4.382812 -11.96875 4.125 -11.96875 C 3.632812 -11.96875 3.390625 -11.601562 3.390625 -10.875 L 3.390625 -3.796875 C 3.390625 -3.378906 3.441406 -3.0625 3.546875 -2.84375 C 3.648438 -2.632812 3.835938 -2.53125 4.109375 -2.53125 Z M 4.109375 -2.53125 "/></g></g></g><g fill="#8fff00" fill-opacity="1"><g transform="translate(351.657604, 24.595311)"><g/></g></g><g fill="#8fff00" fill-opacity="1"><g transform="translate(355.608911, 24.595311)"><g><path d="M 4.015625 0.140625 C 2.960938 0.140625 2.117188 -0.191406 1.484375 -0.859375 C 0.847656 -1.523438 0.53125 -2.4375 0.53125 -3.59375 L 0.53125 -10.28125 C 0.53125 -11.726562 0.816406 -12.816406 1.390625 -13.546875 C 1.960938 -14.273438 2.863281 -14.640625 4.09375 -14.640625 C 5.15625 -14.640625 6.015625 -14.347656 6.671875 -13.765625 C 7.328125 -13.179688 7.65625 -12.335938 7.65625 -11.234375 L 7.65625 -8.734375 L 4.765625 -8.734375 L 4.765625 -10.875 C 4.765625 -11.289062 4.710938 -11.578125 4.609375 -11.734375 C 4.503906 -11.890625 4.332031 -11.96875 4.09375 -11.96875 C 3.832031 -11.96875 3.648438 -11.878906 3.546875 -11.703125 C 3.453125 -11.523438 3.40625 -11.257812 3.40625 -10.90625 L 3.40625 -3.625 C 3.40625 -3.25 3.460938 -2.972656 3.578125 -2.796875 C 3.691406 -2.617188 3.863281 -2.53125 4.09375 -2.53125 C 4.539062 -2.53125 4.765625 -2.894531 4.765625 -3.625 L 4.765625 -6.25 L 7.6875 -6.25 L 7.6875 -3.515625 C 7.6875 -1.078125 6.460938 0.140625 4.015625 0.140625 Z M 4.015625 0.140625 "/></g></g></g><g fill="#8fff00" fill-opacity="1"><g transform="translate(363.612854, 24.595311)"><g><path d="M 4 0.140625 C 2.8125 0.140625 1.925781 -0.195312 1.34375 -0.875 C 0.757812 -1.550781 0.46875 -2.554688 0.46875 -3.890625 L 0.46875 -14.515625 L 3.296875 -14.515625 L 3.296875 -4 C 3.296875 -3.539062 3.335938 -3.179688 3.421875 -2.921875 C 3.515625 -2.660156 3.707031 -2.53125 4 -2.53125 C 4.289062 -2.53125 4.484375 -2.65625 4.578125 -2.90625 C 4.671875 -3.164062 4.71875 -3.53125 4.71875 -4 L 4.71875 -14.515625 L 7.53125 -14.515625 L 7.53125 -3.890625 C 7.53125 -2.554688 7.238281 -1.550781 6.65625 -0.875 C 6.082031 -0.195312 5.195312 0.140625 4 0.140625 Z M 4 0.140625 "/></g></g></g><g fill="#8fff00" fill-opacity="1"><g transform="translate(371.616797, 24.595311)"><g><path d="M 0.640625 0 L 0.640625 -14.515625 L 6.453125 -14.515625 L 6.453125 -11.703125 L 3.59375 -11.703125 L 3.59375 -8.890625 L 6.328125 -8.890625 L 6.328125 -6.140625 L 3.59375 -6.140625 L 3.59375 -2.828125 L 6.640625 -2.828125 L 6.640625 0 Z M 0.640625 0 "/></g></g></g><g fill="#8fff00" fill-opacity="1"><g transform="translate(378.573805, 24.595311)"><g><path d="M 0.640625 0 L 0.640625 -14.515625 L 3.625 -14.515625 L 4.96875 -7.5625 L 4.96875 -14.515625 L 7.765625 -14.515625 L 7.765625 0 L 4.9375 0 L 3.484375 -7.265625 L 3.484375 0 Z M 0.640625 0 "/></g></g></g><g fill="#8fff00" fill-opacity="1"><g transform="translate(386.98301, 24.595311)"><g><path d="M 1.890625 0 L 1.890625 -11.71875 L 0.171875 -11.71875 L 0.171875 -14.515625 L 6.515625 -14.515625 L 6.515625 -11.71875 L 4.796875 -11.71875 L 4.796875 0 Z M 1.890625 0 "/></g></g></g><g fill="#8fff00" fill-opacity="1"><g transform="translate(393.669851, 24.595311)"><g><path d="M 0.640625 0 L 0.640625 -14.515625 L 6.453125 -14.515625 L 6.453125 -11.703125 L 3.59375 -11.703125 L 3.59375 -8.890625 L 6.328125 -8.890625 L 6.328125 -6.140625 L 3.59375 -6.140625 L 3.59375 -2.828125 L 6.640625 -2.828125 L 6.640625 0 Z M 0.640625 0 "/></g></g></g><g fill="#8fff00" fill-opacity="1"><g transform="translate(400.626859, 24.595311)"><g><path d="M 0.640625 0 L 0.640625 -14.515625 L 3.625 -14.515625 L 4.96875 -7.5625 L 4.96875 -14.515625 L 7.765625 -14.515625 L 7.765625 0 L 4.9375 0 L 3.484375 -7.265625 L 3.484375 0 Z M 0.640625 0 "/></g></g></g><g fill="#8fff00" fill-opacity="1"><g transform="translate(409.038224, 24.595311)"><g/></g></g><g fill="#8fff00" fill-opacity="1"><g transform="translate(412.989531, 24.595311)"><g/></g></g><g fill="#8fff00" fill-opacity="1"><g transform="translate(416.940838, 24.595311)"><g/></g></g><g fill="#8fff00" fill-opacity="1"><g transform="translate(420.892145, 24.595311)"><g/></g></g><g fill="#8fff00" fill-opacity="1"><g transform="translate(424.843452, 24.595311)"><g/></g></g><g fill="#8fff00" fill-opacity="1"><g transform="translate(428.794759, 24.595311)"><g/></g></g><g fill="#8fff00" fill-opacity="1"><g transform="translate(432.748476, 24.595311)"><g><path d="M 0.640625 -14.515625 L 5.09375 -14.515625 C 5.8125 -14.515625 6.363281 -14.351562 6.75 -14.03125 C 7.132812 -13.707031 7.394531 -13.253906 7.53125 -12.671875 C 7.664062 -12.097656 7.734375 -11.359375 7.734375 -10.453125 C 7.734375 -9.628906 7.625 -8.988281 7.40625 -8.53125 C 7.195312 -8.070312 6.828125 -7.75 6.296875 -7.5625 C 6.734375 -7.476562 7.050781 -7.257812 7.25 -6.90625 C 7.445312 -6.5625 7.546875 -6.085938 7.546875 -5.484375 L 7.515625 0 L 4.671875 0 L 4.671875 -5.671875 C 4.671875 -6.078125 4.59375 -6.335938 4.4375 -6.453125 C 4.28125 -6.566406 3.992188 -6.625 3.578125 -6.625 L 3.578125 0 L 0.640625 0 Z M 4.296875 -9.140625 C 4.691406 -9.140625 4.890625 -9.578125 4.890625 -10.453125 C 4.890625 -10.835938 4.875 -11.125 4.84375 -11.3125 C 4.8125 -11.507812 4.75 -11.644531 4.65625 -11.71875 C 4.570312 -11.789062 4.441406 -11.828125 4.265625 -11.828125 L 3.59375 -11.828125 L 3.59375 -9.140625 Z M 4.296875 -9.140625 "/></g></g></g><g fill="#8fff00" fill-opacity="1"><g transform="translate(440.803073, 24.595311)"><g><path d="M 4.109375 0.140625 C 2.929688 0.140625 2.039062 -0.21875 1.4375 -0.9375 C 0.832031 -1.65625 0.53125 -2.660156 0.53125 -3.953125 L 0.53125 -10.859375 C 0.53125 -12.109375 0.832031 -13.050781 1.4375 -13.6875 C 2.039062 -14.320312 2.929688 -14.640625 4.109375 -14.640625 C 5.273438 -14.640625 6.160156 -14.320312 6.765625 -13.6875 C 7.378906 -13.050781 7.6875 -12.109375 7.6875 -10.859375 L 7.6875 -3.953125 C 7.6875 -2.648438 7.378906 -1.640625 6.765625 -0.921875 C 6.160156 -0.210938 5.273438 0.140625 4.109375 0.140625 Z M 4.109375 -2.53125 C 4.367188 -2.53125 4.539062 -2.640625 4.625 -2.859375 C 4.71875 -3.085938 4.765625 -3.40625 4.765625 -3.8125 L 4.765625 -10.90625 C 4.765625 -11.226562 4.722656 -11.484375 4.640625 -11.671875 C 4.554688 -11.867188 4.382812 -11.96875 4.125 -11.96875 C 3.632812 -11.96875 3.390625 -11.601562 3.390625 -10.875 L 3.390625 -3.796875 C 3.390625 -3.378906 3.441406 -3.0625 3.546875 -2.84375 C 3.648438 -2.632812 3.835938 -2.53125 4.109375 -2.53125 Z M 4.109375 -2.53125 "/></g></g></g><g fill="#8fff00" fill-opacity="1"><g transform="translate(449.009641, 24.595311)"><g><path d="M 0.640625 0 L 0.640625 -14.515625 L 5.0625 -14.515625 L 6.28125 -5.65625 L 7.5 -14.515625 L 11.953125 -14.515625 L 11.953125 0 L 9.3125 0 L 9.3125 -10.453125 L 7.640625 0 L 5.03125 0 L 3.265625 -10.453125 L 3.265625 0 Z M 0.640625 0 "/></g></g></g><g fill="#8fff00" fill-opacity="1"><g transform="translate(461.606555, 24.595311)"><g><path d="M 0.640625 -14.515625 L 4.46875 -14.515625 C 5.632812 -14.515625 6.460938 -14.140625 6.953125 -13.390625 C 7.453125 -12.640625 7.703125 -11.539062 7.703125 -10.09375 C 7.703125 -8.65625 7.484375 -7.570312 7.046875 -6.84375 C 6.609375 -6.113281 5.816406 -5.75 4.671875 -5.75 L 3.5 -5.75 L 3.5 0 L 0.640625 0 Z M 3.671875 -8.359375 C 4.015625 -8.359375 4.265625 -8.421875 4.421875 -8.546875 C 4.585938 -8.679688 4.695312 -8.867188 4.75 -9.109375 C 4.800781 -9.347656 4.828125 -9.695312 4.828125 -10.15625 C 4.828125 -10.757812 4.757812 -11.195312 4.625 -11.46875 C 4.488281 -11.738281 4.21875 -11.875 3.8125 -11.875 L 3.5 -11.875 L 3.5 -8.359375 Z M 3.671875 -8.359375 "/></g></g></g><g fill="#8fff00" fill-opacity="1"><g transform="translate(469.576722, 24.595311)"><g><path d="M 0.25 0 L 1.65625 -14.515625 L 6.578125 -14.515625 L 7.953125 0 L 5.203125 0 L 5 -2.34375 L 3.25 -2.34375 L 3.078125 0 Z M 3.46875 -4.65625 L 4.78125 -4.65625 L 4.140625 -12.046875 L 4 -12.046875 Z M 3.46875 -4.65625 "/></g></g></g><g fill="#8fff00" fill-opacity="1"><g transform="translate(477.766402, 24.595311)"><g><path d="M 0.640625 0 L 0.640625 -14.515625 L 5.0625 -14.515625 L 6.28125 -5.65625 L 7.5 -14.515625 L 11.953125 -14.515625 L 11.953125 0 L 9.3125 0 L 9.3125 -10.453125 L 7.640625 0 L 5.03125 0 L 3.265625 -10.453125 L 3.265625 0 Z M 0.640625 0 "/></g></g></g><g fill="#8fff00" fill-opacity="1"><g transform="translate(490.363315, 24.595311)"><g><path d="M 4.109375 0.140625 C 2.929688 0.140625 2.039062 -0.21875 1.4375 -0.9375 C 0.832031 -1.65625 0.53125 -2.660156 0.53125 -3.953125 L 0.53125 -10.859375 C 0.53125 -12.109375 0.832031 -13.050781 1.4375 -13.6875 C 2.039062 -14.320312 2.929688 -14.640625 4.109375 -14.640625 C 5.273438 -14.640625 6.160156 -14.320312 6.765625 -13.6875 C 7.378906 -13.050781 7.6875 -12.109375 7.6875 -10.859375 L 7.6875 -3.953125 C 7.6875 -2.648438 7.378906 -1.640625 6.765625 -0.921875 C 6.160156 -0.210938 5.273438 0.140625 4.109375 0.140625 Z M 4.109375 -2.53125 C 4.367188 -2.53125 4.539062 -2.640625 4.625 -2.859375 C 4.71875 -3.085938 4.765625 -3.40625 4.765625 -3.8125 L 4.765625 -10.90625 C 4.765625 -11.226562 4.722656 -11.484375 4.640625 -11.671875 C 4.554688 -11.867188 4.382812 -11.96875 4.125 -11.96875 C 3.632812 -11.96875 3.390625 -11.601562 3.390625 -10.875 L 3.390625 -3.796875 C 3.390625 -3.378906 3.441406 -3.0625 3.546875 -2.84375 C 3.648438 -2.632812 3.835938 -2.53125 4.109375 -2.53125 Z M 4.109375 -2.53125 "/></g></g></g><g fill="#8fff00" fill-opacity="1"><g transform="translate(498.569883, 24.595311)"><g><path d="M 4.09375 0.140625 C 2.769531 0.140625 1.816406 -0.1875 1.234375 -0.84375 C 0.648438 -1.5 0.359375 -2.550781 0.359375 -4 L 0.359375 -5.421875 L 3.203125 -5.421875 L 3.203125 -3.609375 C 3.203125 -2.890625 3.4375 -2.53125 3.90625 -2.53125 C 4.164062 -2.53125 4.34375 -2.601562 4.4375 -2.75 C 4.539062 -2.90625 4.59375 -3.164062 4.59375 -3.53125 C 4.59375 -4 4.535156 -4.390625 4.421875 -4.703125 C 4.304688 -5.015625 4.160156 -5.273438 3.984375 -5.484375 C 3.816406 -5.691406 3.507812 -6.015625 3.0625 -6.453125 L 1.8125 -7.703125 C 0.84375 -8.648438 0.359375 -9.695312 0.359375 -10.84375 C 0.359375 -12.082031 0.640625 -13.023438 1.203125 -13.671875 C 1.773438 -14.316406 2.609375 -14.640625 3.703125 -14.640625 C 5.003906 -14.640625 5.941406 -14.289062 6.515625 -13.59375 C 7.085938 -12.90625 7.375 -11.828125 7.375 -10.359375 L 4.421875 -10.359375 L 4.40625 -11.34375 C 4.40625 -11.539062 4.351562 -11.691406 4.25 -11.796875 C 4.144531 -11.910156 3.992188 -11.96875 3.796875 -11.96875 C 3.578125 -11.96875 3.410156 -11.90625 3.296875 -11.78125 C 3.179688 -11.664062 3.125 -11.5 3.125 -11.28125 C 3.125 -10.8125 3.394531 -10.320312 3.9375 -9.8125 L 5.625 -8.1875 C 6.019531 -7.8125 6.347656 -7.453125 6.609375 -7.109375 C 6.867188 -6.765625 7.078125 -6.359375 7.234375 -5.890625 C 7.390625 -5.421875 7.46875 -4.863281 7.46875 -4.21875 C 7.46875 -2.789062 7.203125 -1.707031 6.671875 -0.96875 C 6.148438 -0.226562 5.289062 0.140625 4.09375 0.140625 Z M 4.09375 0.140625 "/></g></g></g><g fill="#8fff00" fill-opacity="1"><g transform="translate(506.354302, 24.595311)"><g/></g></g><g fill="#8fff00" fill-opacity="1"><g transform="translate(510.305609, 24.595311)"><g><path d="M 4.015625 0.140625 C 2.960938 0.140625 2.117188 -0.191406 1.484375 -0.859375 C 0.847656 -1.523438 0.53125 -2.4375 0.53125 -3.59375 L 0.53125 -10.28125 C 0.53125 -11.726562 0.816406 -12.816406 1.390625 -13.546875 C 1.960938 -14.273438 2.863281 -14.640625 4.09375 -14.640625 C 5.15625 -14.640625 6.015625 -14.347656 6.671875 -13.765625 C 7.328125 -13.179688 7.65625 -12.335938 7.65625 -11.234375 L 7.65625 -8.734375 L 4.765625 -8.734375 L 4.765625 -10.875 C 4.765625 -11.289062 4.710938 -11.578125 4.609375 -11.734375 C 4.503906 -11.890625 4.332031 -11.96875 4.09375 -11.96875 C 3.832031 -11.96875 3.648438 -11.878906 3.546875 -11.703125 C 3.453125 -11.523438 3.40625 -11.257812 3.40625 -10.90625 L 3.40625 -3.625 C 3.40625 -3.25 3.460938 -2.972656 3.578125 -2.796875 C 3.691406 -2.617188 3.863281 -2.53125 4.09375 -2.53125 C 4.539062 -2.53125 4.765625 -2.894531 4.765625 -3.625 L 4.765625 -6.25 L 7.6875 -6.25 L 7.6875 -3.515625 C 7.6875 -1.078125 6.460938 0.140625 4.015625 0.140625 Z M 4.015625 0.140625 "/></g></g></g><g fill="#8fff00" fill-opacity="1"><g transform="translate(518.309552, 24.595311)"><g><path d="M 4.109375 0.140625 C 2.929688 0.140625 2.039062 -0.21875 1.4375 -0.9375 C 0.832031 -1.65625 0.53125 -2.660156 0.53125 -3.953125 L 0.53125 -10.859375 C 0.53125 -12.109375 0.832031 -13.050781 1.4375 -13.6875 C 2.039062 -14.320312 2.929688 -14.640625 4.109375 -14.640625 C 5.273438 -14.640625 6.160156 -14.320312 6.765625 -13.6875 C 7.378906 -13.050781 7.6875 -12.109375 7.6875 -10.859375 L 7.6875 -3.953125 C 7.6875 -2.648438 7.378906 -1.640625 6.765625 -0.921875 C 6.160156 -0.210938 5.273438 0.140625 4.109375 0.140625 Z M 4.109375 -2.53125 C 4.367188 -2.53125 4.539062 -2.640625 4.625 -2.859375 C 4.71875 -3.085938 4.765625 -3.40625 4.765625 -3.8125 L 4.765625 -10.90625 C 4.765625 -11.226562 4.722656 -11.484375 4.640625 -11.671875 C 4.554688 -11.867188 4.382812 -11.96875 4.125 -11.96875 C 3.632812 -11.96875 3.390625 -11.601562 3.390625 -10.875 L 3.390625 -3.796875 C 3.390625 -3.378906 3.441406 -3.0625 3.546875 -2.84375 C 3.648438 -2.632812 3.835938 -2.53125 4.109375 -2.53125 Z M 4.109375 -2.53125 "/></g></g></g><g fill="#8fff00" fill-opacity="1"><g transform="translate(526.51612, 24.595311)"><g><path d="M 0.640625 0 L 0.640625 -14.515625 L 3.625 -14.515625 L 4.96875 -7.5625 L 4.96875 -14.515625 L 7.765625 -14.515625 L 7.765625 0 L 4.9375 0 L 3.484375 -7.265625 L 3.484375 0 Z M 0.640625 0 "/></g></g></g><g fill="#8fff00" fill-opacity="1"><g transform="translate(534.925325, 24.595311)"><g/></g></g><g fill="#8fff00" fill-opacity="1"><g transform="translate(538.876632, 24.595311)"><g><path d="M 0.640625 0 L 0.640625 -14.515625 L 6.453125 -14.515625 L 6.453125 -11.703125 L 3.59375 -11.703125 L 3.59375 -8.890625 L 6.328125 -8.890625 L 6.328125 -6.140625 L 3.59375 -6.140625 L 3.59375 -2.828125 L 6.640625 -2.828125 L 6.640625 0 Z M 0.640625 0 "/></g></g></g><g fill="#8fff00" fill-opacity="1"><g transform="translate(545.83364, 24.595311)"><g><path d="M 0.640625 0 L 0.640625 -14.515625 L 3.546875 -14.515625 L 3.546875 -2.46875 L 6.53125 -2.46875 L 6.53125 0 Z M 0.640625 0 "/></g></g></g><g fill="#8fff00" fill-opacity="1"><g transform="translate(552.537358, 24.595311)"><g/></g></g><g fill="#8fff00" fill-opacity="1"><g transform="translate(556.488665, 24.595311)"><g><path d="M 4.09375 0.140625 C 2.769531 0.140625 1.816406 -0.1875 1.234375 -0.84375 C 0.648438 -1.5 0.359375 -2.550781 0.359375 -4 L 0.359375 -5.421875 L 3.203125 -5.421875 L 3.203125 -3.609375 C 3.203125 -2.890625 3.4375 -2.53125 3.90625 -2.53125 C 4.164062 -2.53125 4.34375 -2.601562 4.4375 -2.75 C 4.539062 -2.90625 4.59375 -3.164062 4.59375 -3.53125 C 4.59375 -4 4.535156 -4.390625 4.421875 -4.703125 C 4.304688 -5.015625 4.160156 -5.273438 3.984375 -5.484375 C 3.816406 -5.691406 3.507812 -6.015625 3.0625 -6.453125 L 1.8125 -7.703125 C 0.84375 -8.648438 0.359375 -9.695312 0.359375 -10.84375 C 0.359375 -12.082031 0.640625 -13.023438 1.203125 -13.671875 C 1.773438 -14.316406 2.609375 -14.640625 3.703125 -14.640625 C 5.003906 -14.640625 5.941406 -14.289062 6.515625 -13.59375 C 7.085938 -12.90625 7.375 -11.828125 7.375 -10.359375 L 4.421875 -10.359375 L 4.40625 -11.34375 C 4.40625 -11.539062 4.351562 -11.691406 4.25 -11.796875 C 4.144531 -11.910156 3.992188 -11.96875 3.796875 -11.96875 C 3.578125 -11.96875 3.410156 -11.90625 3.296875 -11.78125 C 3.179688 -11.664062 3.125 -11.5 3.125 -11.28125 C 3.125 -10.8125 3.394531 -10.320312 3.9375 -9.8125 L 5.625 -8.1875 C 6.019531 -7.8125 6.347656 -7.453125 6.609375 -7.109375 C 6.867188 -6.765625 7.078125 -6.359375 7.234375 -5.890625 C 7.390625 -5.421875 7.46875 -4.863281 7.46875 -4.21875 C 7.46875 -2.789062 7.203125 -1.707031 6.671875 -0.96875 C 6.148438 -0.226562 5.289062 0.140625 4.09375 0.140625 Z M 4.09375 0.140625 "/></g></g></g><g fill="#8fff00" fill-opacity="1"><g transform="translate(564.273083, 24.595311)"><g><path d="M 1.890625 0 L 1.890625 -11.71875 L 0.171875 -11.71875 L 0.171875 -14.515625 L 6.515625 -14.515625 L 6.515625 -11.71875 L 4.796875 -11.71875 L 4.796875 0 Z M 1.890625 0 "/></g></g></g><g fill="#8fff00" fill-opacity="1"><g transform="translate(570.959924, 24.595311)"><g><path d="M 0.25 0 L 1.65625 -14.515625 L 6.578125 -14.515625 L 7.953125 0 L 5.203125 0 L 5 -2.34375 L 3.25 -2.34375 L 3.078125 0 Z M 3.46875 -4.65625 L 4.78125 -4.65625 L 4.140625 -12.046875 L 4 -12.046875 Z M 3.46875 -4.65625 "/></g></g></g><g fill="#8fff00" fill-opacity="1"><g transform="translate(579.149604, 24.595311)"><g><path d="M 1.890625 0 L 1.890625 -11.71875 L 0.171875 -11.71875 L 0.171875 -14.515625 L 6.515625 -14.515625 L 6.515625 -11.71875 L 4.796875 -11.71875 L 4.796875 0 Z M 1.890625 0 "/></g></g></g><g fill="#8fff00" fill-opacity="1"><g transform="translate(585.836445, 24.595311)"><g><path d="M 4 0.140625 C 2.8125 0.140625 1.925781 -0.195312 1.34375 -0.875 C 0.757812 -1.550781 0.46875 -2.554688 0.46875 -3.890625 L 0.46875 -14.515625 L 3.296875 -14.515625 L 3.296875 -4 C 3.296875 -3.539062 3.335938 -3.179688 3.421875 -2.921875 C 3.515625 -2.660156 3.707031 -2.53125 4 -2.53125 C 4.289062 -2.53125 4.484375 -2.65625 4.578125 -2.90625 C 4.671875 -3.164062 4.71875 -3.53125 4.71875 -4 L 4.71875 -14.515625 L 7.53125 -14.515625 L 7.53125 -3.890625 C 7.53125 -2.554688 7.238281 -1.550781 6.65625 -0.875 C 6.082031 -0.195312 5.195312 0.140625 4 0.140625 Z M 4 0.140625 "/></g></g></g><g fill="#8fff00" fill-opacity="1"><g transform="translate(593.840389, 24.595311)"><g><path d="M 4.09375 0.140625 C 2.769531 0.140625 1.816406 -0.1875 1.234375 -0.84375 C 0.648438 -1.5 0.359375 -2.550781 0.359375 -4 L 0.359375 -5.421875 L 3.203125 -5.421875 L 3.203125 -3.609375 C 3.203125 -2.890625 3.4375 -2.53125 3.90625 -2.53125 C 4.164062 -2.53125 4.34375 -2.601562 4.4375 -2.75 C 4.539062 -2.90625 4.59375 -3.164062 4.59375 -3.53125 C 4.59375 -4 4.535156 -4.390625 4.421875 -4.703125 C 4.304688 -5.015625 4.160156 -5.273438 3.984375 -5.484375 C 3.816406 -5.691406 3.507812 -6.015625 3.0625 -6.453125 L 1.8125 -7.703125 C 0.84375 -8.648438 0.359375 -9.695312 0.359375 -10.84375 C 0.359375 -12.082031 0.640625 -13.023438 1.203125 -13.671875 C 1.773438 -14.316406 2.609375 -14.640625 3.703125 -14.640625 C 5.003906 -14.640625 5.941406 -14.289062 6.515625 -13.59375 C 7.085938 -12.90625 7.375 -11.828125 7.375 -10.359375 L 4.421875 -10.359375 L 4.40625 -11.34375 C 4.40625 -11.539062 4.351562 -11.691406 4.25 -11.796875 C 4.144531 -11.910156 3.992188 -11.96875 3.796875 -11.96875 C 3.578125 -11.96875 3.410156 -11.90625 3.296875 -11.78125 C 3.179688 -11.664062 3.125 -11.5 3.125 -11.28125 C 3.125 -10.8125 3.394531 -10.320312 3.9375 -9.8125 L 5.625 -8.1875 C 6.019531 -7.8125 6.347656 -7.453125 6.609375 -7.109375 C 6.867188 -6.765625 7.078125 -6.359375 7.234375 -5.890625 C 7.390625 -5.421875 7.46875 -4.863281 7.46875 -4.21875 C 7.46875 -2.789062 7.203125 -1.707031 6.671875 -0.96875 C 6.148438 -0.226562 5.289062 0.140625 4.09375 0.140625 Z M 4.09375 0.140625 "/></g></g></g><g fill="#8fff00" fill-opacity="1"><g transform="translate(601.624807, 24.595311)"><g/></g></g><g fill="#8fff00" fill-opacity="1"><g transform="translate(605.576114, 24.595311)"><g><path d="M 4.75 0.015625 C 4.320312 0.0976562 4.078125 0.140625 4.015625 0.140625 C 2.847656 0.140625 1.957031 -0.191406 1.34375 -0.859375 C 0.738281 -1.535156 0.4375 -2.519531 0.4375 -3.8125 L 0.4375 -10.828125 C 0.4375 -12.078125 0.742188 -13.023438 1.359375 -13.671875 C 1.972656 -14.316406 2.859375 -14.640625 4.015625 -14.640625 C 5.179688 -14.640625 6.066406 -14.316406 6.671875 -13.671875 C 7.285156 -13.023438 7.59375 -12.078125 7.59375 -10.828125 L 7.59375 -3.8125 C 7.59375 -2.625 7.328125 -1.679688 6.796875 -0.984375 L 8.046875 -0.1875 L 7.0625 1.53125 Z M 4.015625 -2.53125 C 4.296875 -2.53125 4.472656 -2.664062 4.546875 -2.9375 C 4.628906 -3.207031 4.671875 -3.554688 4.671875 -3.984375 L 4.671875 -10.78125 C 4.671875 -11.144531 4.625 -11.429688 4.53125 -11.640625 C 4.4375 -11.859375 4.257812 -11.96875 4 -11.96875 C 3.539062 -11.96875 3.3125 -11.578125 3.3125 -10.796875 L 3.3125 -3.9375 C 3.3125 -3.53125 3.351562 -3.191406 3.4375 -2.921875 C 3.53125 -2.660156 3.722656 -2.53125 4.015625 -2.53125 Z M 4.015625 -2.53125 "/></g></g></g><g fill="#8fff00" fill-opacity="1"><g transform="translate(613.917777, 24.595311)"><g><path d="M 4 0.140625 C 2.8125 0.140625 1.925781 -0.195312 1.34375 -0.875 C 0.757812 -1.550781 0.46875 -2.554688 0.46875 -3.890625 L 0.46875 -14.515625 L 3.296875 -14.515625 L 3.296875 -4 C 3.296875 -3.539062 3.335938 -3.179688 3.421875 -2.921875 C 3.515625 -2.660156 3.707031 -2.53125 4 -2.53125 C 4.289062 -2.53125 4.484375 -2.65625 4.578125 -2.90625 C 4.671875 -3.164062 4.71875 -3.53125 4.71875 -4 L 4.71875 -14.515625 L 7.53125 -14.515625 L 7.53125 -3.890625 C 7.53125 -2.554688 7.238281 -1.550781 6.65625 -0.875 C 6.082031 -0.195312 5.195312 0.140625 4 0.140625 Z M 4 0.140625 "/></g></g></g><g fill="#8fff00" fill-opacity="1"><g transform="translate(621.921721, 24.595311)"><g><path d="M 4.109375 0.140625 C 2.929688 0.140625 2.039062 -0.21875 1.4375 -0.9375 C 0.832031 -1.65625 0.53125 -2.660156 0.53125 -3.953125 L 0.53125 -10.859375 C 0.53125 -12.109375 0.832031 -13.050781 1.4375 -13.6875 C 2.039062 -14.320312 2.929688 -14.640625 4.109375 -14.640625 C 5.273438 -14.640625 6.160156 -14.320312 6.765625 -13.6875 C 7.378906 -13.050781 7.6875 -12.109375 7.6875 -10.859375 L 7.6875 -3.953125 C 7.6875 -2.648438 7.378906 -1.640625 6.765625 -0.921875 C 6.160156 -0.210938 5.273438 0.140625 4.109375 0.140625 Z M 4.109375 -2.53125 C 4.367188 -2.53125 4.539062 -2.640625 4.625 -2.859375 C 4.71875 -3.085938 4.765625 -3.40625 4.765625 -3.8125 L 4.765625 -10.90625 C 4.765625 -11.226562 4.722656 -11.484375 4.640625 -11.671875 C 4.554688 -11.867188 4.382812 -11.96875 4.125 -11.96875 C 3.632812 -11.96875 3.390625 -11.601562 3.390625 -10.875 L 3.390625 -3.796875 C 3.390625 -3.378906 3.441406 -3.0625 3.546875 -2.84375 C 3.648438 -2.632812 3.835938 -2.53125 4.109375 -2.53125 Z M 4.109375 -2.53125 "/></g></g></g><g fill="#8fff00" fill-opacity="1"><g transform="translate(630.139821, 24.595311)"><g/></g></g><g fill="#8fff00" fill-opacity="1"><g transform="translate(634.091128, 24.595311)"><g/></g></g><g fill="#8fff00" fill-opacity="1"><g transform="translate(638.042434, 24.595311)"><g/></g></g><g fill="#8fff00" fill-opacity="1"><g transform="translate(641.993741, 24.595311)"><g/></g></g><g fill="#8fff00" fill-opacity="1"><g transform="translate(645.945048, 24.595311)"><g/></g></g><g fill="#8fff00" fill-opacity="1"><g transform="translate(649.902242, 24.595311)"><g><path d="M 0.640625 -14.515625 L 4.640625 -14.515625 C 5.679688 -14.515625 6.457031 -14.222656 6.96875 -13.640625 C 7.488281 -13.066406 7.753906 -12.21875 7.765625 -11.09375 L 7.796875 -4.3125 C 7.816406 -2.875 7.570312 -1.796875 7.0625 -1.078125 C 6.550781 -0.359375 5.710938 0 4.546875 0 L 0.640625 0 Z M 4.078125 -2.5625 C 4.597656 -2.5625 4.859375 -2.820312 4.859375 -3.34375 L 4.859375 -10.828125 C 4.859375 -11.148438 4.832031 -11.394531 4.78125 -11.5625 C 4.738281 -11.726562 4.648438 -11.835938 4.515625 -11.890625 C 4.378906 -11.941406 4.171875 -11.96875 3.890625 -11.96875 L 3.5625 -11.96875 L 3.5625 -2.5625 Z M 4.078125 -2.5625 "/></g></g></g><g fill="#8fff00" fill-opacity="1"><g transform="translate(658.227017, 24.595311)"><g><path d="M 0.5 0 L 0.5 -14.515625 L 3.3125 -14.515625 L 3.3125 0 Z M 0.5 0 "/></g></g></g><g fill="#8fff00" fill-opacity="1"><g transform="translate(662.060129, 24.595311)"><g><path d="M 0.640625 0 L 0.640625 -14.515625 L 3.546875 -14.515625 L 3.546875 -2.46875 L 6.53125 -2.46875 L 6.53125 0 Z M 0.640625 0 "/></g></g></g><g fill="#8fff00" fill-opacity="1"><g transform="translate(668.763847, 24.595311)"><g><path d="M 0.640625 0 L 0.640625 -14.515625 L 6.453125 -14.515625 L 6.453125 -11.703125 L 3.59375 -11.703125 L 3.59375 -8.890625 L 6.328125 -8.890625 L 6.328125 -6.140625 L 3.59375 -6.140625 L 3.59375 -2.828125 L 6.640625 -2.828125 L 6.640625 0 Z M 0.640625 0 "/></g></g></g><g fill="#8fff00" fill-opacity="1"><g transform="translate(675.720855, 24.595311)"><g/></g></g><g fill="#8fff00" fill-opacity="1"><g transform="translate(679.672161, 24.595311)"><g><path d="M 0.25 0 L 1.65625 -14.515625 L 6.578125 -14.515625 L 7.953125 0 L 5.203125 0 L 5 -2.34375 L 3.25 -2.34375 L 3.078125 0 Z M 3.46875 -4.65625 L 4.78125 -4.65625 L 4.140625 -12.046875 L 4 -12.046875 Z M 3.46875 -4.65625 "/></g></g></g><g fill="#8fff00" fill-opacity="1"><g transform="translate(687.861842, 24.595311)"><g><path d="M 0.640625 -14.515625 L 4.640625 -14.515625 C 5.679688 -14.515625 6.457031 -14.222656 6.96875 -13.640625 C 7.488281 -13.066406 7.753906 -12.21875 7.765625 -11.09375 L 7.796875 -4.3125 C 7.816406 -2.875 7.570312 -1.796875 7.0625 -1.078125 C 6.550781 -0.359375 5.710938 0 4.546875 0 L 0.640625 0 Z M 4.078125 -2.5625 C 4.597656 -2.5625 4.859375 -2.820312 4.859375 -3.34375 L 4.859375 -10.828125 C 4.859375 -11.148438 4.832031 -11.394531 4.78125 -11.5625 C 4.738281 -11.726562 4.648438 -11.835938 4.515625 -11.890625 C 4.378906 -11.941406 4.171875 -11.96875 3.890625 -11.96875 L 3.5625 -11.96875 L 3.5625 -2.5625 Z M 4.078125 -2.5625 "/></g></g></g><g fill="#8fff00" fill-opacity="1"><g transform="translate(696.186616, 24.595311)"><g><path d="M 0.5 0 L 0.5 -14.515625 L 3.3125 -14.515625 L 3.3125 0 Z M 0.5 0 "/></g></g></g><g fill="#8fff00" fill-opacity="1"><g transform="translate(700.019728, 24.595311)"><g><path d="M 4.109375 0.140625 C 2.929688 0.140625 2.039062 -0.21875 1.4375 -0.9375 C 0.832031 -1.65625 0.53125 -2.660156 0.53125 -3.953125 L 0.53125 -10.859375 C 0.53125 -12.109375 0.832031 -13.050781 1.4375 -13.6875 C 2.039062 -14.320312 2.929688 -14.640625 4.109375 -14.640625 C 5.273438 -14.640625 6.160156 -14.320312 6.765625 -13.6875 C 7.378906 -13.050781 7.6875 -12.109375 7.6875 -10.859375 L 7.6875 -3.953125 C 7.6875 -2.648438 7.378906 -1.640625 6.765625 -0.921875 C 6.160156 -0.210938 5.273438 0.140625 4.109375 0.140625 Z M 4.109375 -2.53125 C 4.367188 -2.53125 4.539062 -2.640625 4.625 -2.859375 C 4.71875 -3.085938 4.765625 -3.40625 4.765625 -3.8125 L 4.765625 -10.90625 C 4.765625 -11.226562 4.722656 -11.484375 4.640625 -11.671875 C 4.554688 -11.867188 4.382812 -11.96875 4.125 -11.96875 C 3.632812 -11.96875 3.390625 -11.601562 3.390625 -10.875 L 3.390625 -3.796875 C 3.390625 -3.378906 3.441406 -3.0625 3.546875 -2.84375 C 3.648438 -2.632812 3.835938 -2.53125 4.109375 -2.53125 Z M 2.15625 -14.9375 L 2.15625 -16.78125 L 6.0625 -18.59375 L 6.0625 -15.71875 Z M 2.15625 -14.9375 "/></g></g></g><g fill="#8fff00" fill-opacity="1"><g transform="translate(708.226296, 24.595311)"><g><path d="M 4.09375 0.140625 C 2.769531 0.140625 1.816406 -0.1875 1.234375 -0.84375 C 0.648438 -1.5 0.359375 -2.550781 0.359375 -4 L 0.359375 -5.421875 L 3.203125 -5.421875 L 3.203125 -3.609375 C 3.203125 -2.890625 3.4375 -2.53125 3.90625 -2.53125 C 4.164062 -2.53125 4.34375 -2.601562 4.4375 -2.75 C 4.539062 -2.90625 4.59375 -3.164062 4.59375 -3.53125 C 4.59375 -4 4.535156 -4.390625 4.421875 -4.703125 C 4.304688 -5.015625 4.160156 -5.273438 3.984375 -5.484375 C 3.816406 -5.691406 3.507812 -6.015625 3.0625 -6.453125 L 1.8125 -7.703125 C 0.84375 -8.648438 0.359375 -9.695312 0.359375 -10.84375 C 0.359375 -12.082031 0.640625 -13.023438 1.203125 -13.671875 C 1.773438 -14.316406 2.609375 -14.640625 3.703125 -14.640625 C 5.003906 -14.640625 5.941406 -14.289062 6.515625 -13.59375 C 7.085938 -12.90625 7.375 -11.828125 7.375 -10.359375 L 4.421875 -10.359375 L 4.40625 -11.34375 C 4.40625 -11.539062 4.351562 -11.691406 4.25 -11.796875 C 4.144531 -11.910156 3.992188 -11.96875 3.796875 -11.96875 C 3.578125 -11.96875 3.410156 -11.90625 3.296875 -11.78125 C 3.179688 -11.664062 3.125 -11.5 3.125 -11.28125 C 3.125 -10.8125 3.394531 -10.320312 3.9375 -9.8125 L 5.625 -8.1875 C 6.019531 -7.8125 6.347656 -7.453125 6.609375 -7.109375 C 6.867188 -6.765625 7.078125 -6.359375 7.234375 -5.890625 C 7.390625 -5.421875 7.46875 -4.863281 7.46875 -4.21875 C 7.46875 -2.789062 7.203125 -1.707031 6.671875 -0.96875 C 6.148438 -0.226562 5.289062 0.140625 4.09375 0.140625 Z M 4.09375 0.140625 "/></g></g></g><g fill="#8fff00" fill-opacity="1"><g transform="translate(716.010715, 24.595311)"><g/></g></g><g fill="#8fff00" fill-opacity="1"><g transform="translate(719.962022, 24.595311)"><g><path d="M 0.25 0 L 1.65625 -14.515625 L 6.578125 -14.515625 L 7.953125 0 L 5.203125 0 L 5 -2.34375 L 3.25 -2.34375 L 3.078125 0 Z M 3.46875 -4.65625 L 4.78125 -4.65625 L 4.140625 -12.046875 L 4 -12.046875 Z M 3.46875 -4.65625 "/></g></g></g><g fill="#8fff00" fill-opacity="1"><g transform="translate(728.151702, 24.595311)"><g/></g></g><g fill="#8fff00" fill-opacity="1"><g transform="translate(732.103009, 24.595311)"><g><path d="M 0.640625 0 L 0.640625 -14.515625 L 3.546875 -14.515625 L 3.546875 -2.46875 L 6.53125 -2.46875 L 6.53125 0 Z M 0.640625 0 "/></g></g></g><g fill="#8fff00" fill-opacity="1"><g transform="translate(738.806727, 24.595311)"><g><path d="M 4.109375 0.140625 C 2.929688 0.140625 2.039062 -0.21875 1.4375 -0.9375 C 0.832031 -1.65625 0.53125 -2.660156 0.53125 -3.953125 L 0.53125 -10.859375 C 0.53125 -12.109375 0.832031 -13.050781 1.4375 -13.6875 C 2.039062 -14.320312 2.929688 -14.640625 4.109375 -14.640625 C 5.273438 -14.640625 6.160156 -14.320312 6.765625 -13.6875 C 7.378906 -13.050781 7.6875 -12.109375 7.6875 -10.859375 L 7.6875 -3.953125 C 7.6875 -2.648438 7.378906 -1.640625 6.765625 -0.921875 C 6.160156 -0.210938 5.273438 0.140625 4.109375 0.140625 Z M 4.109375 -2.53125 C 4.367188 -2.53125 4.539062 -2.640625 4.625 -2.859375 C 4.71875 -3.085938 4.765625 -3.40625 4.765625 -3.8125 L 4.765625 -10.90625 C 4.765625 -11.226562 4.722656 -11.484375 4.640625 -11.671875 C 4.554688 -11.867188 4.382812 -11.96875 4.125 -11.96875 C 3.632812 -11.96875 3.390625 -11.601562 3.390625 -10.875 L 3.390625 -3.796875 C 3.390625 -3.378906 3.441406 -3.0625 3.546875 -2.84375 C 3.648438 -2.632812 3.835938 -2.53125 4.109375 -2.53125 Z M 4.109375 -2.53125 "/></g></g></g><g fill="#8fff00" fill-opacity="1"><g transform="translate(747.013295, 24.595311)"><g><path d="M 4.09375 0.140625 C 2.769531 0.140625 1.816406 -0.1875 1.234375 -0.84375 C 0.648438 -1.5 0.359375 -2.550781 0.359375 -4 L 0.359375 -5.421875 L 3.203125 -5.421875 L 3.203125 -3.609375 C 3.203125 -2.890625 3.4375 -2.53125 3.90625 -2.53125 C 4.164062 -2.53125 4.34375 -2.601562 4.4375 -2.75 C 4.539062 -2.90625 4.59375 -3.164062 4.59375 -3.53125 C 4.59375 -4 4.535156 -4.390625 4.421875 -4.703125 C 4.304688 -5.015625 4.160156 -5.273438 3.984375 -5.484375 C 3.816406 -5.691406 3.507812 -6.015625 3.0625 -6.453125 L 1.8125 -7.703125 C 0.84375 -8.648438 0.359375 -9.695312 0.359375 -10.84375 C 0.359375 -12.082031 0.640625 -13.023438 1.203125 -13.671875 C 1.773438 -14.316406 2.609375 -14.640625 3.703125 -14.640625 C 5.003906 -14.640625 5.941406 -14.289062 6.515625 -13.59375 C 7.085938 -12.90625 7.375 -11.828125 7.375 -10.359375 L 4.421875 -10.359375 L 4.40625 -11.34375 C 4.40625 -11.539062 4.351562 -11.691406 4.25 -11.796875 C 4.144531 -11.910156 3.992188 -11.96875 3.796875 -11.96875 C 3.578125 -11.96875 3.410156 -11.90625 3.296875 -11.78125 C 3.179688 -11.664062 3.125 -11.5 3.125 -11.28125 C 3.125 -10.8125 3.394531 -10.320312 3.9375 -9.8125 L 5.625 -8.1875 C 6.019531 -7.8125 6.347656 -7.453125 6.609375 -7.109375 C 6.867188 -6.765625 7.078125 -6.359375 7.234375 -5.890625 C 7.390625 -5.421875 7.46875 -4.863281 7.46875 -4.21875 C 7.46875 -2.789062 7.203125 -1.707031 6.671875 -0.96875 C 6.148438 -0.226562 5.289062 0.140625 4.09375 0.140625 Z M 4.09375 0.140625 "/></g></g></g><g fill="#8fff00" fill-opacity="1"><g transform="translate(754.797714, 24.595311)"><g/></g></g><g fill="#8fff00" fill-opacity="1"><g transform="translate(758.749021, 24.595311)"><g><path d="M 4.09375 0.140625 C 2.769531 0.140625 1.816406 -0.1875 1.234375 -0.84375 C 0.648438 -1.5 0.359375 -2.550781 0.359375 -4 L 0.359375 -5.421875 L 3.203125 -5.421875 L 3.203125 -3.609375 C 3.203125 -2.890625 3.4375 -2.53125 3.90625 -2.53125 C 4.164062 -2.53125 4.34375 -2.601562 4.4375 -2.75 C 4.539062 -2.90625 4.59375 -3.164062 4.59375 -3.53125 C 4.59375 -4 4.535156 -4.390625 4.421875 -4.703125 C 4.304688 -5.015625 4.160156 -5.273438 3.984375 -5.484375 C 3.816406 -5.691406 3.507812 -6.015625 3.0625 -6.453125 L 1.8125 -7.703125 C 0.84375 -8.648438 0.359375 -9.695312 0.359375 -10.84375 C 0.359375 -12.082031 0.640625 -13.023438 1.203125 -13.671875 C 1.773438 -14.316406 2.609375 -14.640625 3.703125 -14.640625 C 5.003906 -14.640625 5.941406 -14.289062 6.515625 -13.59375 C 7.085938 -12.90625 7.375 -11.828125 7.375 -10.359375 L 4.421875 -10.359375 L 4.40625 -11.34375 C 4.40625 -11.539062 4.351562 -11.691406 4.25 -11.796875 C 4.144531 -11.910156 3.992188 -11.96875 3.796875 -11.96875 C 3.578125 -11.96875 3.410156 -11.90625 3.296875 -11.78125 C 3.179688 -11.664062 3.125 -11.5 3.125 -11.28125 C 3.125 -10.8125 3.394531 -10.320312 3.9375 -9.8125 L 5.625 -8.1875 C 6.019531 -7.8125 6.347656 -7.453125 6.609375 -7.109375 C 6.867188 -6.765625 7.078125 -6.359375 7.234375 -5.890625 C 7.390625 -5.421875 7.46875 -4.863281 7.46875 -4.21875 C 7.46875 -2.789062 7.203125 -1.707031 6.671875 -0.96875 C 6.148438 -0.226562 5.289062 0.140625 4.09375 0.140625 Z M 4.09375 0.140625 "/></g></g></g><g fill="#8fff00" fill-opacity="1"><g transform="translate(766.53344, 24.595311)"><g><path d="M 0.640625 0 L 0.640625 -14.515625 L 6.453125 -14.515625 L 6.453125 -11.703125 L 3.59375 -11.703125 L 3.59375 -8.890625 L 6.328125 -8.890625 L 6.328125 -6.140625 L 3.59375 -6.140625 L 3.59375 -2.828125 L 6.640625 -2.828125 L 6.640625 0 Z M 0.640625 0 "/></g></g></g><g fill="#8fff00" fill-opacity="1"><g transform="translate(773.490447, 24.595311)"><g><path d="M 4.09375 0.140625 C 2.769531 0.140625 1.816406 -0.1875 1.234375 -0.84375 C 0.648438 -1.5 0.359375 -2.550781 0.359375 -4 L 0.359375 -5.421875 L 3.203125 -5.421875 L 3.203125 -3.609375 C 3.203125 -2.890625 3.4375 -2.53125 3.90625 -2.53125 C 4.164062 -2.53125 4.34375 -2.601562 4.4375 -2.75 C 4.539062 -2.90625 4.59375 -3.164062 4.59375 -3.53125 C 4.59375 -4 4.535156 -4.390625 4.421875 -4.703125 C 4.304688 -5.015625 4.160156 -5.273438 3.984375 -5.484375 C 3.816406 -5.691406 3.507812 -6.015625 3.0625 -6.453125 L 1.8125 -7.703125 C 0.84375 -8.648438 0.359375 -9.695312 0.359375 -10.84375 C 0.359375 -12.082031 0.640625 -13.023438 1.203125 -13.671875 C 1.773438 -14.316406 2.609375 -14.640625 3.703125 -14.640625 C 5.003906 -14.640625 5.941406 -14.289062 6.515625 -13.59375 C 7.085938 -12.90625 7.375 -11.828125 7.375 -10.359375 L 4.421875 -10.359375 L 4.40625 -11.34375 C 4.40625 -11.539062 4.351562 -11.691406 4.25 -11.796875 C 4.144531 -11.910156 3.992188 -11.96875 3.796875 -11.96875 C 3.578125 -11.96875 3.410156 -11.90625 3.296875 -11.78125 C 3.179688 -11.664062 3.125 -11.5 3.125 -11.28125 C 3.125 -10.8125 3.394531 -10.320312 3.9375 -9.8125 L 5.625 -8.1875 C 6.019531 -7.8125 6.347656 -7.453125 6.609375 -7.109375 C 6.867188 -6.765625 7.078125 -6.359375 7.234375 -5.890625 C 7.390625 -5.421875 7.46875 -4.863281 7.46875 -4.21875 C 7.46875 -2.789062 7.203125 -1.707031 6.671875 -0.96875 C 6.148438 -0.226562 5.289062 0.140625 4.09375 0.140625 Z M 4.09375 0.140625 "/></g></g></g><g fill="#8fff00" fill-opacity="1"><g transform="translate(781.274866, 24.595311)"><g><path d="M 3.625 0.140625 C 2.582031 0.140625 1.804688 -0.226562 1.296875 -0.96875 C 0.785156 -1.707031 0.53125 -2.828125 0.53125 -4.328125 L 0.53125 -10.578125 C 0.53125 -11.910156 0.828125 -12.921875 1.421875 -13.609375 C 2.015625 -14.296875 2.90625 -14.640625 4.09375 -14.640625 C 5.039062 -14.640625 5.78125 -14.445312 6.3125 -14.0625 C 6.84375 -13.6875 7.207031 -13.128906 7.40625 -12.390625 C 7.613281 -11.660156 7.71875 -10.722656 7.71875 -9.578125 L 4.875 -9.578125 L 4.875 -10.875 C 4.875 -11.226562 4.828125 -11.5 4.734375 -11.6875 C 4.640625 -11.875 4.46875 -11.96875 4.21875 -11.96875 C 3.664062 -11.96875 3.390625 -11.609375 3.390625 -10.890625 L 3.390625 -3.875 C 3.390625 -3.425781 3.445312 -3.085938 3.5625 -2.859375 C 3.675781 -2.640625 3.875 -2.53125 4.15625 -2.53125 C 4.4375 -2.53125 4.632812 -2.640625 4.75 -2.859375 C 4.863281 -3.085938 4.921875 -3.425781 4.921875 -3.875 L 4.921875 -5.953125 L 4.140625 -5.953125 L 4.140625 -8.4375 L 7.6875 -8.4375 L 7.6875 0 L 6.515625 0 L 6.03125 -1.21875 C 5.507812 -0.3125 4.707031 0.140625 3.625 0.140625 Z M 3.625 0.140625 "/></g></g></g><g fill="#8fff00" fill-opacity="1"><g transform="translate(789.464546, 24.595311)"><g><path d="M 4.109375 0.140625 C 2.929688 0.140625 2.039062 -0.21875 1.4375 -0.9375 C 0.832031 -1.65625 0.53125 -2.660156 0.53125 -3.953125 L 0.53125 -10.859375 C 0.53125 -12.109375 0.832031 -13.050781 1.4375 -13.6875 C 2.039062 -14.320312 2.929688 -14.640625 4.109375 -14.640625 C 5.273438 -14.640625 6.160156 -14.320312 6.765625 -13.6875 C 7.378906 -13.050781 7.6875 -12.109375 7.6875 -10.859375 L 7.6875 -3.953125 C 7.6875 -2.648438 7.378906 -1.640625 6.765625 -0.921875 C 6.160156 -0.210938 5.273438 0.140625 4.109375 0.140625 Z M 4.109375 -2.53125 C 4.367188 -2.53125 4.539062 -2.640625 4.625 -2.859375 C 4.71875 -3.085938 4.765625 -3.40625 4.765625 -3.8125 L 4.765625 -10.90625 C 4.765625 -11.226562 4.722656 -11.484375 4.640625 -11.671875 C 4.554688 -11.867188 4.382812 -11.96875 4.125 -11.96875 C 3.632812 -11.96875 3.390625 -11.601562 3.390625 -10.875 L 3.390625 -3.796875 C 3.390625 -3.378906 3.441406 -3.0625 3.546875 -2.84375 C 3.648438 -2.632812 3.835938 -2.53125 4.109375 -2.53125 Z M 4.109375 -2.53125 "/></g></g></g><g fill="#8fff00" fill-opacity="1"><g transform="translate(797.671114, 24.595311)"><g><path d="M 4.09375 0.140625 C 2.769531 0.140625 1.816406 -0.1875 1.234375 -0.84375 C 0.648438 -1.5 0.359375 -2.550781 0.359375 -4 L 0.359375 -5.421875 L 3.203125 -5.421875 L 3.203125 -3.609375 C 3.203125 -2.890625 3.4375 -2.53125 3.90625 -2.53125 C 4.164062 -2.53125 4.34375 -2.601562 4.4375 -2.75 C 4.539062 -2.90625 4.59375 -3.164062 4.59375 -3.53125 C 4.59375 -4 4.535156 -4.390625 4.421875 -4.703125 C 4.304688 -5.015625 4.160156 -5.273438 3.984375 -5.484375 C 3.816406 -5.691406 3.507812 -6.015625 3.0625 -6.453125 L 1.8125 -7.703125 C 0.84375 -8.648438 0.359375 -9.695312 0.359375 -10.84375 C 0.359375 -12.082031 0.640625 -13.023438 1.203125 -13.671875 C 1.773438 -14.316406 2.609375 -14.640625 3.703125 -14.640625 C 5.003906 -14.640625 5.941406 -14.289062 6.515625 -13.59375 C 7.085938 -12.90625 7.375 -11.828125 7.375 -10.359375 L 4.421875 -10.359375 L 4.40625 -11.34375 C 4.40625 -11.539062 4.351562 -11.691406 4.25 -11.796875 C 4.144531 -11.910156 3.992188 -11.96875 3.796875 -11.96875 C 3.578125 -11.96875 3.410156 -11.90625 3.296875 -11.78125 C 3.179688 -11.664062 3.125 -11.5 3.125 -11.28125 C 3.125 -10.8125 3.394531 -10.320312 3.9375 -9.8125 L 5.625 -8.1875 C 6.019531 -7.8125 6.347656 -7.453125 6.609375 -7.109375 C 6.867188 -6.765625 7.078125 -6.359375 7.234375 -5.890625 C 7.390625 -5.421875 7.46875 -4.863281 7.46875 -4.21875 C 7.46875 -2.789062 7.203125 -1.707031 6.671875 -0.96875 C 6.148438 -0.226562 5.289062 0.140625 4.09375 0.140625 Z M 4.09375 0.140625 "/></g></g></g><g fill="#8fff00" fill-opacity="1"><g transform="translate(805.462925, 24.595311)"><g/></g></g><g fill="#8fff00" fill-opacity="1"><g transform="translate(809.414232, 24.595311)"><g/></g></g><g fill="#8fff00" fill-opacity="1"><g transform="translate(813.365539, 24.595311)"><g/></g></g><g fill="#8fff00" fill-opacity="1"><g transform="translate(817.316846, 24.595311)"><g/></g></g><g fill="#8fff00" fill-opacity="1"><g transform="translate(821.268153, 24.595311)"><g/></g></g><g fill="#8fff00" fill-opacity="1"><g transform="translate(825.225354, 24.595311)"><g><path d="M 4.015625 0.140625 C 2.960938 0.140625 2.117188 -0.191406 1.484375 -0.859375 C 0.847656 -1.523438 0.53125 -2.4375 0.53125 -3.59375 L 0.53125 -10.28125 C 0.53125 -11.726562 0.816406 -12.816406 1.390625 -13.546875 C 1.960938 -14.273438 2.863281 -14.640625 4.09375 -14.640625 C 5.15625 -14.640625 6.015625 -14.347656 6.671875 -13.765625 C 7.328125 -13.179688 7.65625 -12.335938 7.65625 -11.234375 L 7.65625 -8.734375 L 4.765625 -8.734375 L 4.765625 -10.875 C 4.765625 -11.289062 4.710938 -11.578125 4.609375 -11.734375 C 4.503906 -11.890625 4.332031 -11.96875 4.09375 -11.96875 C 3.832031 -11.96875 3.648438 -11.878906 3.546875 -11.703125 C 3.453125 -11.523438 3.40625 -11.257812 3.40625 -10.90625 L 3.40625 -3.625 C 3.40625 -3.25 3.460938 -2.972656 3.578125 -2.796875 C 3.691406 -2.617188 3.863281 -2.53125 4.09375 -2.53125 C 4.539062 -2.53125 4.765625 -2.894531 4.765625 -3.625 L 4.765625 -6.25 L 7.6875 -6.25 L 7.6875 -3.515625 C 7.6875 -1.078125 6.460938 0.140625 4.015625 0.140625 Z M 4.015625 0.140625 "/></g></g></g><g fill="#8fff00" fill-opacity="1"><g transform="translate(833.229298, 24.595311)"><g><path d="M 4.109375 0.140625 C 2.929688 0.140625 2.039062 -0.21875 1.4375 -0.9375 C 0.832031 -1.65625 0.53125 -2.660156 0.53125 -3.953125 L 0.53125 -10.859375 C 0.53125 -12.109375 0.832031 -13.050781 1.4375 -13.6875 C 2.039062 -14.320312 2.929688 -14.640625 4.109375 -14.640625 C 5.273438 -14.640625 6.160156 -14.320312 6.765625 -13.6875 C 7.378906 -13.050781 7.6875 -12.109375 7.6875 -10.859375 L 7.6875 -3.953125 C 7.6875 -2.648438 7.378906 -1.640625 6.765625 -0.921875 C 6.160156 -0.210938 5.273438 0.140625 4.109375 0.140625 Z M 4.109375 -2.53125 C 4.367188 -2.53125 4.539062 -2.640625 4.625 -2.859375 C 4.71875 -3.085938 4.765625 -3.40625 4.765625 -3.8125 L 4.765625 -10.90625 C 4.765625 -11.226562 4.722656 -11.484375 4.640625 -11.671875 C 4.554688 -11.867188 4.382812 -11.96875 4.125 -11.96875 C 3.632812 -11.96875 3.390625 -11.601562 3.390625 -10.875 L 3.390625 -3.796875 C 3.390625 -3.378906 3.441406 -3.0625 3.546875 -2.84375 C 3.648438 -2.632812 3.835938 -2.53125 4.109375 -2.53125 Z M 4.109375 -2.53125 "/></g></g></g><g fill="#8fff00" fill-opacity="1"><g transform="translate(841.435866, 24.595311)"><g><path d="M 0.640625 0 L 0.640625 -14.515625 L 3.625 -14.515625 L 4.96875 -7.5625 L 4.96875 -14.515625 L 7.765625 -14.515625 L 7.765625 0 L 4.9375 0 L 3.484375 -7.265625 L 3.484375 0 Z M 0.640625 0 "/></g></g></g><g fill="#8fff00" fill-opacity="1"><g transform="translate(849.845071, 24.595311)"><g/></g></g><g fill="#8fff00" fill-opacity="1"><g transform="translate(853.796378, 24.595311)"><g><path d="M 0.640625 -14.515625 L 4.46875 -14.515625 C 5.632812 -14.515625 6.460938 -14.140625 6.953125 -13.390625 C 7.453125 -12.640625 7.703125 -11.539062 7.703125 -10.09375 C 7.703125 -8.65625 7.484375 -7.570312 7.046875 -6.84375 C 6.609375 -6.113281 5.816406 -5.75 4.671875 -5.75 L 3.5 -5.75 L 3.5 0 L 0.640625 0 Z M 3.671875 -8.359375 C 4.015625 -8.359375 4.265625 -8.421875 4.421875 -8.546875 C 4.585938 -8.679688 4.695312 -8.867188 4.75 -9.109375 C 4.800781 -9.347656 4.828125 -9.695312 4.828125 -10.15625 C 4.828125 -10.757812 4.757812 -11.195312 4.625 -11.46875 C 4.488281 -11.738281 4.21875 -11.875 3.8125 -11.875 L 3.5 -11.875 L 3.5 -8.359375 Z M 3.671875 -8.359375 "/></g></g></g><g fill="#8fff00" fill-opacity="1"><g transform="translate(861.766545, 24.595311)"><g><path d="M 0.640625 -14.515625 L 5.09375 -14.515625 C 5.8125 -14.515625 6.363281 -14.351562 6.75 -14.03125 C 7.132812 -13.707031 7.394531 -13.253906 7.53125 -12.671875 C 7.664062 -12.097656 7.734375 -11.359375 7.734375 -10.453125 C 7.734375 -9.628906 7.625 -8.988281 7.40625 -8.53125 C 7.195312 -8.070312 6.828125 -7.75 6.296875 -7.5625 C 6.734375 -7.476562 7.050781 -7.257812 7.25 -6.90625 C 7.445312 -6.5625 7.546875 -6.085938 7.546875 -5.484375 L 7.515625 0 L 4.671875 0 L 4.671875 -5.671875 C 4.671875 -6.078125 4.59375 -6.335938 4.4375 -6.453125 C 4.28125 -6.566406 3.992188 -6.625 3.578125 -6.625 L 3.578125 0 L 0.640625 0 Z M 4.296875 -9.140625 C 4.691406 -9.140625 4.890625 -9.578125 4.890625 -10.453125 C 4.890625 -10.835938 4.875 -11.125 4.84375 -11.3125 C 4.8125 -11.507812 4.75 -11.644531 4.65625 -11.71875 C 4.570312 -11.789062 4.441406 -11.828125 4.265625 -11.828125 L 3.59375 -11.828125 L 3.59375 -9.140625 Z M 4.296875 -9.140625 "/></g></g></g><g fill="#8fff00" fill-opacity="1"><g transform="translate(869.821141, 24.595311)"><g><path d="M 4.109375 0.140625 C 2.929688 0.140625 2.039062 -0.21875 1.4375 -0.9375 C 0.832031 -1.65625 0.53125 -2.660156 0.53125 -3.953125 L 0.53125 -10.859375 C 0.53125 -12.109375 0.832031 -13.050781 1.4375 -13.6875 C 2.039062 -14.320312 2.929688 -14.640625 4.109375 -14.640625 C 5.273438 -14.640625 6.160156 -14.320312 6.765625 -13.6875 C 7.378906 -13.050781 7.6875 -12.109375 7.6875 -10.859375 L 7.6875 -3.953125 C 7.6875 -2.648438 7.378906 -1.640625 6.765625 -0.921875 C 6.160156 -0.210938 5.273438 0.140625 4.109375 0.140625 Z M 4.109375 -2.53125 C 4.367188 -2.53125 4.539062 -2.640625 4.625 -2.859375 C 4.71875 -3.085938 4.765625 -3.40625 4.765625 -3.8125 L 4.765625 -10.90625 C 4.765625 -11.226562 4.722656 -11.484375 4.640625 -11.671875 C 4.554688 -11.867188 4.382812 -11.96875 4.125 -11.96875 C 3.632812 -11.96875 3.390625 -11.601562 3.390625 -10.875 L 3.390625 -3.796875 C 3.390625 -3.378906 3.441406 -3.0625 3.546875 -2.84375 C 3.648438 -2.632812 3.835938 -2.53125 4.109375 -2.53125 Z M 4.109375 -2.53125 "/></g></g></g><g fill="#8fff00" fill-opacity="1"><g transform="translate(878.02771, 24.595311)"><g><path d="M 4.015625 0.140625 C 2.960938 0.140625 2.117188 -0.191406 1.484375 -0.859375 C 0.847656 -1.523438 0.53125 -2.4375 0.53125 -3.59375 L 0.53125 -10.28125 C 0.53125 -11.726562 0.816406 -12.816406 1.390625 -13.546875 C 1.960938 -14.273438 2.863281 -14.640625 4.09375 -14.640625 C 5.15625 -14.640625 6.015625 -14.347656 6.671875 -13.765625 C 7.328125 -13.179688 7.65625 -12.335938 7.65625 -11.234375 L 7.65625 -8.734375 L 4.765625 -8.734375 L 4.765625 -10.875 C 4.765625 -11.289062 4.710938 -11.578125 4.609375 -11.734375 C 4.503906 -11.890625 4.332031 -11.96875 4.09375 -11.96875 C 3.832031 -11.96875 3.648438 -11.878906 3.546875 -11.703125 C 3.453125 -11.523438 3.40625 -11.257812 3.40625 -10.90625 L 3.40625 -3.625 C 3.40625 -3.25 3.460938 -2.972656 3.578125 -2.796875 C 3.691406 -2.617188 3.863281 -2.53125 4.09375 -2.53125 C 4.539062 -2.53125 4.765625 -2.894531 4.765625 -3.625 L 4.765625 -6.25 L 7.6875 -6.25 L 7.6875 -3.515625 C 7.6875 -1.078125 6.460938 0.140625 4.015625 0.140625 Z M 4.015625 0.140625 "/></g></g></g><g fill="#8fff00" fill-opacity="1"><g transform="translate(886.031653, 24.595311)"><g><path d="M 0.640625 0 L 0.640625 -14.515625 L 6.453125 -14.515625 L 6.453125 -11.703125 L 3.59375 -11.703125 L 3.59375 -8.890625 L 6.328125 -8.890625 L 6.328125 -6.140625 L 3.59375 -6.140625 L 3.59375 -2.828125 L 6.640625 -2.828125 L 6.640625 0 Z M 0.640625 0 "/></g></g></g><g fill="#8fff00" fill-opacity="1"><g transform="translate(892.988661, 24.595311)"><g><path d="M 4.09375 0.140625 C 2.769531 0.140625 1.816406 -0.1875 1.234375 -0.84375 C 0.648438 -1.5 0.359375 -2.550781 0.359375 -4 L 0.359375 -5.421875 L 3.203125 -5.421875 L 3.203125 -3.609375 C 3.203125 -2.890625 3.4375 -2.53125 3.90625 -2.53125 C 4.164062 -2.53125 4.34375 -2.601562 4.4375 -2.75 C 4.539062 -2.90625 4.59375 -3.164062 4.59375 -3.53125 C 4.59375 -4 4.535156 -4.390625 4.421875 -4.703125 C 4.304688 -5.015625 4.160156 -5.273438 3.984375 -5.484375 C 3.816406 -5.691406 3.507812 -6.015625 3.0625 -6.453125 L 1.8125 -7.703125 C 0.84375 -8.648438 0.359375 -9.695312 0.359375 -10.84375 C 0.359375 -12.082031 0.640625 -13.023438 1.203125 -13.671875 C 1.773438 -14.316406 2.609375 -14.640625 3.703125 -14.640625 C 5.003906 -14.640625 5.941406 -14.289062 6.515625 -13.59375 C 7.085938 -12.90625 7.375 -11.828125 7.375 -10.359375 L 4.421875 -10.359375 L 4.40625 -11.34375 C 4.40625 -11.539062 4.351562 -11.691406 4.25 -11.796875 C 4.144531 -11.910156 3.992188 -11.96875 3.796875 -11.96875 C 3.578125 -11.96875 3.410156 -11.90625 3.296875 -11.78125 C 3.179688 -11.664062 3.125 -11.5 3.125 -11.28125 C 3.125 -10.8125 3.394531 -10.320312 3.9375 -9.8125 L 5.625 -8.1875 C 6.019531 -7.8125 6.347656 -7.453125 6.609375 -7.109375 C 6.867188 -6.765625 7.078125 -6.359375 7.234375 -5.890625 C 7.390625 -5.421875 7.46875 -4.863281 7.46875 -4.21875 C 7.46875 -2.789062 7.203125 -1.707031 6.671875 -0.96875 C 6.148438 -0.226562 5.289062 0.140625 4.09375 0.140625 Z M 4.09375 0.140625 "/></g></g></g><g fill="#8fff00" fill-opacity="1"><g transform="translate(900.773079, 24.595311)"><g><path d="M 4.109375 0.140625 C 2.929688 0.140625 2.039062 -0.21875 1.4375 -0.9375 C 0.832031 -1.65625 0.53125 -2.660156 0.53125 -3.953125 L 0.53125 -10.859375 C 0.53125 -12.109375 0.832031 -13.050781 1.4375 -13.6875 C 2.039062 -14.320312 2.929688 -14.640625 4.109375 -14.640625 C 5.273438 -14.640625 6.160156 -14.320312 6.765625 -13.6875 C 7.378906 -13.050781 7.6875 -12.109375 7.6875 -10.859375 L 7.6875 -3.953125 C 7.6875 -2.648438 7.378906 -1.640625 6.765625 -0.921875 C 6.160156 -0.210938 5.273438 0.140625 4.109375 0.140625 Z M 4.109375 -2.53125 C 4.367188 -2.53125 4.539062 -2.640625 4.625 -2.859375 C 4.71875 -3.085938 4.765625 -3.40625 4.765625 -3.8125 L 4.765625 -10.90625 C 4.765625 -11.226562 4.722656 -11.484375 4.640625 -11.671875 C 4.554688 -11.867188 4.382812 -11.96875 4.125 -11.96875 C 3.632812 -11.96875 3.390625 -11.601562 3.390625 -10.875 L 3.390625 -3.796875 C 3.390625 -3.378906 3.441406 -3.0625 3.546875 -2.84375 C 3.648438 -2.632812 3.835938 -2.53125 4.109375 -2.53125 Z M 4.109375 -2.53125 "/></g></g></g><g fill="#8fff00" fill-opacity="1"><g transform="translate(908.979648, 24.595311)"><g><path d="M 4.09375 0.140625 C 2.769531 0.140625 1.816406 -0.1875 1.234375 -0.84375 C 0.648438 -1.5 0.359375 -2.550781 0.359375 -4 L 0.359375 -5.421875 L 3.203125 -5.421875 L 3.203125 -3.609375 C 3.203125 -2.890625 3.4375 -2.53125 3.90625 -2.53125 C 4.164062 -2.53125 4.34375 -2.601562 4.4375 -2.75 C 4.539062 -2.90625 4.59375 -3.164062 4.59375 -3.53125 C 4.59375 -4 4.535156 -4.390625 4.421875 -4.703125 C 4.304688 -5.015625 4.160156 -5.273438 3.984375 -5.484375 C 3.816406 -5.691406 3.507812 -6.015625 3.0625 -6.453125 L 1.8125 -7.703125 C 0.84375 -8.648438 0.359375 -9.695312 0.359375 -10.84375 C 0.359375 -12.082031 0.640625 -13.023438 1.203125 -13.671875 C 1.773438 -14.316406 2.609375 -14.640625 3.703125 -14.640625 C 5.003906 -14.640625 5.941406 -14.289062 6.515625 -13.59375 C 7.085938 -12.90625 7.375 -11.828125 7.375 -10.359375 L 4.421875 -10.359375 L 4.40625 -11.34375 C 4.40625 -11.539062 4.351562 -11.691406 4.25 -11.796875 C 4.144531 -11.910156 3.992188 -11.96875 3.796875 -11.96875 C 3.578125 -11.96875 3.410156 -11.90625 3.296875 -11.78125 C 3.179688 -11.664062 3.125 -11.5 3.125 -11.28125 C 3.125 -10.8125 3.394531 -10.320312 3.9375 -9.8125 L 5.625 -8.1875 C 6.019531 -7.8125 6.347656 -7.453125 6.609375 -7.109375 C 6.867188 -6.765625 7.078125 -6.359375 7.234375 -5.890625 C 7.390625 -5.421875 7.46875 -4.863281 7.46875 -4.21875 C 7.46875 -2.789062 7.203125 -1.707031 6.671875 -0.96875 C 6.148438 -0.226562 5.289062 0.140625 4.09375 0.140625 Z M 4.09375 0.140625 "/></g></g></g><g fill="#8fff00" fill-opacity="1"><g transform="translate(916.764066, 24.595311)"><g/></g></g><g fill="#8fff00" fill-opacity="1"><g transform="translate(920.715373, 24.595311)"><g><path d="M 0.640625 -14.515625 L 4.578125 -14.515625 C 5.640625 -14.515625 6.40625 -14.253906 6.875 -13.734375 C 7.351562 -13.210938 7.59375 -12.367188 7.59375 -11.203125 L 7.59375 -10.5625 C 7.59375 -9.175781 7.097656 -8.347656 6.109375 -8.078125 C 6.722656 -7.921875 7.148438 -7.550781 7.390625 -6.96875 C 7.640625 -6.394531 7.765625 -5.640625 7.765625 -4.703125 C 7.765625 -3.148438 7.535156 -1.976562 7.078125 -1.1875 C 6.617188 -0.394531 5.785156 0 4.578125 0 L 0.640625 0 Z M 4.078125 -9.046875 C 4.316406 -9.046875 4.484375 -9.140625 4.578125 -9.328125 C 4.671875 -9.515625 4.71875 -9.78125 4.71875 -10.125 L 4.71875 -11.5625 C 4.71875 -12.039062 4.507812 -12.28125 4.09375 -12.28125 L 3.484375 -12.28125 L 3.484375 -9.046875 Z M 3.765625 -2.546875 C 4.515625 -2.546875 4.890625 -2.90625 4.890625 -3.625 L 4.890625 -5.4375 C 4.890625 -5.875 4.828125 -6.203125 4.703125 -6.421875 C 4.578125 -6.648438 4.347656 -6.765625 4.015625 -6.765625 L 3.484375 -6.765625 L 3.484375 -2.5625 Z M 3.765625 -2.546875 "/></g></g></g><g fill="#8fff00" fill-opacity="1"><g transform="translate(928.803746, 24.595311)"><g><path d="M 0.5 0 L 0.5 -14.515625 L 3.3125 -14.515625 L 3.3125 0 Z M 0.5 0 "/></g></g></g><g fill="#8fff00" fill-opacity="1"><g transform="translate(932.636858, 24.595311)"><g><path d="M 0.484375 -4.203125 L 0.484375 -6.109375 L 4.75 -6.109375 L 4.75 -4.203125 Z M 0.484375 -4.203125 "/></g></g></g><g fill="#8fff00" fill-opacity="1"><g transform="translate(937.888391, 24.595311)"><g><path d="M 0.640625 -14.515625 L 4.640625 -14.515625 C 5.679688 -14.515625 6.457031 -14.222656 6.96875 -13.640625 C 7.488281 -13.066406 7.753906 -12.21875 7.765625 -11.09375 L 7.796875 -4.3125 C 7.816406 -2.875 7.570312 -1.796875 7.0625 -1.078125 C 6.550781 -0.359375 5.710938 0 4.546875 0 L 0.640625 0 Z M 4.078125 -2.5625 C 4.597656 -2.5625 4.859375 -2.820312 4.859375 -3.34375 L 4.859375 -10.828125 C 4.859375 -11.148438 4.832031 -11.394531 4.78125 -11.5625 C 4.738281 -11.726562 4.648438 -11.835938 4.515625 -11.890625 C 4.378906 -11.941406 4.171875 -11.96875 3.890625 -11.96875 L 3.5625 -11.96875 L 3.5625 -2.5625 Z M 4.078125 -2.5625 "/></g></g></g><g fill="#8fff00" fill-opacity="1"><g transform="translate(946.213165, 24.595311)"><g><path d="M 0.5 0 L 0.5 -14.515625 L 3.3125 -14.515625 L 3.3125 0 Z M 0.5 0 "/></g></g></g><g fill="#8fff00" fill-opacity="1"><g transform="translate(950.046277, 24.595311)"><g><path d="M 0.640625 -14.515625 L 5.09375 -14.515625 C 5.8125 -14.515625 6.363281 -14.351562 6.75 -14.03125 C 7.132812 -13.707031 7.394531 -13.253906 7.53125 -12.671875 C 7.664062 -12.097656 7.734375 -11.359375 7.734375 -10.453125 C 7.734375 -9.628906 7.625 -8.988281 7.40625 -8.53125 C 7.195312 -8.070312 6.828125 -7.75 6.296875 -7.5625 C 6.734375 -7.476562 7.050781 -7.257812 7.25 -6.90625 C 7.445312 -6.5625 7.546875 -6.085938 7.546875 -5.484375 L 7.515625 0 L 4.671875 0 L 4.671875 -5.671875 C 4.671875 -6.078125 4.59375 -6.335938 4.4375 -6.453125 C 4.28125 -6.566406 3.992188 -6.625 3.578125 -6.625 L 3.578125 0 L 0.640625 0 Z M 4.296875 -9.140625 C 4.691406 -9.140625 4.890625 -9.578125 4.890625 -10.453125 C 4.890625 -10.835938 4.875 -11.125 4.84375 -11.3125 C 4.8125 -11.507812 4.75 -11.644531 4.65625 -11.71875 C 4.570312 -11.789062 4.441406 -11.828125 4.265625 -11.828125 L 3.59375 -11.828125 L 3.59375 -9.140625 Z M 4.296875 -9.140625 "/></g></g></g><g fill="#8fff00" fill-opacity="1"><g transform="translate(958.100874, 24.595311)"><g><path d="M 0.640625 0 L 0.640625 -14.515625 L 6.453125 -14.515625 L 6.453125 -11.703125 L 3.59375 -11.703125 L 3.59375 -8.890625 L 6.328125 -8.890625 L 6.328125 -6.140625 L 3.59375 -6.140625 L 3.59375 -2.828125 L 6.640625 -2.828125 L 6.640625 0 Z M 0.640625 0 "/></g></g></g><g fill="#8fff00" fill-opacity="1"><g transform="translate(965.057882, 24.595311)"><g><path d="M 4.015625 0.140625 C 2.960938 0.140625 2.117188 -0.191406 1.484375 -0.859375 C 0.847656 -1.523438 0.53125 -2.4375 0.53125 -3.59375 L 0.53125 -10.28125 C 0.53125 -11.726562 0.816406 -12.816406 1.390625 -13.546875 C 1.960938 -14.273438 2.863281 -14.640625 4.09375 -14.640625 C 5.15625 -14.640625 6.015625 -14.347656 6.671875 -13.765625 C 7.328125 -13.179688 7.65625 -12.335938 7.65625 -11.234375 L 7.65625 -8.734375 L 4.765625 -8.734375 L 4.765625 -10.875 C 4.765625 -11.289062 4.710938 -11.578125 4.609375 -11.734375 C 4.503906 -11.890625 4.332031 -11.96875 4.09375 -11.96875 C 3.832031 -11.96875 3.648438 -11.878906 3.546875 -11.703125 C 3.453125 -11.523438 3.40625 -11.257812 3.40625 -10.90625 L 3.40625 -3.625 C 3.40625 -3.25 3.460938 -2.972656 3.578125 -2.796875 C 3.691406 -2.617188 3.863281 -2.53125 4.09375 -2.53125 C 4.539062 -2.53125 4.765625 -2.894531 4.765625 -3.625 L 4.765625 -6.25 L 7.6875 -6.25 L 7.6875 -3.515625 C 7.6875 -1.078125 6.460938 0.140625 4.015625 0.140625 Z M 4.015625 0.140625 "/></g></g></g><g fill="#8fff00" fill-opacity="1"><g transform="translate(973.061825, 24.595311)"><g><path d="M 4.015625 0.140625 C 2.960938 0.140625 2.117188 -0.191406 1.484375 -0.859375 C 0.847656 -1.523438 0.53125 -2.4375 0.53125 -3.59375 L 0.53125 -10.28125 C 0.53125 -11.726562 0.816406 -12.816406 1.390625 -13.546875 C 1.960938 -14.273438 2.863281 -14.640625 4.09375 -14.640625 C 5.15625 -14.640625 6.015625 -14.347656 6.671875 -13.765625 C 7.328125 -13.179688 7.65625 -12.335938 7.65625 -11.234375 L 7.65625 -8.734375 L 4.765625 -8.734375 L 4.765625 -10.875 C 4.765625 -11.289062 4.710938 -11.578125 4.609375 -11.734375 C 4.503906 -11.890625 4.332031 -11.96875 4.09375 -11.96875 C 3.832031 -11.96875 3.648438 -11.878906 3.546875 -11.703125 C 3.453125 -11.523438 3.40625 -11.257812 3.40625 -10.90625 L 3.40625 -3.625 C 3.40625 -3.25 3.460938 -2.972656 3.578125 -2.796875 C 3.691406 -2.617188 3.863281 -2.53125 4.09375 -2.53125 C 4.539062 -2.53125 4.765625 -2.894531 4.765625 -3.625 L 4.765625 -6.25 L 7.6875 -6.25 L 7.6875 -3.515625 C 7.6875 -1.078125 6.460938 0.140625 4.015625 0.140625 Z M 4.015625 0.140625 "/></g></g></g><g fill="#8fff00" fill-opacity="1"><g transform="translate(981.065768, 24.595311)"><g><path d="M 0.5 0 L 0.5 -14.515625 L 3.3125 -14.515625 L 3.3125 0 Z M 0.5 0 "/></g></g></g><g fill="#8fff00" fill-opacity="1"><g transform="translate(984.89888, 24.595311)"><g><path d="M 4.109375 0.140625 C 2.929688 0.140625 2.039062 -0.21875 1.4375 -0.9375 C 0.832031 -1.65625 0.53125 -2.660156 0.53125 -3.953125 L 0.53125 -10.859375 C 0.53125 -12.109375 0.832031 -13.050781 1.4375 -13.6875 C 2.039062 -14.320312 2.929688 -14.640625 4.109375 -14.640625 C 5.273438 -14.640625 6.160156 -14.320312 6.765625 -13.6875 C 7.378906 -13.050781 7.6875 -12.109375 7.6875 -10.859375 L 7.6875 -3.953125 C 7.6875 -2.648438 7.378906 -1.640625 6.765625 -0.921875 C 6.160156 -0.210938 5.273438 0.140625 4.109375 0.140625 Z M 4.109375 -2.53125 C 4.367188 -2.53125 4.539062 -2.640625 4.625 -2.859375 C 4.71875 -3.085938 4.765625 -3.40625 4.765625 -3.8125 L 4.765625 -10.90625 C 4.765625 -11.226562 4.722656 -11.484375 4.640625 -11.671875 C 4.554688 -11.867188 4.382812 -11.96875 4.125 -11.96875 C 3.632812 -11.96875 3.390625 -11.601562 3.390625 -10.875 L 3.390625 -3.796875 C 3.390625 -3.378906 3.441406 -3.0625 3.546875 -2.84375 C 3.648438 -2.632812 3.835938 -2.53125 4.109375 -2.53125 Z M 4.109375 -2.53125 "/></g></g></g><g fill="#8fff00" fill-opacity="1"><g transform="translate(993.105448, 24.595311)"><g><path d="M 0.640625 0 L 0.640625 -14.515625 L 3.625 -14.515625 L 4.96875 -7.5625 L 4.96875 -14.515625 L 7.765625 -14.515625 L 7.765625 0 L 4.9375 0 L 3.484375 -7.265625 L 3.484375 0 Z M 0.640625 0 "/></g></g></g><g fill="#8fff00" fill-opacity="1"><g transform="translate(1001.514653, 24.595311)"><g><path d="M 0.25 0 L 1.65625 -14.515625 L 6.578125 -14.515625 L 7.953125 0 L 5.203125 0 L 5 -2.34375 L 3.25 -2.34375 L 3.078125 0 Z M 3.46875 -4.65625 L 4.78125 -4.65625 L 4.140625 -12.046875 L 4 -12.046875 Z M 3.46875 -4.65625 "/></g></g></g><g fill="#8fff00" fill-opacity="1"><g transform="translate(1009.704333, 24.595311)"><g><path d="M 0.640625 0 L 0.640625 -14.515625 L 3.546875 -14.515625 L 3.546875 -2.46875 L 6.53125 -2.46875 L 6.53125 0 Z M 0.640625 0 "/></g></g></g><g clip-path="url(#0fb56def89)"><g fill="#8fff00" fill-opacity="1"><g transform="translate(1016.408051, 24.595311)"><g><path d="M 0.640625 0 L 0.640625 -14.515625 L 6.453125 -14.515625 L 6.453125 -11.703125 L 3.59375 -11.703125 L 3.59375 -8.890625 L 6.328125 -8.890625 L 6.328125 -6.140625 L 3.59375 -6.140625 L 3.59375 -2.828125 L 6.640625 -2.828125 L 6.640625 0 Z M 0.640625 0 "/></g></g></g></g></svg>