<svg width="362" height="101" viewBox="0 0 362 101" fill="none" xmlns="http://www.w3.org/2000/svg">
    <g clip-path="url(#clip0_16_139)">
        <path
            d="M283.887 46.8059C283.978 47.0792 284.111 47.3443 284.294 47.6093L293.881 66.6928L305.215 44.2962C306.246 42.3249 307.827 40.9831 309.941 40.2625C310.798 39.9974 311.63 39.8566 312.438 39.8566C313.694 39.8566 314.909 40.1714 316.082 40.8009C318.063 41.7451 319.436 43.2857 320.201 45.4392C320.468 46.2923 320.609 47.1206 320.609 47.9241C320.609 49.1747 320.318 50.3923 319.735 51.5519L301.72 87.1181C300.413 89.5863 298.749 91.2429 296.727 92.0877C295.778 92.4439 294.838 92.6261 293.889 92.6261C292.541 92.6261 291.101 92.27 289.57 91.5494C288.397 90.9199 287.182 89.3793 285.925 86.911L285.651 86.4389L285.451 85.9668L276.88 68.8297L267.36 87.6482C266.187 90.0253 264.523 91.5494 262.367 92.2203C261.56 92.4853 260.745 92.6261 259.937 92.6261C258.539 92.6261 257.075 92.27 255.552 91.5494C254.379 90.9199 253.305 89.6195 252.315 87.6482L252.049 87.2423L251.849 86.7702L238.684 60.6298L225.653 34.5557C225.071 33.3878 224.771 32.1785 224.771 30.9278C224.771 30.1244 224.904 29.2961 225.179 28.443C225.894 26.2895 227.251 24.7489 229.231 23.8046C230.405 23.1752 231.62 22.8604 232.876 22.8604C233.683 22.8604 234.515 22.9929 235.373 23.2663C237.536 23.9869 239.109 25.3287 240.099 27.3L259.879 66.6762L267.776 50.8147L259.605 34.5557C259.064 33.4375 258.797 32.2696 258.797 31.0603C258.797 30.1658 258.931 29.2878 259.205 28.443C259.921 26.2895 261.277 24.7489 263.258 23.8046C264.431 23.1752 265.646 22.8604 266.903 22.8604C267.71 22.8604 268.542 22.9929 269.399 23.2663C271.563 23.9869 273.135 25.3287 274.126 27.3L283.912 46.7893L283.887 46.8059ZM226.976 29.4038V29.4701C226.976 29.7351 227.176 30.0747 227.584 30.4806C227.85 30.7953 228.1 30.9527 228.324 30.9527C228.416 30.9527 228.499 30.9113 228.591 30.8201C229.622 28.6666 231.22 27.5982 233.384 27.5982C234.058 27.5982 234.823 27.7141 235.68 27.9377H235.814C236.263 27.9377 236.488 27.8301 236.488 27.5982C236.488 27.4159 236.396 27.1509 236.221 26.7947C235.68 26.2149 235.189 25.8339 234.74 25.6517C234.199 25.4281 233.617 25.3121 232.984 25.3121C232.26 25.3121 231.52 25.4446 230.754 25.718C229.131 26.2978 227.917 27.358 227.109 28.8737C227.018 29.0973 226.976 29.2796 226.976 29.4121V29.4038ZM271.804 28.3933C270.997 26.8693 269.782 25.8174 268.159 25.2376C267.394 24.9725 266.653 24.8317 265.929 24.8317C265.297 24.8317 264.714 24.9477 264.173 25.1713C263.724 25.3535 263.224 25.7345 262.692 26.3143C262.509 26.6705 262.426 26.9438 262.426 27.1178C262.426 27.3414 262.65 27.4573 263.1 27.4573H263.233C264.09 27.2337 264.855 27.1178 265.529 27.1178C267.693 27.1178 269.291 28.1945 270.323 30.3397C270.414 30.4309 270.506 30.4723 270.589 30.4723C270.814 30.4723 271.063 30.3149 271.33 30.0002C271.737 29.5943 271.937 29.263 271.937 28.9897V28.9234C271.937 28.7909 271.887 28.6086 271.804 28.385V28.3933ZM318.179 45.373C317.372 43.8489 316.157 42.797 314.535 42.2172C313.769 41.9522 313.028 41.8114 312.304 41.8114C311.672 41.8114 311.089 41.9273 310.549 42.151C310.099 42.3332 309.6 42.7142 309.067 43.294C308.884 43.6501 308.801 43.9235 308.801 44.0974C308.801 44.3211 309.026 44.437 309.475 44.437H309.608C310.465 44.2134 311.231 44.0974 311.905 44.0974C314.069 44.0974 315.666 45.1742 316.698 47.3194C316.79 47.4105 316.881 47.4519 316.964 47.4519C317.189 47.4519 317.439 47.2946 317.705 46.9798C318.113 46.574 318.312 46.2426 318.312 45.9693V45.9031C318.312 45.7705 318.263 45.5883 318.179 45.3647V45.373Z"
            fill="#8FFF00" />
        <path
            d="M46.5086 27.3166C47.4989 25.3453 49.0716 24.0035 51.2352 23.2829C52.0923 23.0178 52.9245 22.877 53.7316 22.877C54.9882 22.877 56.2114 23.1918 57.3764 23.8212C59.3569 24.7655 60.705 26.3061 61.429 28.4596C61.7036 29.3127 61.8367 30.1824 61.8367 31.0769C61.8367 32.2862 61.5705 33.4541 61.0296 34.5723L52.8579 50.8313L60.755 66.6928L80.535 27.3166C81.5253 25.3453 83.0981 24.0035 85.2616 23.2829C86.1188 23.0178 86.9509 22.877 87.7581 22.877C89.0146 22.877 90.2295 23.1918 91.4029 23.8212C93.3834 24.7655 94.7315 26.3061 95.4554 28.4596C95.7217 29.3127 95.8632 30.141 95.8632 30.9444C95.8632 32.1951 95.5719 33.4127 94.9811 34.5723L81.9497 60.6464L68.7852 86.7868L68.5854 87.2589L68.3192 87.6648C67.3289 89.6361 66.2471 90.9365 65.0821 91.566C63.551 92.2866 62.0864 92.6427 60.6967 92.6427C59.8895 92.6427 59.074 92.5102 58.2668 92.2369C56.1033 91.566 54.439 90.0419 53.274 87.6648L43.7542 68.8463L35.1831 85.9834L34.9834 86.4555L34.7088 86.9276C33.4523 89.3876 32.2373 90.9365 31.064 91.566C29.5329 92.2866 28.0932 92.6427 26.7452 92.6427C25.7965 92.6427 24.8562 92.4605 23.9075 92.1043C21.8854 91.2512 20.2211 89.5947 18.9147 87.1347L0.873753 51.5602C0.291251 50.3923 0 49.1831 0 47.9324C0 47.1289 0.133143 46.3007 0.407751 45.4475C1.17333 43.294 2.54637 41.7534 4.52687 40.8092C5.7002 40.1797 6.91513 39.865 8.17167 39.865C8.97885 39.865 9.81932 39.9975 10.6681 40.2708C12.7818 40.9914 14.3628 42.3332 15.3947 44.3045L26.7285 66.7011L36.3148 47.6176C36.4979 47.3526 36.6311 47.0792 36.7226 46.8142L46.5086 27.3249V27.3166ZM93.4999 28.8654C92.6927 27.3414 91.4778 26.2895 89.8551 25.7097C89.0895 25.4447 88.3489 25.3039 87.6249 25.3039C86.9925 25.3039 86.41 25.4198 85.8691 25.6435C85.4198 25.8257 84.9205 26.2067 84.3879 26.7865C84.2048 27.1426 84.1216 27.416 84.1216 27.5899C84.1216 27.7638 84.3463 27.9295 84.7956 27.9295H84.9288C85.7859 27.7059 86.5515 27.5899 87.2255 27.5899C89.3891 27.5899 90.9868 28.6667 92.0187 30.8119C92.1102 30.903 92.2017 30.9444 92.285 30.9444C92.5096 30.9444 92.7593 30.7871 93.0256 30.4723C93.4333 30.0665 93.633 29.7351 93.633 29.4618V29.3955C93.633 29.263 93.5914 29.0808 93.4999 28.8572V28.8654ZM48.6722 28.9317V28.998C48.6722 29.263 48.8719 29.6026 49.2797 30.0085C49.546 30.3232 49.7956 30.4806 50.0203 30.4806C50.1118 30.4806 50.2033 30.4392 50.2866 30.3481C51.3184 28.1945 52.9161 27.1261 55.0797 27.1261C55.7538 27.1261 56.5193 27.242 57.3764 27.4657H57.5096C57.9589 27.4657 58.1836 27.358 58.1836 27.1261C58.1836 26.9521 58.0921 26.6788 57.9173 26.3226C57.3764 25.7428 56.8855 25.3618 56.4361 25.1796C55.8952 24.956 55.3127 24.84 54.6803 24.84C53.9646 24.84 53.2157 24.9726 52.4501 25.2459C50.8275 25.8257 49.6125 26.8859 48.8053 28.4016C48.7138 28.6253 48.6722 28.8075 48.6722 28.94V28.9317ZM2.29672 45.9114V45.9776C2.29672 46.2427 2.49644 46.5823 2.90419 46.9881C3.17047 47.3029 3.42012 47.4603 3.6448 47.4603C3.73633 47.4603 3.82787 47.4188 3.91108 47.3277C4.94295 45.1742 6.54066 44.1057 8.70424 44.1057C9.37828 44.1057 10.1439 44.2217 11.001 44.4453H11.1341C11.5835 44.4453 11.8081 44.3377 11.8081 44.1057C11.8081 43.9318 11.7166 43.6585 11.5419 43.3023C11.001 42.7225 10.51 42.3415 10.0606 42.1593C9.51975 41.9356 8.93724 41.8197 8.30481 41.8197C7.58917 41.8197 6.84024 41.9522 6.07466 42.2255C4.45198 42.8053 3.23705 43.8655 2.42987 45.3813C2.33833 45.6049 2.29672 45.7871 2.29672 45.9197V45.9114Z"
            fill="#8FFF00" />
        <path
            d="M323.788 89.2053C322.648 91.4748 320.859 93.0154 318.412 93.8271C315.941 94.6885 313.544 94.5394 311.222 93.3799C308.942 92.2451 307.403 90.4395 306.612 87.9629C305.797 85.5278 305.955 83.1755 307.095 80.906L335.038 25.221C336.178 22.9515 337.968 21.4109 340.414 20.5992C342.877 19.7378 345.257 19.8786 347.537 21.0134C349.867 22.1729 351.423 23.9869 352.214 26.4717C353.029 28.9068 352.871 31.2591 351.731 33.5286L323.788 89.2136V89.2053ZM350.05 29.909C350 27.9212 349.293 26.2066 347.92 24.7654C347.271 24.0945 346.572 23.5727 345.823 23.2C345.174 22.877 344.508 22.6948 343.834 22.6451C343.277 22.5954 342.96 22.6451 342.894 22.7859C342.145 23.3408 341.696 23.7798 341.529 24.1111C341.438 24.2933 341.479 24.4341 341.671 24.5252C342.669 24.7323 343.518 25.0139 344.217 25.3618C346.455 26.4717 347.546 28.4099 347.504 31.168C347.595 31.4496 347.687 31.607 347.787 31.6567C349.018 31.0521 349.668 30.7373 349.742 30.7208C349.817 30.7042 349.867 30.6379 349.917 30.5468C349.984 30.406 350.034 30.1989 350.059 29.9173L350.05 29.909Z"
            fill="#8FFF00" />
        <path
            d="M327.233 24.3099C326.484 22.1895 325.127 20.6324 323.155 19.655C321.183 18.6776 319.119 18.5286 316.964 19.2077C314.834 19.9532 313.269 21.3033 312.287 23.2663C311.306 25.2293 311.156 27.2834 311.838 29.4287C312.587 31.5491 313.943 33.1062 315.916 34.0836C317.888 35.0609 319.952 35.21 322.107 34.5308C324.237 33.7854 325.802 32.4353 326.783 30.4723C327.765 28.5093 327.915 26.4552 327.233 24.3099ZM325.519 27.1343L325.485 27.1923C325.369 27.4325 325.036 27.6396 324.487 27.8218C324.104 27.9792 323.813 28.0123 323.613 27.9129C323.53 27.8715 323.472 27.797 323.43 27.6727C323.472 25.2873 322.523 23.6142 320.592 22.6534C319.985 22.3552 319.253 22.115 318.387 21.9328L318.271 21.8748C317.871 21.676 317.713 21.4772 317.821 21.2701C317.904 21.1128 318.104 20.9554 318.429 20.8229C319.169 20.4419 319.785 20.2679 320.268 20.3093C320.85 20.3508 321.424 20.5081 321.99 20.7897C322.631 21.1128 323.239 21.56 323.804 22.1398C324.994 23.3822 325.61 24.8649 325.652 26.5877C325.635 26.8279 325.593 27.0101 325.535 27.1261L325.519 27.1343Z"
            fill="#8FFF00" />
        <path
            d="M224.746 24.8483C216.191 15.9858 205.573 11.4385 192.916 11.2066H192.309C180.051 11.3805 169.525 15.845 160.737 24.5915C156.585 28.7826 153.423 33.3381 151.234 38.2664C150.061 36.5519 148.713 34.9202 147.173 33.3713C140.516 26.4717 132.253 22.935 122.4 22.7528H121.926C112.381 22.8853 104.193 26.3558 97.3526 33.1725C90.5124 40.072 87.0923 48.2471 87.0923 57.6978C87.0923 64.6387 89.0728 71.0661 93.0338 76.98C96.9033 82.8939 102.054 87.1927 108.495 89.8846C112.814 91.7233 117.274 92.6427 121.859 92.6427C124.156 92.6427 126.494 92.3942 128.883 91.9056C135.906 90.5638 141.931 87.3832 146.973 82.3638C149.046 80.3014 150.776 78.0899 152.208 75.7376C153.081 77.4853 154.063 79.2081 155.195 80.8895C160.171 88.4848 166.787 94.0094 175.058 97.4633C180.609 99.8239 186.334 101 192.234 101C195.18 101 198.192 100.685 201.254 100.048C210.275 98.3247 218.022 94.233 224.505 87.789C233.117 79.2164 237.461 68.7635 237.511 56.4471V56.0992C237.511 43.7827 233.259 33.363 224.762 24.8483H224.746ZM140.616 61.4581C139.584 66.5189 136.855 70.4863 132.444 73.3522C129.207 75.456 125.804 76.5079 122.25 76.5079C120.994 76.5079 119.687 76.3754 118.331 76.102C114.012 75.2075 110.384 73.0126 107.463 69.5173C104.676 66.0219 103.278 62.0793 103.278 57.6895C103.278 52.579 105.142 48.1726 108.878 44.4536C112.523 40.8258 116.958 38.9704 122.176 38.8793C128.026 38.9704 132.844 41.3227 136.622 45.9362C139.542 49.473 141.007 53.3493 141.007 57.5569C141.007 58.8076 140.874 60.108 140.599 61.4581H140.616ZM143.861 37.0654C143.77 37.1565 143.662 37.1979 143.52 37.1979C143.254 37.1979 142.913 37.0157 142.505 36.6595C136.788 32.0874 130.039 29.4287 122.25 28.6667C121.393 28.5756 120.969 28.2857 120.969 27.797C120.969 27.3911 121.377 27.1261 122.184 26.9936C123.357 26.7699 124.572 26.654 125.829 26.654C128.442 26.654 131.138 27.1675 133.934 28.2028C138.303 29.7683 141.54 32.2117 143.653 35.5248C143.92 35.9721 144.061 36.3282 144.061 36.6016C144.061 36.7838 143.994 36.9411 143.861 37.0737V37.0654ZM216.333 60.9363C215.001 67.4383 211.506 72.5322 205.839 76.218C201.679 78.9265 197.31 80.2766 192.742 80.2766C191.119 80.2766 189.446 80.1026 187.707 79.7547C182.157 78.6034 177.497 75.7873 173.744 71.2898C170.157 66.8005 168.368 61.7397 168.368 56.0992C168.368 49.5392 170.765 43.8655 175.566 39.0947C180.251 34.4315 185.943 32.046 192.65 31.9301C200.164 32.046 206.355 35.0692 211.215 40.9997C214.976 45.5469 216.857 50.5249 216.857 55.9335C216.857 57.5487 216.682 59.2135 216.333 60.9446V60.9363ZM220.494 29.5943C220.377 29.7103 220.236 29.7683 220.061 29.7683C219.711 29.7683 219.279 29.5364 218.763 29.0808C211.415 23.2083 202.744 19.7875 192.742 18.8102C191.643 18.6942 191.094 18.3215 191.094 17.692C191.094 17.1702 191.618 16.8306 192.658 16.6567C194.164 16.3668 195.721 16.226 197.343 16.226C200.697 16.226 204.167 16.8886 207.753 18.2138C213.362 20.2265 217.523 23.3657 220.244 27.623C220.593 28.2028 220.768 28.6584 220.768 29.0063C220.768 29.2382 220.685 29.437 220.51 29.6109L220.494 29.5943Z"
            fill="#8FFF00" />
        <path
            d="M361.518 6.38599C360.652 3.93429 359.079 2.13693 356.799 1.00219C354.519 -0.132544 352.131 -0.306482 349.643 0.48038C347.171 1.34179 345.374 2.90723 344.234 5.17671C343.094 7.44618 342.919 9.82334 343.71 12.2999C344.575 14.7599 346.14 16.5489 348.428 17.6837C350.708 18.8184 353.096 18.9924 355.584 18.1972C358.048 17.3358 359.853 15.7704 360.993 13.5009C362.133 11.2314 362.308 8.85425 361.518 6.37771V6.38599ZM359.529 9.65768L359.495 9.72394C359.354 10.0056 358.971 10.2458 358.347 10.4528C357.906 10.635 357.565 10.6765 357.332 10.5605C357.24 10.5108 357.165 10.4197 357.124 10.2789C357.165 7.52073 356.075 5.59084 353.837 4.47267C353.138 4.1248 352.289 3.85146 351.291 3.63611L351.149 3.56985C350.683 3.33793 350.508 3.10602 350.625 2.8741C350.716 2.69188 350.949 2.51794 351.324 2.35228C352.181 1.9133 352.897 1.71451 353.454 1.76421C354.128 1.8139 354.794 1.99613 355.443 2.31915C356.184 2.69188 356.883 3.21369 357.54 3.8846C358.913 5.31751 359.62 7.03204 359.67 9.02819C359.645 9.3098 359.604 9.51687 359.529 9.65768Z"
            fill="#8FFF00" />
    </g>
    <defs>
        <clipPath id="clip0_16_139">
            <rect width="362" height="101" fill="white" />
        </clipPath>
    </defs>
</svg>
    